SplineFontDB: 3.2
FontName: guz5m
FullName: guz5m
FamilyName: guz5m
Weight: Regular
Copyright: Copyright 2022 The Noto Project Authors (https://github.com/notofonts/gujarati)
Version: 2.102
ItalicAngle: 0
UnderlinePosition: -125
UnderlineWidth: 50
Ascent: 800
Descent: 200
InvalidEm: 0
sfntRevision: 0x00021a1d
LayerCount: 2
Layer: 0 1 "Back" 1
Layer: 1 1 "Fore" 0
XUID: [1021 467 -1121320856 7870834]
StyleMap: 0x0040
FSType: 0
OS2Version: 4
OS2_WeightWidthSlopeOnly: 0
OS2_UseTypoMetrics: 1
CreationTime: 1634404486
ModificationTime: 1716712372
PfmFamily: 81
TTFWeight: 400
TTFWidth: 5
LineGap: 0
VLineGap: 0
Panose: 0 0 0 0 0 0 0 0 0 0
OS2TypoAscent: 896
OS2TypoAOffset: 0
OS2TypoDescent: -408
OS2TypoDOffset: 0
OS2TypoLinegap: 0
OS2WinAscent: 896
OS2WinAOffset: 0
OS2WinDescent: 408
OS2WinDOffset: 0
HheadAscent: 896
HheadAOffset: 0
HheadDescent: -408
HheadDOffset: 0
OS2SubXSize: 650
OS2SubYSize: 600
OS2SubXOff: 0
OS2SubYOff: 75
OS2SupXSize: 650
OS2SupYSize: 600
OS2SupXOff: 0
OS2SupYOff: 350
OS2StrikeYSize: 50
OS2StrikeYPos: 322
OS2CapHeight: 592
OS2XHeight: 536
OS2Vendor: 'GOOG'
OS2CodePages: 00000093.00000000
OS2UnicodeRanges: 80048003.00002042.00000000.00000000
Lookup: 4 0 0 "'nukt' Nukta Forms lookup 0" { "'nukt' Nukta Forms lookup 0 subtable"  } ['nukt' ('gjr2' <'dflt' > 'gujr' <'dflt' > ) ]
Lookup: 4 0 0 "'akhn' Akhand lookup 1" { "'akhn' Akhand lookup 1 subtable"  } ['akhn' ('gjr2' <'dflt' > 'gujr' <'dflt' > ) ]
Lookup: 4 0 0 "'rphf' Reph Form lookup 2" { "'rphf' Reph Form lookup 2 subtable"  } ['rphf' ('gjr2' <'dflt' > 'gujr' <'dflt' > ) ]
Lookup: 4 256 0 "'rkrf' Rakar Forms lookup 3" { "'rkrf' Rakar Forms lookup 3 subtable"  } ['rkrf' ('gjr2' <'dflt' > 'gujr' <'dflt' > ) ]
Lookup: 4 0 0 "'blwf' Below Base Forms in Gujarati lookup 4" { "'blwf' Below Base Forms in Gujarati lookup 4 subtable"  } ['blwf' ('gujr' <'dflt' > ) ]

StartChar: exclam.gujr
Encoding: 33 33 3
Width: 883
Flags: W
LayerCount: 2
Fore
SplineSet
413.5 201 m 1,0,-1
 388.5 714 l 1,1,-1
 495.5 714 l 1,2,-1
 470.5 201 l 1,3,-1
 413.5 201 l 1,0,-1
441.5 -14 m 0,4,5
 415.5 -14 415.5 -14 397.5 2 c 128,-1,6
 379.5 18 379.5 18 379.5 54 c 0,7,8
 379.5 91 379.5 91 397.5 106 c 128,-1,9
 415.5 121 415.5 121 441.5 121 c 0,10,11
 466.5 121 466.5 121 485 106 c 128,-1,12
 503.5 91 503.5 91 503.5 54 c 0,13,14
 503.5 18 503.5 18 485 2 c 128,-1,15
 466.5 -14 466.5 -14 441.5 -14 c 0,4,5
EndSplineSet
EndChar

StartChar: quotedbl.gujr
Encoding: 34 34 4
Width: 883
Flags: W
LayerCount: 2
Fore
SplineSet
323.5 471 m 1,0,-1
 298.5 729 l 1,1,-1
 409.5 729 l 1,2,-1
 384.5 471 l 1,3,-1
 323.5 471 l 1,0,-1
499.5 471 m 1,4,-1
 474.5 729 l 1,5,-1
 584.5 729 l 1,6,-1
 559.5 471 l 1,7,-1
 499.5 471 l 1,4,-1
EndSplineSet
EndChar

StartChar: numbersign.gujr
Encoding: 35 35 5
Width: 883
Flags: W
LayerCount: 2
Fore
SplineSet
241 0 m 1,0,-1
 274 176 l 1,1,-1
 149 176 l 1,2,-1
 149 242 l 1,3,-1
 286 242 l 1,4,-1
 317 394 l 1,5,-1
 185 394 l 1,6,-1
 185 459 l 1,7,-1
 328 459 l 1,8,-1
 362 632 l 1,9,-1
 432 632 l 1,10,-1
 399 459 l 1,11,-1
 539 459 l 1,12,-1
 573 632 l 1,13,-1
 642 632 l 1,14,-1
 608 459 l 1,15,-1
 734 459 l 1,16,-1
 734 394 l 1,17,-1
 595 394 l 1,18,-1
 566 242 l 1,19,-1
 699 242 l 1,20,-1
 699 176 l 1,21,-1
 553 176 l 1,22,-1
 519 0 l 1,23,-1
 449 0 l 1,24,-1
 484 176 l 1,25,-1
 344 176 l 1,26,-1
 310 0 l 1,27,-1
 241 0 l 1,0,-1
357 242 m 1,28,-1
 496 242 l 1,29,-1
 526 394 l 1,30,-1
 386 394 l 1,31,-1
 357 242 l 1,28,-1
EndSplineSet
EndChar

StartChar: percent.gujr
Encoding: 37 37 6
Width: 883
Flags: W
LayerCount: 2
Fore
SplineSet
211 0 m 1,0,-1
 597 622 l 1,1,-1
 674 622 l 1,2,-1
 289 0 l 1,3,-1
 211 0 l 1,0,-1
230 271 m 0,4,5
 159 271 159 271 122 319 c 128,-1,6
 85 367 85 367 85 452 c 0,7,8
 85 538 85 538 119.5 585 c 128,-1,9
 154 632 154 632 230 632 c 0,10,11
 302 632 302 632 339.5 585 c 128,-1,12
 377 538 377 538 377 452 c 0,13,14
 377 367 377 367 342 319 c 128,-1,15
 307 271 307 271 230 271 c 0,4,5
229 334 m 256,16,17
 267 334 267 334 285.5 364 c 128,-1,18
 304 394 304 394 304 452 c 0,19,20
 304 511 304 511 285.5 540 c 128,-1,21
 267 569 267 569 229 569 c 256,22,23
 191 569 191 569 174 540 c 128,-1,24
 157 511 157 511 157 452 c 0,25,26
 157 394 157 394 174 364 c 128,-1,27
 191 334 191 334 229 334 c 256,16,17
652 -10 m 0,28,29
 580 -10 580 -10 543.5 38.5 c 128,-1,30
 507 87 507 87 507 171 c 0,31,32
 507 257 507 257 541.5 304.5 c 128,-1,33
 576 352 576 352 652 352 c 0,34,35
 725 352 725 352 761.5 304.5 c 128,-1,36
 798 257 798 257 798 171 c 0,37,38
 798 87 798 87 763.5 38.5 c 128,-1,39
 729 -10 729 -10 652 -10 c 0,28,29
652 55 m 256,40,41
 690 55 690 55 708.5 84 c 128,-1,42
 727 113 727 113 727 171 c 0,43,44
 727 230 727 230 708.5 259.5 c 128,-1,45
 690 289 690 289 652 289 c 256,46,47
 614 289 614 289 597 259.5 c 128,-1,48
 580 230 580 230 580 171 c 0,49,50
 580 113 580 113 597 84 c 128,-1,51
 614 55 614 55 652 55 c 256,40,41
EndSplineSet
EndChar

StartChar: quotesingle.gujr
Encoding: 39 39 7
Width: 883
Flags: W
LayerCount: 2
Fore
SplineSet
411 471 m 1,0,-1
 386 729 l 1,1,-1
 497 729 l 1,2,-1
 472 471 l 1,3,-1
 411 471 l 1,0,-1
EndSplineSet
EndChar

StartChar: parenleft.gujr
Encoding: 40 40 8
Width: 883
Flags: W
LayerCount: 2
Fore
SplineSet
473 -165 m 1,0,1
 398 -62 398 -62 363 68.5 c 128,-1,2
 328 199 328 199 328 337 c 0,3,4
 328 477 328 477 362.5 603.5 c 128,-1,5
 397 730 397 730 473 832 c 1,6,-1
 554 832 l 1,7,8
 509 762 509 762 477.5 681.5 c 128,-1,9
 446 601 446 601 429.5 514 c 128,-1,10
 413 427 413 427 413 336 c 0,11,12
 413 248 413 248 429 160 c 128,-1,13
 445 72 445 72 476.5 -10 c 128,-1,14
 508 -92 508 -92 555 -165 c 1,15,-1
 473 -165 l 1,0,1
EndSplineSet
EndChar

StartChar: parenright.gujr
Encoding: 41 41 9
Width: 883
Flags: W
LayerCount: 2
Fore
SplineSet
329 -165 m 1,0,1
 374 -94 374 -94 405.5 -13 c 128,-1,2
 437 68 437 68 453 155 c 128,-1,3
 469 242 469 242 469 330 c 0,4,5
 469 419 469 419 453 506.5 c 128,-1,6
 437 594 437 594 406 676.5 c 128,-1,7
 375 759 375 759 328 832 c 1,8,-1
 410 832 l 1,9,10
 485 729 485 729 520 598 c 128,-1,11
 555 467 555 467 555 329 c 0,12,13
 555 190 555 190 520 63 c 128,-1,14
 485 -64 485 -64 410 -165 c 1,15,-1
 329 -165 l 1,0,1
EndSplineSet
EndChar

StartChar: asterisk.gujr
Encoding: 42 42 10
Width: 883
Flags: W
LayerCount: 2
Fore
SplineSet
271.5 340 m 1,0,-1
 389.5 499 l 1,1,-1
 206.5 513 l 1,2,-1
 220.5 607 l 1,3,-1
 411.5 553 l 1,4,-1
 390.5 745 l 1,5,-1
 490.5 745 l 1,6,-1
 469.5 553 l 1,7,-1
 663.5 607 l 1,8,-1
 676.5 513 l 1,9,-1
 491.5 499 l 1,10,-1
 611.5 340 l 1,11,-1
 524.5 293 l 1,12,-1
 438.5 468 l 1,13,-1
 361.5 293 l 1,14,-1
 271.5 340 l 1,0,-1
EndSplineSet
EndChar

StartChar: plus.gujr
Encoding: 43 43 11
Width: 883
Flags: W
LayerCount: 2
Fore
SplineSet
405 97 m 1,0,-1
 405 286 l 1,1,-1
 216 286 l 1,2,-1
 216 359 l 1,3,-1
 405 359 l 1,4,-1
 405 548 l 1,5,-1
 478 548 l 1,6,-1
 478 359 l 1,7,-1
 667 359 l 1,8,-1
 667 286 l 1,9,-1
 478 286 l 1,10,-1
 478 97 l 1,11,-1
 405 97 l 1,0,-1
EndSplineSet
EndChar

StartChar: comma.gujr
Encoding: 44 44 12
Width: 883
Flags: W
LayerCount: 2
Fore
SplineSet
365 -129 m 1,0,1
 375 -89 375 -89 384.5 -45.5 c 128,-1,2
 394 -2 394 -2 401.5 40 c 128,-1,3
 409 82 409 82 414 116 c 1,4,-1
 511 116 l 1,5,-1
 518 105 l 1,6,7
 509 70 509 70 495 29.5 c 128,-1,8
 481 -11 481 -11 465 -51.5 c 128,-1,9
 449 -92 449 -92 432 -129 c 1,10,-1
 365 -129 l 1,0,1
EndSplineSet
EndChar

StartChar: hyphen.gujr
Encoding: 45 45 13
Width: 883
Flags: W
LayerCount: 2
Fore
SplineSet
320.5 256 m 1,0,-1
 320.5 338 l 1,1,-1
 562.5 338 l 1,2,-1
 562.5 256 l 1,3,-1
 320.5 256 l 1,0,-1
EndSplineSet
EndChar

StartChar: period.gujr
Encoding: 46 46 14
Width: 883
Flags: W
LayerCount: 2
Fore
SplineSet
440.5 -14 m 0,0,1
 415.5 -14 415.5 -14 397.5 2 c 128,-1,2
 379.5 18 379.5 18 379.5 54 c 0,3,4
 379.5 91 379.5 91 397.5 106 c 128,-1,5
 415.5 121 415.5 121 440.5 121 c 0,6,7
 466.5 121 466.5 121 485 106 c 128,-1,8
 503.5 91 503.5 91 503.5 54 c 0,9,10
 503.5 18 503.5 18 485 2 c 128,-1,11
 466.5 -14 466.5 -14 440.5 -14 c 0,0,1
EndSplineSet
EndChar

StartChar: slash.gujr
Encoding: 47 47 15
Width: 883
Flags: W
LayerCount: 2
Fore
SplineSet
269 -166 m 1,0,-1
 532 833 l 1,1,-1
 614 833 l 1,2,-1
 352 -166 l 1,3,-1
 269 -166 l 1,0,-1
EndSplineSet
EndChar

StartChar: zero.gujr
Encoding: 48 48 16
Width: 883
Flags: W
LayerCount: 2
Fore
SplineSet
440.5 -10 m 0,0,1
 325.5 -10 325.5 -10 269.5 87.5 c 128,-1,2
 213.5 185 213.5 185 213.5 358 c 0,3,4
 213.5 474 213.5 474 236 556 c 128,-1,5
 258.5 638 258.5 638 308.5 681.5 c 128,-1,6
 358.5 725 358.5 725 440.5 725 c 0,7,8
 556.5 725 556.5 725 613 628.5 c 128,-1,9
 669.5 532 669.5 532 669.5 358 c 0,10,11
 669.5 271 669.5 271 657 203 c 128,-1,12
 644.5 135 644.5 135 617.5 87.5 c 128,-1,13
 590.5 40 590.5 40 546.5 15 c 128,-1,14
 502.5 -10 502.5 -10 440.5 -10 c 0,0,1
440.5 66 m 256,15,16
 515.5 66 515.5 66 547.5 138 c 128,-1,17
 579.5 210 579.5 210 579.5 358 c 0,18,19
 579.5 504 579.5 504 547.5 576.5 c 128,-1,20
 515.5 649 515.5 649 440.5 649 c 256,21,22
 365.5 649 365.5 649 334.5 576.5 c 128,-1,23
 303.5 504 303.5 504 303.5 358 c 256,24,25
 303.5 212 303.5 212 334.5 139 c 128,-1,26
 365.5 66 365.5 66 440.5 66 c 256,15,16
EndSplineSet
EndChar

StartChar: one.gujr
Encoding: 49 49 17
Width: 883
Flags: W
LayerCount: 2
Fore
SplineSet
485.5 0 m 1,0,-1
 485.5 446 l 2,1,2
 485.5 477 485.5 477 486 507 c 128,-1,3
 486.5 537 486.5 537 487.5 566 c 128,-1,4
 488.5 595 488.5 595 489.5 622 c 1,5,6
 475.5 606 475.5 606 460 592 c 128,-1,7
 444.5 578 444.5 578 430.5 567 c 2,8,-1
 358.5 508 l 1,9,-1
 311.5 568 l 1,10,-1
 498.5 714 l 1,11,-1
 571.5 714 l 1,12,-1
 571.5 0 l 1,13,-1
 485.5 0 l 1,0,-1
EndSplineSet
EndChar

StartChar: two.gujr
Encoding: 50 50 18
Width: 883
Flags: W
LayerCount: 2
Fore
SplineSet
219 0 m 1,0,-1
 219 76 l 1,1,-1
 390 262 l 2,2,3
 442 319 442 319 476.5 361.5 c 128,-1,4
 511 404 511 404 528.5 443.5 c 128,-1,5
 546 483 546 483 546 530 c 0,6,7
 546 587 546 587 514 618 c 128,-1,8
 482 649 482 649 431 649 c 0,9,10
 387 649 387 649 350 631 c 128,-1,11
 313 613 313 613 275 581 c 1,12,-1
 228 640 l 1,13,14
 254 664 254 664 284.5 683 c 128,-1,15
 315 702 315 702 352 713 c 128,-1,16
 389 724 389 724 432 724 c 0,17,18
 495 724 495 724 540.5 700.5 c 128,-1,19
 586 677 586 677 611 634.5 c 128,-1,20
 636 592 636 592 636 533 c 0,21,22
 636 477 636 477 615 429.5 c 128,-1,23
 594 382 594 382 556 334.5 c 128,-1,24
 518 287 518 287 465 231 c 2,25,-1
 328 85 l 1,26,-1
 328 81 l 1,27,-1
 664 81 l 1,28,-1
 664 0 l 1,29,-1
 219 0 l 1,0,-1
EndSplineSet
EndChar

StartChar: three.gujr
Encoding: 51 51 19
Width: 883
Flags: W
LayerCount: 2
Fore
SplineSet
405 -10 m 0,0,1
 351 -10 351 -10 305 -1.5 c 128,-1,2
 259 7 259 7 216 29 c 1,3,-1
 216 111 l 1,4,5
 259 89 259 89 308 77 c 128,-1,6
 357 65 357 65 403 65 c 0,7,8
 492 65 492 65 534 102.5 c 128,-1,9
 576 140 576 140 576 205 c 0,10,11
 576 248 576 248 554.5 276 c 128,-1,12
 533 304 533 304 491.5 318 c 128,-1,13
 450 332 450 332 390 332 c 2,14,-1
 325 332 l 1,15,-1
 325 406 l 1,16,-1
 390 406 l 2,17,18
 470 406 470 406 512 443 c 128,-1,19
 554 480 554 480 554 541 c 0,20,21
 554 573 554 573 539 597.5 c 128,-1,22
 524 622 524 622 497 635.5 c 128,-1,23
 470 649 470 649 432 649 c 0,24,25
 378 649 378 649 339.5 632.5 c 128,-1,26
 301 616 301 616 264 590 c 1,27,-1
 219 651 l 1,28,29
 256 680 256 680 309.5 702 c 128,-1,30
 363 724 363 724 432 724 c 0,31,32
 503 724 503 724 550.5 701 c 128,-1,33
 598 678 598 678 621.5 638 c 128,-1,34
 645 598 645 598 645 547 c 0,35,36
 645 499 645 499 626 464 c 128,-1,37
 607 429 607 429 572.5 407 c 128,-1,38
 538 385 538 385 491 376 c 1,39,-1
 491 373 l 1,40,41
 580 363 580 363 623.5 317.5 c 128,-1,42
 667 272 667 272 667 203 c 0,43,44
 667 141 667 141 639 92.5 c 128,-1,45
 611 44 611 44 553 17 c 128,-1,46
 495 -10 495 -10 405 -10 c 0,0,1
EndSplineSet
EndChar

StartChar: four.gujr
Encoding: 52 52 20
Width: 883
Flags: W
LayerCount: 2
Fore
SplineSet
511.5 0 m 1,0,-1
 511.5 160 l 1,1,-1
 181.5 160 l 1,2,-1
 181.5 238 l 1,3,-1
 505.5 718 l 1,4,-1
 597.5 718 l 1,5,-1
 597.5 241 l 1,6,-1
 701.5 241 l 1,7,-1
 701.5 160 l 1,8,-1
 597.5 160 l 1,9,-1
 597.5 0 l 1,10,-1
 511.5 0 l 1,0,-1
268.5 241 m 1,11,-1
 511.5 241 l 1,12,-1
 511.5 415 l 2,13,14
 511.5 445 511.5 445 512 474 c 128,-1,15
 512.5 503 512.5 503 513.5 529.5 c 128,-1,16
 514.5 556 514.5 556 515.5 580 c 128,-1,17
 516.5 604 516.5 604 517.5 626 c 1,18,-1
 513.5 626 l 1,19,20
 503.5 600 503.5 600 492.5 578 c 128,-1,21
 481.5 556 481.5 556 469.5 538 c 2,22,-1
 268.5 241 l 1,11,-1
EndSplineSet
EndChar

StartChar: five.gujr
Encoding: 53 53 21
Width: 883
Flags: W
LayerCount: 2
Fore
SplineSet
400 -10 m 0,0,1
 350 -10 350 -10 304 -0.5 c 128,-1,2
 258 9 258 9 226 29 c 1,3,-1
 226 113 l 1,4,5
 248 98 248 98 278.5 87.5 c 128,-1,6
 309 77 309 77 342 71.5 c 128,-1,7
 375 66 375 66 402 66 c 0,8,9
 479 66 479 66 522.5 103 c 128,-1,10
 566 140 566 140 566 219 c 0,11,12
 566 290 566 290 523 326.5 c 128,-1,13
 480 363 480 363 398 363 c 0,14,15
 372 363 372 363 338.5 358.5 c 128,-1,16
 305 354 305 354 285 350 c 1,17,-1
 241 378 l 1,18,-1
 268 714 l 1,19,-1
 605 714 l 1,20,-1
 605 633 l 1,21,-1
 345 633 l 1,22,-1
 326 428 l 1,23,24
 342 432 342 432 369.5 435 c 128,-1,25
 397 438 397 438 428 438 c 0,26,27
 493 438 493 438 544.5 414.5 c 128,-1,28
 596 391 596 391 626.5 344.5 c 128,-1,29
 657 298 657 298 657 229 c 0,30,31
 657 117 657 117 591 53.5 c 128,-1,32
 525 -10 525 -10 400 -10 c 0,0,1
EndSplineSet
EndChar

StartChar: six.gujr
Encoding: 54 54 22
Width: 883
Flags: W
LayerCount: 2
Fore
SplineSet
449.5 -10 m 0,0,1
 384.5 -10 384.5 -10 331.5 24 c 128,-1,2
 278.5 58 278.5 58 247.5 128 c 128,-1,3
 216.5 198 216.5 198 216.5 305 c 0,4,5
 216.5 367 216.5 367 224 427 c 128,-1,6
 231.5 487 231.5 487 251.5 540.5 c 128,-1,7
 271.5 594 271.5 594 306.5 635.5 c 128,-1,8
 341.5 677 341.5 677 396 700.5 c 128,-1,9
 450.5 724 450.5 724 528.5 724 c 0,10,11
 547.5 724 547.5 724 572 722 c 128,-1,12
 596.5 720 596.5 720 612.5 715 c 1,13,-1
 612.5 639 l 1,14,15
 595.5 645 595.5 645 574 648 c 128,-1,16
 552.5 651 552.5 651 531.5 651 c 0,17,18
 465.5 651 465.5 651 423 628 c 128,-1,19
 380.5 605 380.5 605 356 565.5 c 128,-1,20
 331.5 526 331.5 526 320.5 474 c 128,-1,21
 309.5 422 309.5 422 307.5 364 c 1,22,-1
 313.5 364 l 1,23,24
 333.5 399 333.5 399 369.5 423 c 128,-1,25
 405.5 447 405.5 447 463.5 447 c 0,26,27
 525.5 447 525.5 447 571 421.5 c 128,-1,28
 616.5 396 616.5 396 641.5 347.5 c 128,-1,29
 666.5 299 666.5 299 666.5 230 c 0,30,31
 666.5 156 666.5 156 640 102 c 128,-1,32
 613.5 48 613.5 48 565 19 c 128,-1,33
 516.5 -10 516.5 -10 449.5 -10 c 0,0,1
448.5 65 m 0,34,35
 507.5 65 507.5 65 544 105 c 128,-1,36
 580.5 145 580.5 145 580.5 230 c 0,37,38
 580.5 298 580.5 298 548.5 337.5 c 128,-1,39
 516.5 377 516.5 377 451.5 377 c 0,40,41
 407.5 377 407.5 377 374.5 357.5 c 128,-1,42
 341.5 338 341.5 338 323.5 308.5 c 128,-1,43
 305.5 279 305.5 279 305.5 247 c 0,44,45
 305.5 204 305.5 204 321.5 162 c 128,-1,46
 337.5 120 337.5 120 369.5 92.5 c 128,-1,47
 401.5 65 401.5 65 448.5 65 c 0,34,35
EndSplineSet
EndChar

StartChar: seven.gujr
Encoding: 55 55 23
Width: 883
Flags: W
LayerCount: 2
Fore
SplineSet
305 0 m 1,0,-1
 580 633 l 1,1,-1
 212 633 l 1,2,-1
 212 714 l 1,3,-1
 671 714 l 1,4,-1
 671 643 l 1,5,-1
 400 0 l 1,6,-1
 305 0 l 1,0,-1
EndSplineSet
EndChar

StartChar: eight.gujr
Encoding: 56 56 24
Width: 883
Flags: W
LayerCount: 2
Fore
SplineSet
441.5 -10 m 0,0,1
 334.5 -10 334.5 -10 276 41.5 c 128,-1,2
 217.5 93 217.5 93 217.5 182 c 0,3,4
 217.5 231 217.5 231 236 267 c 128,-1,5
 254.5 303 254.5 303 286 329.5 c 128,-1,6
 317.5 356 317.5 356 355.5 374 c 1,7,8
 323.5 395 323.5 395 297.5 420 c 128,-1,9
 271.5 445 271.5 445 256 478 c 128,-1,10
 240.5 511 240.5 511 240.5 554 c 0,11,12
 240.5 611 240.5 611 268.5 649 c 128,-1,13
 296.5 687 296.5 687 342.5 706 c 128,-1,14
 388.5 725 388.5 725 441.5 725 c 0,15,16
 496.5 725 496.5 725 542 706 c 128,-1,17
 587.5 687 587.5 687 615 649 c 128,-1,18
 642.5 611 642.5 611 642.5 553 c 0,19,20
 642.5 510 642.5 510 625.5 477.5 c 128,-1,21
 608.5 445 608.5 445 580 421 c 128,-1,22
 551.5 397 551.5 397 514.5 378 c 1,23,24
 552.5 358 552.5 358 587 331.5 c 128,-1,25
 621.5 305 621.5 305 643.5 269.5 c 128,-1,26
 665.5 234 665.5 234 665.5 186 c 0,27,28
 665.5 126 665.5 126 637 82 c 128,-1,29
 608.5 38 608.5 38 558.5 14 c 128,-1,30
 508.5 -10 508.5 -10 441.5 -10 c 0,0,1
439.5 64 m 0,31,32
 508.5 64 508.5 64 543.5 97 c 128,-1,33
 578.5 130 578.5 130 578.5 185 c 0,34,35
 578.5 233 578.5 233 542 268.5 c 128,-1,36
 505.5 304 505.5 304 428.5 340 c 1,37,38
 387.5 321 387.5 321 360 297.5 c 128,-1,39
 332.5 274 332.5 274 318.5 245.5 c 128,-1,40
 304.5 217 304.5 217 304.5 181 c 0,41,42
 304.5 129 304.5 129 337 96.5 c 128,-1,43
 369.5 64 369.5 64 439.5 64 c 0,31,32
442.5 414 m 1,44,45
 474.5 429 474.5 429 500 447 c 128,-1,46
 525.5 465 525.5 465 540.5 490 c 128,-1,47
 555.5 515 555.5 515 555.5 550 c 0,48,49
 555.5 600 555.5 600 525 625.5 c 128,-1,50
 494.5 651 494.5 651 440.5 651 c 0,51,52
 406.5 651 406.5 651 381 639.5 c 128,-1,53
 355.5 628 355.5 628 341.5 605.5 c 128,-1,54
 327.5 583 327.5 583 327.5 550 c 0,55,56
 327.5 514 327.5 514 342.5 489.5 c 128,-1,57
 357.5 465 357.5 465 383.5 447.5 c 128,-1,58
 409.5 430 409.5 430 442.5 414 c 1,44,45
EndSplineSet
EndChar

StartChar: nine.gujr
Encoding: 57 57 25
Width: 883
Flags: W
LayerCount: 2
Fore
SplineSet
354.5 -10 m 0,0,1
 335.5 -10 335.5 -10 311.5 -7.5 c 128,-1,2
 287.5 -5 287.5 -5 270.5 -1 c 1,3,-1
 270.5 75 l 1,4,5
 287.5 69 287.5 69 309 66 c 128,-1,6
 330.5 63 330.5 63 351.5 63 c 0,7,8
 417.5 63 417.5 63 460.5 86 c 128,-1,9
 503.5 109 503.5 109 527.5 148.5 c 128,-1,10
 551.5 188 551.5 188 562.5 240 c 128,-1,11
 573.5 292 573.5 292 575.5 350 c 1,12,-1
 569.5 350 l 1,13,14
 556.5 327 556.5 327 536 308 c 128,-1,15
 515.5 289 515.5 289 487 278 c 128,-1,16
 458.5 267 458.5 267 419.5 267 c 0,17,18
 358.5 267 358.5 267 312.5 292.5 c 128,-1,19
 266.5 318 266.5 318 241.5 366.5 c 128,-1,20
 216.5 415 216.5 415 216.5 484 c 0,21,22
 216.5 559 216.5 559 243 612.5 c 128,-1,23
 269.5 666 269.5 666 318.5 695 c 128,-1,24
 367.5 724 367.5 724 433.5 724 c 256,25,26
 499.5 724 499.5 724 552 690 c 128,-1,27
 604.5 656 604.5 656 635.5 586 c 128,-1,28
 666.5 516 666.5 516 666.5 409 c 0,29,30
 666.5 348 666.5 348 659 287.5 c 128,-1,31
 651.5 227 651.5 227 631.5 173.5 c 128,-1,32
 611.5 120 611.5 120 576.5 78.5 c 128,-1,33
 541.5 37 541.5 37 487 13.5 c 128,-1,34
 432.5 -10 432.5 -10 354.5 -10 c 0,0,1
431.5 337 m 0,35,36
 475.5 337 475.5 337 508.5 356.5 c 128,-1,37
 541.5 376 541.5 376 559.5 406 c 128,-1,38
 577.5 436 577.5 436 577.5 467 c 0,39,40
 577.5 500 577.5 500 568.5 532 c 128,-1,41
 559.5 564 559.5 564 541.5 590.5 c 128,-1,42
 523.5 617 523.5 617 497 633 c 128,-1,43
 470.5 649 470.5 649 434.5 649 c 0,44,45
 376.5 649 376.5 649 339.5 609 c 128,-1,46
 302.5 569 302.5 569 302.5 484 c 0,47,48
 302.5 416 302.5 416 335 376.5 c 128,-1,49
 367.5 337 367.5 337 431.5 337 c 0,35,36
EndSplineSet
EndChar

StartChar: colon.gujr
Encoding: 58 58 26
Width: 883
Flags: W
LayerCount: 2
Fore
SplineSet
441.5 414 m 256,0,1
 415.5 414 415.5 414 397.5 430 c 128,-1,2
 379.5 446 379.5 446 379.5 482 c 0,3,4
 379.5 520 379.5 520 397.5 535 c 128,-1,5
 415.5 550 415.5 550 441.5 550 c 256,6,7
 467.5 550 467.5 550 485.5 535 c 128,-1,8
 503.5 520 503.5 520 503.5 482 c 0,9,10
 503.5 446 503.5 446 485.5 430 c 128,-1,11
 467.5 414 467.5 414 441.5 414 c 256,0,1
441.5 -14 m 256,12,13
 415.5 -14 415.5 -14 397.5 2 c 128,-1,14
 379.5 18 379.5 18 379.5 54 c 0,15,16
 379.5 92 379.5 92 397.5 107 c 128,-1,17
 415.5 122 415.5 122 441.5 122 c 256,18,19
 467.5 122 467.5 122 485.5 107 c 128,-1,20
 503.5 92 503.5 92 503.5 54 c 0,21,22
 503.5 18 503.5 18 485.5 2 c 128,-1,23
 467.5 -14 467.5 -14 441.5 -14 c 256,12,13
EndSplineSet
EndChar

StartChar: semicolon.gujr
Encoding: 59 59 27
Width: 883
Flags: W
LayerCount: 2
Fore
SplineSet
359 -129 m 1,0,1
 369 -89 369 -89 378.5 -45.5 c 128,-1,2
 388 -2 388 -2 395.5 40 c 128,-1,3
 403 82 403 82 408 116 c 1,4,-1
 505 116 l 1,5,-1
 512 105 l 1,6,7
 503 70 503 70 489 29.5 c 128,-1,8
 475 -11 475 -11 459 -51.5 c 128,-1,9
 443 -92 443 -92 426 -129 c 1,10,-1
 359 -129 l 1,0,1
462 414 m 256,11,12
 436 414 436 414 418 430 c 128,-1,13
 400 446 400 446 400 482 c 0,14,15
 400 520 400 520 418 535 c 128,-1,16
 436 550 436 550 462 550 c 256,17,18
 488 550 488 550 506 535 c 128,-1,19
 524 520 524 520 524 482 c 0,20,21
 524 446 524 446 506 430 c 128,-1,22
 488 414 488 414 462 414 c 256,11,12
EndSplineSet
EndChar

StartChar: less.gujr
Encoding: 60 60 28
Width: 883
Flags: W
LayerCount: 2
Fore
SplineSet
667 77 m 1,0,-1
 216 284 l 1,1,-1
 216 334 l 1,2,-1
 667 569 l 1,3,-1
 667 491 l 1,4,-1
 308 313 l 1,5,-1
 667 156 l 1,6,-1
 667 77 l 1,0,-1
EndSplineSet
EndChar

StartChar: equal.gujr
Encoding: 61 61 29
Width: 883
Flags: W
LayerCount: 2
Fore
SplineSet
216 387 m 1,0,-1
 216 459 l 1,1,-1
 667 459 l 1,2,-1
 667 387 l 1,3,-1
 216 387 l 1,0,-1
216 187 m 1,4,-1
 216 260 l 1,5,-1
 667 260 l 1,6,-1
 667 187 l 1,7,-1
 216 187 l 1,4,-1
EndSplineSet
EndChar

StartChar: greater.gujr
Encoding: 62 62 30
Width: 883
Flags: W
LayerCount: 2
Fore
SplineSet
216 77 m 1,0,-1
 216 156 l 1,1,-1
 575 313 l 1,2,-1
 216 491 l 1,3,-1
 216 569 l 1,4,-1
 667 334 l 1,5,-1
 667 284 l 1,6,-1
 216 77 l 1,0,-1
EndSplineSet
EndChar

StartChar: question.gujr
Encoding: 63 63 31
Width: 883
Flags: W
LayerCount: 2
Fore
SplineSet
373 202 m 1,0,-1
 373 220 l 2,1,2
 373 258 373 258 380 285.5 c 128,-1,3
 387 313 387 313 405.5 338 c 128,-1,4
 424 363 424 363 456 390 c 0,5,6
 487 417 487 417 506.5 438 c 128,-1,7
 526 459 526 459 535 483 c 128,-1,8
 544 507 544 507 544 541 c 0,9,10
 544 588 544 588 515.5 617 c 128,-1,11
 487 646 487 646 433 646 c 0,12,13
 393 646 393 646 356 633.5 c 128,-1,14
 319 621 319 621 285 604 c 1,15,-1
 254 675 l 1,16,17
 294 695 294 695 340 709.5 c 128,-1,18
 386 724 386 724 433 724 c 0,19,20
 524 724 524 724 576.5 676 c 128,-1,21
 629 628 629 628 629 542 c 0,22,23
 629 499 629 499 617.5 467 c 128,-1,24
 606 435 606 435 582.5 408 c 128,-1,25
 559 381 559 381 524 350 c 0,26,27
 491 321 491 321 473 300.5 c 128,-1,28
 455 280 455 280 448 260 c 128,-1,29
 441 240 441 240 441 211 c 2,30,-1
 441 202 l 1,31,-1
 373 202 l 1,0,-1
350 54 m 0,32,33
 350 92 350 92 368 107 c 128,-1,34
 386 122 386 122 412 122 c 256,35,36
 438 122 438 122 456 107 c 128,-1,37
 474 92 474 92 474 54 c 0,38,39
 474 18 474 18 456 2 c 128,-1,40
 438 -14 438 -14 412 -14 c 256,41,42
 386 -14 386 -14 368 2 c 128,-1,43
 350 18 350 18 350 54 c 0,32,33
EndSplineSet
EndChar

StartChar: bracketleft.gujr
Encoding: 91 91 32
Width: 883
Flags: W
LayerCount: 2
Fore
SplineSet
344.5 -166 m 1,0,-1
 344.5 832 l 1,1,-1
 538.5 832 l 1,2,-1
 538.5 762 l 1,3,-1
 424.5 762 l 1,4,-1
 424.5 -96 l 1,5,-1
 538.5 -96 l 1,6,-1
 538.5 -166 l 1,7,-1
 344.5 -166 l 1,0,-1
EndSplineSet
EndChar

StartChar: backslash.gujr
Encoding: 92 92 33
Width: 883
Flags: W
LayerCount: 2
Fore
SplineSet
532 -166 m 1,0,-1
 269 832 l 1,1,-1
 351 832 l 1,2,-1
 614 -166 l 1,3,-1
 532 -166 l 1,0,-1
EndSplineSet
EndChar

StartChar: bracketright.gujr
Encoding: 93 93 34
Width: 883
Flags: W
LayerCount: 2
Fore
SplineSet
344.5 -166 m 1,0,-1
 344.5 -96 l 1,1,-1
 457.5 -96 l 1,2,-1
 457.5 762 l 1,3,-1
 344.5 762 l 1,4,-1
 344.5 832 l 1,5,-1
 538.5 832 l 1,6,-1
 538.5 -166 l 1,7,-1
 344.5 -166 l 1,0,-1
EndSplineSet
EndChar

StartChar: asciicircum.gujr
Encoding: 94 94 35
Width: 883
Flags: W
LayerCount: 2
Fore
SplineSet
195.5 268 m 1,0,-1
 419.5 719 l 1,1,-1
 469.5 719 l 1,2,-1
 687.5 268 l 1,3,-1
 609.5 268 l 1,4,-1
 444.5 627 l 1,5,-1
 274.5 268 l 1,6,-1
 195.5 268 l 1,0,-1
EndSplineSet
EndChar

StartChar: underscore.gujr
Encoding: 95 95 36
Width: 883
Flags: W
LayerCount: 2
Fore
SplineSet
234 -158 m 1,0,-1
 234 -90 l 1,1,-1
 649 -90 l 1,2,-1
 649 -158 l 1,3,-1
 234 -158 l 1,0,-1
EndSplineSet
EndChar

StartChar: braceleft.gujr
Encoding: 123 123 37
Width: 883
Flags: W
LayerCount: 2
Fore
SplineSet
588 -166 m 1,0,1
 539 -165 539 -165 500.5 -150.5 c 128,-1,2
 462 -136 462 -136 440 -105.5 c 128,-1,3
 418 -75 418 -75 418 -25 c 2,4,-1
 418 206 l 2,5,6
 418 239 418 239 404 258.5 c 128,-1,7
 390 278 390 278 362.5 287 c 128,-1,8
 335 296 335 296 295 296 c 1,9,-1
 295 370 l 1,10,11
 335 370 335 370 362.5 379 c 128,-1,12
 390 388 390 388 404 408 c 128,-1,13
 418 428 418 428 418 460 c 2,14,-1
 418 691 l 2,15,16
 418 741 418 741 440 771.5 c 128,-1,17
 462 802 462 802 500.5 816.5 c 128,-1,18
 539 831 539 831 588 832 c 1,19,-1
 588 760 l 1,20,21
 547 760 547 760 523 745.5 c 128,-1,22
 499 731 499 731 499 685 c 2,23,-1
 499 455 l 2,24,25
 499 405 499 405 472 375.5 c 128,-1,26
 445 346 445 346 393 335 c 1,27,-1
 393 330 l 1,28,29
 445 320 445 320 472 291 c 128,-1,30
 499 262 499 262 499 211 c 2,31,-1
 499 -18 l 2,32,33
 499 -49 499 -49 510 -65.5 c 128,-1,34
 521 -82 521 -82 541 -88 c 128,-1,35
 561 -94 561 -94 588 -94 c 1,36,-1
 588 -166 l 1,0,1
EndSplineSet
EndChar

StartChar: bar.gujr
Encoding: 124 124 38
Width: 883
Flags: W
LayerCount: 2
Fore
SplineSet
405.5 832 m 1,0,-1
 477.5 832 l 1,1,-1
 477.5 -166 l 1,2,-1
 405.5 -166 l 1,3,-1
 405.5 832 l 1,0,-1
EndSplineSet
EndChar

StartChar: braceright.gujr
Encoding: 125 125 39
Width: 883
Flags: W
LayerCount: 2
Fore
SplineSet
295 -166 m 1,0,-1
 295 -94 l 1,1,2
 323 -94 323 -94 342.5 -88 c 128,-1,3
 362 -82 362 -82 373 -65.5 c 128,-1,4
 384 -49 384 -49 384 -18 c 2,5,-1
 384 211 l 2,6,7
 384 262 384 262 411 291 c 128,-1,8
 438 320 438 320 490 330 c 1,9,-1
 490 335 l 1,10,11
 438 346 438 346 411 375.5 c 128,-1,12
 384 405 384 405 384 455 c 2,13,-1
 384 685 l 2,14,15
 384 731 384 731 360 745.5 c 128,-1,16
 336 760 336 760 295 760 c 1,17,-1
 295 832 l 1,18,19
 344 831 344 831 382.5 816.5 c 128,-1,20
 421 802 421 802 443 771.5 c 128,-1,21
 465 741 465 741 465 691 c 2,22,-1
 465 460 l 2,23,24
 465 428 465 428 479 408 c 128,-1,25
 493 388 493 388 520.5 379 c 128,-1,26
 548 370 548 370 588 370 c 1,27,-1
 588 296 l 1,28,29
 548 296 548 296 520.5 287 c 128,-1,30
 493 278 493 278 479 258.5 c 128,-1,31
 465 239 465 239 465 206 c 2,32,-1
 465 -25 l 2,33,34
 465 -75 465 -75 443 -105.5 c 128,-1,35
 421 -136 421 -136 382.5 -150.5 c 128,-1,36
 344 -165 344 -165 295 -166 c 1,0,-1
EndSplineSet
EndChar

StartChar: asciitilde.gujr
Encoding: 126 126 40
Width: 883
Flags: W
LayerCount: 2
Fore
SplineSet
216 335 m 1,0,1
 241 362 241 362 271 375 c 128,-1,2
 301 388 301 388 337 388 c 0,3,4
 356 388 356 388 372 385.5 c 128,-1,5
 388 383 388 383 408 376.5 c 128,-1,6
 428 370 428 370 458 357 c 0,7,8
 495 341 495 341 515 335.5 c 128,-1,9
 535 330 535 330 556 330 c 0,10,11
 584 330 584 330 614 347 c 128,-1,12
 644 364 644 364 667 389 c 1,13,-1
 667 310 l 1,14,15
 643 284 643 284 612.5 270.5 c 128,-1,16
 582 257 582 257 546 257 c 0,17,18
 527 257 527 257 511 259.5 c 128,-1,19
 495 262 495 262 475.5 268.5 c 128,-1,20
 456 275 456 275 425 288 c 0,21,22
 389 304 389 304 369.5 309.5 c 128,-1,23
 350 315 350 315 327 315 c 0,24,25
 300 315 300 315 270 298 c 128,-1,26
 240 281 240 281 216 256 c 1,27,-1
 216 335 l 1,0,1
EndSplineSet
EndChar

StartChar: A
Encoding: 65 65 41
Width: 883
Flags: W
AnchorPoint: "Anchor-1" 409.5 0 basechar 0
LayerCount: 2
Fore
SplineSet
331.5 103 m 0,0,1
 285.5 103 285.5 103 244.5 116 c 128,-1,2
 203.5 129 203.5 129 168.5 160.5 c 128,-1,3
 133.5 192 133.5 192 105.5 245 c 1,4,-1
 126.5 303 l 1,5,6
 182.5 311 182.5 311 221.5 345.5 c 128,-1,7
 260.5 380 260.5 380 260.5 430 c 0,8,9
 260.5 478 260.5 478 233 504 c 128,-1,10
 205.5 530 205.5 530 146.5 530 c 0,11,12
 124.5 530 124.5 530 97 524.5 c 128,-1,13
 69.5 519 69.5 519 46.5 508 c 1,14,-1
 19.5 576 l 1,15,16
 43.5 587 43.5 587 78.5 595 c 128,-1,17
 113.5 603 113.5 603 149.5 603 c 0,18,19
 210.5 603 210.5 603 253 582.5 c 128,-1,20
 295.5 562 295.5 562 318 523 c 128,-1,21
 340.5 484 340.5 484 340.5 428 c 0,22,23
 340.5 373 340.5 373 308 329.5 c 128,-1,24
 275.5 286 275.5 286 222.5 261.5 c 128,-1,25
 169.5 237 169.5 237 105.5 237 c 0,26,27
 78.5 237 78.5 237 60.5 244 c 128,-1,28
 42.5 251 42.5 251 33 264.5 c 128,-1,29
 23.5 278 23.5 278 23.5 297 c 0,30,31
 23.5 317 23.5 317 38 331.5 c 128,-1,32
 52.5 346 52.5 346 82.5 346 c 0,33,34
 113.5 346 113.5 346 133.5 333.5 c 128,-1,35
 153.5 321 153.5 321 175.5 295 c 1,36,-1
 189.5 256 l 2,37,38
 207.5 217 207.5 217 243.5 196 c 128,-1,39
 279.5 175 279.5 175 325.5 175 c 0,40,41
 363.5 175 363.5 175 390.5 186 c 128,-1,42
 417.5 197 417.5 197 434.5 216 c 0,43,44
 459.5 244 459.5 244 467 280 c 128,-1,45
 474.5 316 474.5 316 474.5 371 c 2,46,-1
 474.5 447 l 1,47,-1
 554.5 437 l 1,48,-1
 554.5 349 l 2,49,50
 554.5 267 554.5 267 526 212 c 128,-1,51
 497.5 157 497.5 157 447 130 c 128,-1,52
 396.5 103 396.5 103 331.5 103 c 0,0,1
612.5 228 m 0,53,54
 587.5 228 587.5 228 563.5 237 c 128,-1,55
 539.5 246 539.5 246 519.5 269 c 128,-1,56
 499.5 292 499.5 292 485.5 333 c 1,57,-1
 543.5 356 l 1,58,59
 551.5 324 551.5 324 569.5 312 c 128,-1,60
 587.5 300 587.5 300 611.5 300 c 0,61,62
 647.5 300 647.5 300 673.5 319.5 c 128,-1,63
 699.5 339 699.5 339 721.5 373 c 1,64,-1
 738.5 291 l 1,65,66
 713.5 261 713.5 261 685 244.5 c 128,-1,67
 656.5 228 656.5 228 612.5 228 c 0,53,54
844.5 0 m 2,68,69
 801.5 0 801.5 0 773 9.5 c 128,-1,70
 744.5 19 744.5 19 727.5 37 c 0,71,72
 711.5 54 711.5 54 704 79 c 128,-1,73
 696.5 104 696.5 104 696.5 148 c 2,74,-1
 696.5 603 l 1,75,-1
 776.5 592 l 1,76,-1
 776.5 152 l 2,77,78
 776.5 125 776.5 125 779.5 112.5 c 128,-1,79
 782.5 100 782.5 100 788.5 92 c 0,80,81
 799.5 78 799.5 78 821 75.5 c 128,-1,82
 842.5 73 842.5 73 863.5 73 c 1,83,-1
 855.5 0 l 1,84,-1
 844.5 0 l 2,68,69
EndSplineSet
EndChar

StartChar: B
Encoding: 66 66 42
Width: 883
Flags: W
LayerCount: 2
Fore
SplineSet
628 617 m 0,0,1
 628 583 628 583 614 557.5 c 128,-1,2
 600 532 600 532 579 512.5 c 128,-1,3
 558 493 558 493 537 477 c 128,-1,4
 516 461 516 461 502 445.5 c 128,-1,5
 488 430 488 430 488 412 c 0,6,7
 488 399 488 399 494.5 388 c 128,-1,8
 501 377 501 377 520 362.5 c 128,-1,9
 539 348 539 348 576 323 c 0,10,11
 612 299 612 299 638 275 c 128,-1,12
 664 251 664 251 678 222 c 128,-1,13
 692 193 692 193 692 153 c 0,14,15
 692 96 692 96 668.5 60 c 128,-1,16
 645 24 645 24 603 7 c 128,-1,17
 561 -10 561 -10 506 -10 c 0,18,19
 459 -10 459 -10 423 -1 c 128,-1,20
 387 8 387 8 361 24 c 1,21,-1
 361 103 l 1,22,23
 378 93 378 93 401 83 c 128,-1,24
 424 73 424 73 450.5 67 c 128,-1,25
 477 61 477 61 503 61 c 0,26,27
 558 61 558 61 582 84 c 128,-1,28
 606 107 606 107 606 147 c 0,29,30
 606 171 606 171 597.5 189.5 c 128,-1,31
 589 208 589 208 568.5 226 c 128,-1,32
 548 244 548 244 512 267 c 0,33,34
 470 294 470 294 446.5 315.5 c 128,-1,35
 423 337 423 337 413 359 c 128,-1,36
 403 381 403 381 403 407 c 0,37,38
 403 438 403 438 416.5 460 c 128,-1,39
 430 482 430 482 450.5 498.5 c 128,-1,40
 471 515 471 515 491.5 531 c 128,-1,41
 512 547 512 547 525.5 566 c 128,-1,42
 539 585 539 585 539 612 c 0,43,44
 539 654 539 654 503.5 673 c 128,-1,45
 468 692 468 692 412 692 c 0,46,47
 377 692 377 692 346.5 682.5 c 128,-1,48
 316 673 316 673 297.5 650 c 128,-1,49
 279 627 279 627 279 584 c 2,50,-1
 279 0 l 1,51,-1
 191 0 l 1,52,-1
 191 584 l 2,53,54
 191 651 191 651 220 690.5 c 128,-1,55
 249 730 249 730 299 747.5 c 128,-1,56
 349 765 349 765 412 765 c 0,57,58
 477 765 477 765 525.5 748.5 c 128,-1,59
 574 732 574 732 601 699.5 c 128,-1,60
 628 667 628 667 628 617 c 0,0,1
EndSplineSet
EndChar

StartChar: C
Encoding: 67 67 43
Width: 883
Flags: W
LayerCount: 2
Fore
SplineSet
481.5 737 m 4,0,1
 501.5 737 501.5 737 517 723.5 c 132,-1,2
 532.5 710 532.5 710 532.5 681 c 4,3,4
 532.5 653 532.5 653 517 639 c 132,-1,5
 501.5 625 501.5 625 481.5 625 c 4,6,7
 459.5 625 459.5 625 444.5 639 c 132,-1,8
 429.5 653 429.5 653 429.5 681 c 4,9,10
 429.5 710 429.5 710 444.5 723.5 c 132,-1,11
 459.5 737 459.5 737 481.5 737 c 4,0,1
497.5 -10 m 0,12,13
 379.5 -10 379.5 -10 314.5 57 c 128,-1,14
 249.5 124 249.5 124 249.5 245 c 0,15,16
 249.5 325 249.5 325 278.5 380.5 c 128,-1,17
 307.5 436 307.5 436 361.5 465 c 1,18,-1
 228.5 465 l 1,19,-1
 228.5 537 l 1,20,-1
 654.5 537 l 1,21,-1
 654.5 465 l 1,22,-1
 541.5 465 l 2,23,24
 447.5 465 447.5 465 394 411.5 c 128,-1,25
 340.5 358 340.5 358 340.5 252 c 0,26,27
 340.5 165 340.5 165 383.5 114.5 c 128,-1,28
 426.5 64 426.5 64 506.5 64 c 0,29,30
 543.5 64 543.5 64 577.5 73.5 c 128,-1,31
 611.5 83 611.5 83 643.5 99 c 1,32,-1
 643.5 21 l 1,33,34
 614.5 5 614.5 5 579.5 -2.5 c 128,-1,35
 544.5 -10 544.5 -10 497.5 -10 c 0,12,13
EndSplineSet
EndChar

StartChar: D
Encoding: 68 68 44
Width: 883
Flags: W
AnchorPoint: "Anchor-3" 367 603 basechar 0
AnchorPoint: "Anchor-1" 495 0 basechar 0
AnchorPoint: "Anchor-0" 456 603 basechar 0
LayerCount: 2
Fore
SplineSet
481 -10 m 0,0,1
 415 -10 415 -10 368 14 c 128,-1,2
 321 38 321 38 295.5 79.5 c 128,-1,3
 270 121 270 121 270 176 c 0,4,5
 270 232 270 232 299.5 273 c 128,-1,6
 329 314 329 314 379 336.5 c 128,-1,7
 429 359 429 359 491 359 c 0,8,9
 514 359 514 359 532.5 357 c 128,-1,10
 551 355 551 355 566 353 c 1,11,-1
 552 281 l 1,12,13
 540 283 540 283 524.5 284.5 c 128,-1,14
 509 286 509 286 493 286 c 0,15,16
 456 286 456 286 423.5 274.5 c 128,-1,17
 391 263 391 263 371 239 c 128,-1,18
 351 215 351 215 351 176 c 0,19,20
 351 139 351 139 366 113.5 c 128,-1,21
 381 88 381 88 410.5 75.5 c 128,-1,22
 440 63 440 63 482 63 c 0,23,24
 509 63 509 63 528 66.5 c 128,-1,25
 547 70 547 70 561 80 c 1,26,-1
 560 47 l 1,27,28
 548 61 548 61 544 71 c 128,-1,29
 540 81 540 81 540 94 c 0,30,31
 540 120 540 120 556 134 c 128,-1,32
 572 148 572 148 598 148 c 0,33,34
 627 148 627 148 641.5 130.5 c 128,-1,35
 656 113 656 113 656 90 c 0,36,37
 656 56 656 56 631.5 33.5 c 128,-1,38
 607 11 607 11 567 0.5 c 128,-1,39
 527 -10 527 -10 481 -10 c 0,0,1
339 292 m 1,40,41
 292 321 292 321 259.5 360 c 128,-1,42
 227 399 227 399 227 457 c 0,43,44
 227 495 227 495 246.5 528 c 128,-1,45
 266 561 266 561 308 582 c 128,-1,46
 350 603 350 603 416 603 c 0,47,48
 444 603 444 603 476 598.5 c 128,-1,49
 508 594 508 594 526 589 c 1,50,-1
 512 518 l 1,51,52
 496 522 496 522 473 525.5 c 128,-1,53
 450 529 450 529 427 529 c 0,54,55
 363 529 363 529 335.5 506 c 128,-1,56
 308 483 308 483 308 451 c 0,57,58
 308 416 308 416 332 387 c 128,-1,59
 356 358 356 358 415 333 c 1,60,-1
 339 292 l 1,40,41
EndSplineSet
EndChar

StartChar: E
Encoding: 69 69 45
Width: 883
Flags: W
LayerCount: 2
Fore
SplineSet
641 0 m 1,0,-1
 242 0 l 1,1,-1
 242 714 l 1,2,-1
 641 714 l 1,3,-1
 641 635 l 1,4,-1
 332 635 l 1,5,-1
 332 412 l 1,6,-1
 623 412 l 1,7,-1
 623 334 l 1,8,-1
 332 334 l 1,9,-1
 332 79 l 1,10,-1
 641 79 l 1,11,-1
 641 0 l 1,0,-1
EndSplineSet
EndChar

StartChar: F
Encoding: 70 70 46
Width: 883
Flags: W
LayerCount: 2
Fore
SplineSet
332 0 m 1,0,-1
 242 0 l 1,1,-1
 242 714 l 1,2,-1
 641 714 l 1,3,-1
 641 635 l 1,4,-1
 332 635 l 1,5,-1
 332 382 l 1,6,-1
 622 382 l 1,7,-1
 622 303 l 1,8,-1
 332 303 l 1,9,-1
 332 0 l 1,0,-1
EndSplineSet
EndChar

StartChar: G
Encoding: 71 71 47
Width: 883
Flags: W
LayerCount: 2
Fore
SplineSet
424 546 m 0,0,1
 477 546 477 546 519.5 526 c 128,-1,2
 562 506 562 506 592 465 c 1,3,-1
 597 465 l 1,4,-1
 609 536 l 1,5,-1
 679 536 l 1,6,-1
 679 -9 l 2,7,8
 679 -85 679 -85 653 -136.5 c 128,-1,9
 627 -188 627 -188 574 -214 c 128,-1,10
 521 -240 521 -240 439 -240 c 0,11,12
 381 -240 381 -240 332.5 -231.5 c 128,-1,13
 284 -223 284 -223 246 -206 c 1,14,-1
 246 -125 l 1,15,16
 284 -145 284 -145 335 -156 c 128,-1,17
 386 -167 386 -167 444 -167 c 0,18,19
 513 -167 513 -167 552.5 -126.5 c 128,-1,20
 592 -86 592 -86 592 -16 c 2,21,-1
 592 5 l 2,22,23
 592 17 592 17 593 39.5 c 128,-1,24
 594 62 594 62 595 71 c 1,25,-1
 591 71 l 1,26,27
 563 30 563 30 521.5 10 c 128,-1,28
 480 -10 480 -10 425 -10 c 0,29,30
 321 -10 321 -10 262.5 63 c 128,-1,31
 204 136 204 136 204 267 c 0,32,33
 204 395 204 395 262.5 470.5 c 128,-1,34
 321 546 321 546 424 546 c 0,0,1
436 472 m 0,35,36
 391 472 391 472 359.5 448 c 128,-1,37
 328 424 328 424 311.5 378 c 128,-1,38
 295 332 295 332 295 266 c 0,39,40
 295 167 295 167 331.5 114.5 c 128,-1,41
 368 62 368 62 438 62 c 0,42,43
 479 62 479 62 508 72.5 c 128,-1,44
 537 83 537 83 556 105.5 c 128,-1,45
 575 128 575 128 584 163 c 128,-1,46
 593 198 593 198 593 246 c 2,47,-1
 593 267 l 2,48,49
 593 340 593 340 576.5 385 c 128,-1,50
 560 430 560 430 525 451 c 128,-1,51
 490 472 490 472 436 472 c 0,35,36
447 737 m 0,52,53
 467 737 467 737 482.5 723.5 c 128,-1,54
 498 710 498 710 498 681 c 0,55,56
 498 653 498 653 482.5 639 c 128,-1,57
 467 625 467 625 447 625 c 0,58,59
 425 625 425 625 410 639 c 128,-1,60
 395 653 395 653 395 681 c 0,61,62
 395 710 395 710 410 723.5 c 128,-1,63
 425 737 425 737 447 737 c 0,52,53
EndSplineSet
EndChar

StartChar: H
Encoding: 72 72 48
Width: 883
Flags: W
AnchorPoint: "Anchor-3" 451.5 603 basechar 0
AnchorPoint: "Anchor-1" 466.5 0 basechar 0
AnchorPoint: "Anchor-0" 536.5 603 basechar 0
LayerCount: 2
Fore
SplineSet
500.5 -10 m 0,0,1
 411.5 -10 411.5 -10 345.5 14 c 128,-1,2
 279.5 38 279.5 38 236.5 79.5 c 128,-1,3
 193.5 121 193.5 121 172 175 c 128,-1,4
 150.5 229 150.5 229 150.5 289 c 0,5,6
 150.5 345 150.5 345 160.5 389 c 128,-1,7
 170.5 433 170.5 433 189.5 468 c 1,8,-1
 265.5 433 l 1,9,10
 251.5 402 251.5 402 243 366.5 c 128,-1,11
 234.5 331 234.5 331 234.5 289 c 0,12,13
 234.5 222 234.5 222 266 171 c 128,-1,14
 297.5 120 297.5 120 356.5 91.5 c 128,-1,15
 415.5 63 415.5 63 498.5 63 c 0,16,17
 553.5 63 553.5 63 602 73.5 c 128,-1,18
 650.5 84 650.5 84 699.5 106 c 1,19,-1
 732.5 35 l 1,20,21
 692.5 19 692.5 19 657.5 9 c 128,-1,22
 622.5 -1 622.5 -1 585.5 -5.5 c 128,-1,23
 548.5 -10 548.5 -10 500.5 -10 c 0,0,1
526.5 161 m 0,24,25
 463.5 161 463.5 161 403.5 191 c 128,-1,26
 343.5 221 343.5 221 293.5 291 c 1,27,-1
 361.5 332 l 1,28,29
 396.5 283 396.5 283 437.5 258 c 128,-1,30
 478.5 233 478.5 233 527.5 233 c 0,31,32
 559.5 233 559.5 233 580.5 244.5 c 128,-1,33
 601.5 256 601.5 256 601.5 284 c 0,34,35
 601.5 311 601.5 311 582 328 c 128,-1,36
 562.5 345 562.5 345 504.5 366 c 0,37,38
 440.5 389 440.5 389 409 419 c 128,-1,39
 377.5 449 377.5 449 377.5 493 c 0,40,41
 377.5 543 377.5 543 416.5 572.5 c 128,-1,42
 455.5 602 455.5 602 531.5 602 c 0,43,44
 556.5 602 556.5 602 583.5 598.5 c 128,-1,45
 610.5 595 610.5 595 630.5 590 c 1,46,-1
 615.5 518 l 1,47,48
 593.5 524 593.5 524 570.5 527 c 128,-1,49
 547.5 530 547.5 530 519.5 530 c 0,50,51
 488.5 530 488.5 530 473 521 c 128,-1,52
 457.5 512 457.5 512 457.5 494 c 0,53,54
 457.5 477 457.5 477 474.5 464 c 128,-1,55
 491.5 451 491.5 451 540.5 433 c 0,56,57
 621.5 404 621.5 404 651.5 369 c 128,-1,58
 681.5 334 681.5 334 681.5 285 c 0,59,60
 681.5 225 681.5 225 639.5 193 c 128,-1,61
 597.5 161 597.5 161 526.5 161 c 0,24,25
EndSplineSet
EndChar

StartChar: I
Encoding: 73 73 49
Width: 883
Flags: W
LayerCount: 2
Fore
SplineSet
542 756 m 1,0,1
 533 742 533 742 516 722 c 0,2,3
 499 702 499 702 478.5 680.5 c 0,4,5
 458 659 458 659 437.5 639.5 c 0,6,7
 417 620 417 620 399 606 c 1,8,-1
 341 606 l 1,9,-1
 341 618 l 1,10,11
 356 637 356 637 373.5 663 c 0,12,13
 391 689 391 689 408 716.5 c 0,14,15
 425 744 425 744 436 766 c 1,16,-1
 542 766 l 1,17,-1
 542 756 l 1,0,1
438 0 m 5,18,-1
 350 0 l 5,19,-1
 350 536 l 5,20,-1
 438 536 l 5,21,-1
 438 0 l 5,18,-1
EndSplineSet
EndChar

StartChar: J
Encoding: 74 74 50
Width: 883
Flags: W
LayerCount: 2
Fore
SplineSet
391 -8 m 4,0,1
 336 -8 336 -8 292 4 c 132,-1,2
 248 16 248 16 214 33 c 5,3,-1
 245 103 l 5,4,5
 275 89 275 89 311.5 77 c 132,-1,6
 348 65 348 65 389 65 c 4,7,8
 446 65 446 65 476 94.5 c 132,-1,9
 506 124 506 124 506 190 c 6,10,-1
 506 329 l 5,11,-1
 302 329 l 5,12,-1
 302 395 l 5,13,-1
 506 395 l 5,14,-1
 506 499 l 6,15,16
 506 539 506 539 515.5 565.5 c 132,-1,17
 525 592 525 592 540.5 608 c 132,-1,18
 556 624 556 624 574 635 c 5,19,-1
 190 635 l 5,20,-1
 190 715 l 5,21,-1
 693 715 l 5,22,-1
 693 641 l 5,23,24
 664 634 664 634 642 617.5 c 132,-1,25
 620 601 620 601 607 572.5 c 132,-1,26
 594 544 594 544 594 500 c 6,27,-1
 594 395 l 5,28,-1
 690 395 l 5,29,-1
 690 329 l 5,30,-1
 594 329 l 5,31,-1
 594 181 l 6,32,33
 594 121 594 121 569 79 c 132,-1,34
 544 37 544 37 498 14.5 c 132,-1,35
 452 -8 452 -8 391 -8 c 4,0,1
EndSplineSet
EndChar

StartChar: K
Encoding: 75 75 51
Width: 883
Flags: W
LayerCount: 2
Fore
SplineSet
421.5 737 m 4,0,1
 441.5 737 441.5 737 457 723.5 c 132,-1,2
 472.5 710 472.5 710 472.5 681 c 4,3,4
 472.5 653 472.5 653 457 639 c 132,-1,5
 441.5 625 441.5 625 421.5 625 c 4,6,7
 399.5 625 399.5 625 384.5 639 c 132,-1,8
 369.5 653 369.5 653 369.5 681 c 4,9,10
 369.5 710 369.5 710 384.5 723.5 c 132,-1,11
 399.5 737 399.5 737 421.5 737 c 4,0,1
308.5 363 m 2,12,13
 308.5 347 308.5 347 307 321 c 128,-1,14
 305.5 295 305.5 295 304.5 276 c 1,15,-1
 308.5 276 l 1,16,17
 314.5 284 314.5 284 326.5 299 c 128,-1,18
 338.5 314 338.5 314 351 329.5 c 128,-1,19
 363.5 345 363.5 345 372.5 355 c 2,20,-1
 543.5 536 l 1,21,-1
 646.5 536 l 1,22,-1
 429.5 307 l 1,23,-1
 661.5 0 l 1,24,-1
 555.5 0 l 1,25,-1
 369.5 250 l 1,26,-1
 308.5 197 l 1,27,-1
 308.5 0 l 1,28,-1
 221.5 0 l 1,29,-1
 221.5 536 l 1,30,-1
 308.5 536 l 1,31,-1
 308.5 363 l 2,12,13
EndSplineSet
EndChar

StartChar: L
Encoding: 76 76 52
Width: 883
Flags: W
LayerCount: 2
Fore
SplineSet
492 723 m 0,0,1
 547 723 547 723 591 711 c 128,-1,2
 635 699 635 699 669 682 c 1,3,-1
 638 612 l 1,4,5
 608 626 608 626 571.5 638 c 128,-1,6
 535 650 535 650 494 650 c 0,7,8
 437 650 437 650 407 620.5 c 128,-1,9
 377 591 377 591 377 525 c 2,10,-1
 377 386 l 1,11,-1
 581 386 l 1,12,-1
 581 320 l 1,13,-1
 377 320 l 1,14,-1
 377 216 l 2,15,16
 377 176 377 176 367.5 149.5 c 128,-1,17
 358 123 358 123 342.5 107 c 128,-1,18
 327 91 327 91 309 80 c 1,19,-1
 693 80 l 1,20,-1
 693 0 l 1,21,-1
 190 0 l 1,22,-1
 190 74 l 1,23,24
 219 81 219 81 241 97.5 c 128,-1,25
 263 114 263 114 276 142.5 c 128,-1,26
 289 171 289 171 289 215 c 2,27,-1
 289 320 l 1,28,-1
 193 320 l 1,29,-1
 193 386 l 1,30,-1
 289 386 l 1,31,-1
 289 534 l 2,32,33
 289 594 289 594 314 636 c 128,-1,34
 339 678 339 678 385 700.5 c 128,-1,35
 431 723 431 723 492 723 c 0,0,1
EndSplineSet
EndChar

StartChar: M
Encoding: 77 77 53
Width: 883
Flags: W
LayerCount: 2
Fore
SplineSet
645 546 m 0,0,1
 736 546 736 546 781 499.5 c 128,-1,2
 826 453 826 453 826 349 c 2,3,-1
 826 0 l 1,4,-1
 739 0 l 1,5,-1
 739 345 l 2,6,7
 739 408 739 408 712.5 440 c 128,-1,8
 686 472 686 472 630 472 c 0,9,10
 552 472 552 472 518.5 427 c 128,-1,11
 485 382 485 382 485 296 c 2,12,-1
 485 0 l 1,13,-1
 398 0 l 1,14,-1
 398 345 l 2,15,16
 398 387 398 387 386 415.5 c 128,-1,17
 374 444 374 444 350 458 c 128,-1,18
 326 472 326 472 288 472 c 0,19,20
 234 472 234 472 203 449.5 c 128,-1,21
 172 427 172 427 158.5 384 c 128,-1,22
 145 341 145 341 145 278 c 2,23,-1
 145 0 l 1,24,-1
 57 0 l 1,25,-1
 57 536 l 1,26,-1
 128 536 l 1,27,-1
 141 463 l 1,28,-1
 146 463 l 1,29,30
 163 491 163 491 187.5 509.5 c 128,-1,31
 212 528 212 528 242 537 c 128,-1,32
 272 546 272 546 304 546 c 0,33,34
 366 546 366 546 407.5 524 c 128,-1,35
 449 502 449 502 468 456 c 1,36,-1
 473 456 l 1,37,38
 500 502 500 502 546.5 524 c 128,-1,39
 593 546 593 546 645 546 c 0,0,1
452 737 m 0,40,41
 472 737 472 737 487.5 723.5 c 128,-1,42
 503 710 503 710 503 681 c 0,43,44
 503 653 503 653 487.5 639 c 128,-1,45
 472 625 472 625 452 625 c 0,46,47
 430 625 430 625 415 639 c 128,-1,48
 400 653 400 653 400 681 c 0,49,50
 400 710 400 710 415 723.5 c 128,-1,51
 430 737 430 737 452 737 c 0,40,41
EndSplineSet
EndChar

StartChar: N
Encoding: 78 78 54
Width: 883
Flags: W
LayerCount: 2
Fore
SplineSet
415.5 737 m 4,0,1
 435.5 737 435.5 737 451 723.5 c 132,-1,2
 466.5 710 466.5 710 466.5 681 c 4,3,4
 466.5 653 466.5 653 451 639 c 132,-1,5
 435.5 625 435.5 625 415.5 625 c 4,6,7
 393.5 625 393.5 625 378.5 639 c 132,-1,8
 363.5 653 363.5 653 363.5 681 c 4,9,10
 363.5 710 363.5 710 378.5 723.5 c 132,-1,11
 393.5 737 393.5 737 415.5 737 c 4,0,1
473.5 546 m 0,12,13
 569.5 546 569.5 546 618.5 499.5 c 128,-1,14
 667.5 453 667.5 453 667.5 349 c 2,15,-1
 667.5 0 l 1,16,-1
 580.5 0 l 1,17,-1
 580.5 343 l 2,18,19
 580.5 408 580.5 408 551.5 440 c 128,-1,20
 522.5 472 522.5 472 460.5 472 c 0,21,22
 371.5 472 371.5 472 337.5 422 c 128,-1,23
 303.5 372 303.5 372 303.5 278 c 2,24,-1
 303.5 0 l 1,25,-1
 215.5 0 l 1,26,-1
 215.5 536 l 1,27,-1
 286.5 536 l 1,28,-1
 299.5 463 l 1,29,-1
 304.5 463 l 1,30,31
 322.5 491 322.5 491 349 509.5 c 128,-1,32
 375.5 528 375.5 528 407.5 537 c 128,-1,33
 439.5 546 439.5 546 473.5 546 c 0,12,13
EndSplineSet
EndChar

StartChar: O
Encoding: 79 79 55
Width: 883
Flags: W
LayerCount: 2
Fore
SplineSet
689.5 269 m 256,0,1
 689.5 180 689.5 180 659 117.5 c 128,-1,2
 628.5 55 628.5 55 572.5 22.5 c 128,-1,3
 516.5 -10 516.5 -10 439.5 -10 c 0,4,5
 368.5 -10 368.5 -10 313 22.5 c 128,-1,6
 257.5 55 257.5 55 225.5 117.5 c 128,-1,7
 193.5 180 193.5 180 193.5 269 c 0,8,9
 193.5 402 193.5 402 260.5 474 c 128,-1,10
 327.5 546 327.5 546 442.5 546 c 0,11,12
 515.5 546 515.5 546 571 513.5 c 128,-1,13
 626.5 481 626.5 481 658 419.5 c 128,-1,14
 689.5 358 689.5 358 689.5 269 c 256,0,1
441.5 63 m 256,15,16
 492.5 63 492.5 63 526 83 c 128,-1,17
 559.5 103 559.5 103 577 142.5 c 128,-1,18
 594.5 182 594.5 182 597.5 239 c 1,19,-1
 284.5 239 l 1,20,21
 287.5 182 287.5 182 305.5 142.5 c 128,-1,22
 323.5 103 323.5 103 357 83 c 128,-1,23
 390.5 63 390.5 63 441.5 63 c 256,15,16
440.5 472 m 0,24,25
 366.5 472 366.5 472 329.5 431.5 c 128,-1,26
 292.5 391 292.5 391 285.5 312 c 1,27,-1
 597.5 312 l 1,28,29
 592.5 365 592.5 365 574 400.5 c 128,-1,30
 555.5 436 555.5 436 522.5 454 c 128,-1,31
 489.5 472 489.5 472 440.5 472 c 0,24,25
EndSplineSet
EndChar

StartChar: P
Encoding: 80 80 56
Width: 883
Flags: W
LayerCount: 2
Fore
SplineSet
322.5 744 m 4,0,1
 342.5 744 342.5 744 358 730.5 c 132,-1,2
 373.5 717 373.5 717 373.5 688 c 4,3,4
 373.5 660 373.5 660 358 646 c 132,-1,5
 342.5 632 342.5 632 322.5 632 c 4,6,7
 300.5 632 300.5 632 285.5 646 c 132,-1,8
 270.5 660 270.5 660 270.5 688 c 4,9,10
 270.5 717 270.5 717 285.5 730.5 c 132,-1,11
 300.5 744 300.5 744 322.5 744 c 4,0,1
460.5 546 m 0,12,13
 520.5 546 520.5 546 567.5 521 c 128,-1,14
 614.5 496 614.5 496 641.5 446.5 c 128,-1,15
 668.5 397 668.5 397 668.5 323 c 0,16,17
 668.5 252 668.5 252 641.5 193 c 128,-1,18
 614.5 134 614.5 134 565.5 90.5 c 128,-1,19
 516.5 47 516.5 47 449.5 21 c 128,-1,20
 382.5 -5 382.5 -5 302.5 -10 c 1,21,-1
 302.5 -240 l 1,22,-1
 214.5 -240 l 1,23,-1
 214.5 536 l 1,24,-1
 286.5 536 l 1,25,-1
 298.5 463 l 1,26,-1
 302.5 463 l 1,27,28
 317.5 486 317.5 486 338.5 505 c 128,-1,29
 359.5 524 359.5 524 389.5 535 c 128,-1,30
 419.5 546 419.5 546 460.5 546 c 0,12,13
442.5 472 m 0,31,32
 392.5 472 392.5 472 361.5 451.5 c 128,-1,33
 330.5 431 330.5 431 316.5 390 c 128,-1,34
 302.5 349 302.5 349 302.5 286 c 2,35,-1
 302.5 62 l 1,36,37
 367.5 70 367.5 70 418 91.5 c 128,-1,38
 468.5 113 468.5 113 504.5 146.5 c 128,-1,39
 540.5 180 540.5 180 559 224 c 128,-1,40
 577.5 268 577.5 268 577.5 321 c 0,41,42
 577.5 367 577.5 367 561.5 400.5 c 128,-1,43
 545.5 434 545.5 434 515.5 453 c 128,-1,44
 485.5 472 485.5 472 442.5 472 c 0,31,32
EndSplineSet
EndChar

StartChar: Q
Encoding: 81 81 57
Width: 883
Flags: W
LayerCount: 2
Fore
SplineSet
692.5 -5 m 1,0,1
 672.5 -5 672.5 -5 653.5 2 c 128,-1,2
 634.5 9 634.5 9 620.5 26 c 1,3,-1
 620.5 291 l 5,4,5
 592.5 266 592.5 266 555.5 250.5 c 132,-1,6
 518.5 235 518.5 235 468.5 235 c 4,7,8
 426.5 235 426.5 235 377.5 258 c 132,-1,9
 328.5 281 328.5 281 286.5 318 c 132,-1,10
 244.5 355 244.5 355 216.5 401 c 132,-1,11
 188.5 447 188.5 447 188.5 493 c 4,12,13
 188.5 541 188.5 541 206 578 c 132,-1,14
 223.5 615 223.5 615 253.5 640.5 c 132,-1,15
 283.5 666 283.5 666 324 679 c 132,-1,16
 364.5 692 364.5 692 410.5 692 c 4,17,18
 444.5 692 444.5 692 474.5 684 c 4,19,20
 523.5 671 523.5 671 530.5 662.5 c 4,21,22
 565.5 622 565.5 622 579 631.5 c 4,23,24
 582.5 634 582.5 634 620.5 718 c 5,25,-1
 618.5 717 l 5,26,-1
 694.5 717 l 6,27,-1
 692.5 -5 l 1,0,1
411.5 292 m 4,28,29
 449.5 292 449.5 292 485.5 304.5 c 132,-1,30
 521.5 317 521.5 317 551.5 340 c 5,31,-1
 318.5 580 l 5,32,33
 291.5 556 291.5 556 276.5 521.5 c 132,-1,34
 261.5 487 261.5 487 261.5 442 c 4,35,36
 261.5 406 261.5 406 273 378 c 132,-1,37
 284.5 350 284.5 350 304.5 331 c 132,-1,38
 324.5 312 324.5 312 352 302 c 132,-1,39
 379.5 292 379.5 292 411.5 292 c 4,28,29
620.5 571 m 5,40,41
 585.5 598 585.5 598 548 613.5 c 132,-1,42
 510.5 629 510.5 629 461.5 629 c 4,43,44
 389.5 629 389.5 629 338.5 596 c 5,45,-1
 569.5 356 l 5,46,47
 585.5 371 585.5 371 598.5 389 c 132,-1,48
 611.5 407 611.5 407 620.5 427 c 5,49,-1
 620.5 571 l 5,40,41
EndSplineSet
EndChar

StartChar: R
Encoding: 82 82 58
Width: 883
Flags: W
AnchorPoint: "Anchor-5" 326 0 basechar 0
LayerCount: 2
Fore
SplineSet
459 744 m 4,0,1
 479 744 479 744 494.5 730.5 c 132,-1,2
 510 717 510 717 510 688 c 4,3,4
 510 660 510 660 494.5 646 c 132,-1,5
 479 632 479 632 459 632 c 4,6,7
 437 632 437 632 422 646 c 132,-1,8
 407 660 407 660 407 688 c 4,9,10
 407 717 407 717 422 730.5 c 132,-1,11
 437 744 437 744 459 744 c 4,0,1
535 546 m 0,12,13
 550 546 550 546 567.5 544.5 c 128,-1,14
 585 543 585 543 598 540 c 1,15,-1
 587 459 l 1,16,17
 574 462 574 462 558.5 464 c 128,-1,18
 543 466 543 466 529 466 c 0,19,20
 498 466 498 466 470 453 c 128,-1,21
 442 440 442 440 420 416.5 c 128,-1,22
 398 393 398 393 385.5 360 c 128,-1,23
 373 327 373 327 373 286 c 2,24,-1
 373 0 l 1,25,-1
 285 0 l 1,26,-1
 285 536 l 1,27,-1
 357 536 l 1,28,-1
 367 438 l 1,29,-1
 371 438 l 1,30,31
 388 468 388 468 412 492.5 c 128,-1,32
 436 517 436 517 467 531.5 c 128,-1,33
 498 546 498 546 535 546 c 0,12,13
EndSplineSet
EndChar

StartChar: S
Encoding: 83 83 59
Width: 883
Flags: W
AnchorPoint: "Anchor-5" 439 0 basechar 0
LayerCount: 2
Fore
SplineSet
458 744 m 4,0,1
 478 744 478 744 493.5 730.5 c 132,-1,2
 509 717 509 717 509 688 c 4,3,4
 509 660 509 660 493.5 646 c 132,-1,5
 478 632 478 632 458 632 c 4,6,7
 436 632 436 632 421 646 c 132,-1,8
 406 660 406 660 406 688 c 4,9,10
 406 717 406 717 421 730.5 c 132,-1,11
 436 744 436 744 458 744 c 4,0,1
633 148 m 0,12,13
 633 96 633 96 607 61 c 128,-1,14
 581 26 581 26 533 8 c 128,-1,15
 485 -10 485 -10 419 -10 c 0,16,17
 363 -10 363 -10 322.5 -1 c 128,-1,18
 282 8 282 8 251 24 c 1,19,-1
 251 104 l 1,20,21
 283 88 283 88 328.5 74.5 c 128,-1,22
 374 61 374 61 421 61 c 0,23,24
 488 61 488 61 518 82.5 c 128,-1,25
 548 104 548 104 548 140 c 0,26,27
 548 160 548 160 537 176 c 128,-1,28
 526 192 526 192 497.5 208 c 128,-1,29
 469 224 469 224 416 244 c 0,30,31
 364 264 364 264 327 284 c 128,-1,32
 290 304 290 304 270 332 c 128,-1,33
 250 360 250 360 250 404 c 0,34,35
 250 472 250 472 305.5 509 c 128,-1,36
 361 546 361 546 451 546 c 0,37,38
 500 546 500 546 542.5 536.5 c 128,-1,39
 585 527 585 527 622 510 c 1,40,-1
 592 440 l 1,41,42
 558 454 558 454 521 464 c 128,-1,43
 484 474 484 474 445 474 c 0,44,45
 391 474 391 474 362.5 456.5 c 128,-1,46
 334 439 334 439 334 409 c 0,47,48
 334 387 334 387 347 371.5 c 128,-1,49
 360 356 360 356 390.5 341.5 c 128,-1,50
 421 327 421 327 472 307 c 0,51,52
 523 288 523 288 559 268 c 128,-1,53
 595 248 595 248 614 219.5 c 128,-1,54
 633 191 633 191 633 148 c 0,12,13
EndSplineSet
EndChar

StartChar: T
Encoding: 84 84 60
Width: 883
Flags: W
LayerCount: 2
Fore
SplineSet
347 12 m 1,0,1
 302 48 302 48 264.5 87.5 c 128,-1,2
 227 127 227 127 204 170 c 128,-1,3
 181 213 181 213 181 261 c 0,4,5
 181 300 181 300 194 330 c 128,-1,6
 207 360 207 360 231 381 c 0,7,8
 261 407 261 407 308.5 420 c 128,-1,9
 356 433 356 433 444 433 c 2,10,-1
 556 433 l 1,11,-1
 556 360 l 1,12,-1
 438 360 l 2,13,14
 393 360 393 360 366 357 c 128,-1,15
 339 354 339 354 323 347.5 c 128,-1,16
 307 341 307 341 294 331 c 0,17,18
 279 319 279 319 271 301.5 c 128,-1,19
 263 284 263 284 263 261 c 0,20,21
 263 227 263 227 279.5 196 c 128,-1,22
 296 165 296 165 327 134 c 128,-1,23
 358 103 358 103 400 68 c 1,24,-1
 347 12 l 1,0,1
684 0 m 2,25,26
 641 0 641 0 612.5 9.5 c 128,-1,27
 584 19 584 19 567 37 c 0,28,29
 551 54 551 54 543.5 79 c 128,-1,30
 536 104 536 104 536 148 c 2,31,-1
 536 603 l 1,32,-1
 616 592 l 1,33,-1
 616 152 l 2,34,35
 616 125 616 125 619 112.5 c 128,-1,36
 622 100 622 100 628 92 c 0,37,38
 639 78 639 78 660.5 75.5 c 128,-1,39
 682 73 682 73 702 73 c 1,40,-1
 695 0 l 1,41,-1
 684 0 l 2,25,26
EndSplineSet
EndChar

StartChar: U
Encoding: 85 85 61
Width: 883
Flags: W
LayerCount: 2
Fore
SplineSet
664.5 536 m 1,0,-1
 664.5 0 l 1,1,-1
 592.5 0 l 1,2,-1
 579.5 71 l 1,3,-1
 575.5 71 l 1,4,5
 558.5 43 558.5 43 531.5 25 c 128,-1,6
 504.5 7 504.5 7 472.5 -1.5 c 128,-1,7
 440.5 -10 440.5 -10 405.5 -10 c 0,8,9
 341.5 -10 341.5 -10 298 10.5 c 128,-1,10
 254.5 31 254.5 31 232.5 74 c 128,-1,11
 210.5 117 210.5 117 210.5 185 c 2,12,-1
 210.5 536 l 1,13,-1
 299.5 536 l 1,14,-1
 299.5 191 l 2,15,16
 299.5 127 299.5 127 328.5 95 c 128,-1,17
 357.5 63 357.5 63 418.5 63 c 0,18,19
 478.5 63 478.5 63 513 85.5 c 128,-1,20
 547.5 108 547.5 108 562 151.5 c 128,-1,21
 576.5 195 576.5 195 576.5 257 c 2,22,-1
 576.5 536 l 1,23,-1
 664.5 536 l 1,0,-1
579.5 -116 m 0,24,25
 579.5 -138 579.5 -138 591.5 -149.5 c 128,-1,26
 603.5 -161 603.5 -161 624.5 -161 c 0,27,28
 641.5 -161 641.5 -161 653 -158.5 c 128,-1,29
 664.5 -156 664.5 -156 672.5 -155 c 1,30,-1
 672.5 -211 l 1,31,32
 658.5 -215 658.5 -215 644.5 -217.5 c 128,-1,33
 630.5 -220 630.5 -220 610.5 -220 c 0,34,35
 557.5 -220 557.5 -220 532.5 -195 c 128,-1,36
 507.5 -170 507.5 -170 507.5 -126 c 0,37,38
 507.5 -97 507.5 -97 522 -70 c 128,-1,39
 536.5 -43 536.5 -43 558 -21 c 128,-1,40
 579.5 1 579.5 1 599.5 15 c 1,41,-1
 647.5 0 l 1,42,43
 613.5 -32 613.5 -32 596.5 -58.5 c 128,-1,44
 579.5 -85 579.5 -85 579.5 -116 c 0,24,25
EndSplineSet
EndChar

StartChar: V
Encoding: 86 86 62
Width: 883
Flags: W
LayerCount: 2
Fore
SplineSet
429.5 737 m 4,0,1
 449.5 737 449.5 737 465 723.5 c 132,-1,2
 480.5 710 480.5 710 480.5 681 c 4,3,4
 480.5 653 480.5 653 465 639 c 132,-1,5
 449.5 625 449.5 625 429.5 625 c 4,6,7
 407.5 625 407.5 625 392.5 639 c 132,-1,8
 377.5 653 377.5 653 377.5 681 c 4,9,10
 377.5 710 377.5 710 392.5 723.5 c 132,-1,11
 407.5 737 407.5 737 429.5 737 c 4,0,1
388.5 0 m 1,12,-1
 198.5 536 l 1,13,-1
 289.5 536 l 1,14,-1
 386.5 247 l 2,15,16
 394.5 223 394.5 223 406.5 190 c 128,-1,17
 418.5 157 418.5 157 429 125.5 c 128,-1,18
 439.5 94 439.5 94 444.5 74 c 1,19,-1
 448.5 74 l 1,20,21
 505.5 137 505.5 137 538 206.5 c 128,-1,22
 570.5 276 570.5 276 584 357.5 c 128,-1,23
 597.5 439 597.5 439 597.5 536 c 1,24,-1
 684.5 536 l 1,25,26
 684.5 431 684.5 431 666.5 340.5 c 128,-1,27
 648.5 250 648.5 250 605 166.5 c 128,-1,28
 561.5 83 561.5 83 483.5 0 c 1,29,-1
 388.5 0 l 1,12,-1
EndSplineSet
EndChar

StartChar: W
Encoding: 87 87 63
Width: 883
Flags: W
LayerCount: 2
Fore
SplineSet
297.5 -10 m 0,0,1
 235.5 -10 235.5 -10 193 24 c 128,-1,2
 150.5 58 150.5 58 128.5 119 c 128,-1,3
 106.5 180 106.5 180 106.5 260 c 0,4,5
 106.5 322 106.5 322 118 467 c 128,-1,6
 129.5 612 129.5 612 148.5 652 c 5,7,-1
 34.5 652 l 5,8,-1
 34.5 725 l 5,9,-1
 848.5 725 l 5,10,-1
 848.5 652 l 5,11,-1
 734.5 652 l 5,12,13
 754.5 612 754.5 612 765.5 467 c 128,-1,14
 776.5 322 776.5 322 776.5 260 c 0,15,16
 776.5 180 776.5 180 754.5 119 c 128,-1,17
 732.5 58 732.5 58 690 24 c 128,-1,18
 647.5 -10 647.5 -10 585.5 -10 c 0,19,20
 530.5 -10 530.5 -10 495.5 15.5 c 128,-1,21
 460.5 41 460.5 41 443.5 100 c 1,22,-1
 438.5 100 l 1,23,24
 428.5 61 428.5 61 409.5 36.5 c 128,-1,25
 390.5 12 390.5 12 362.5 1 c 128,-1,26
 334.5 -10 334.5 -10 297.5 -10 c 0,0,1
303.5 63 m 0,27,28
 336.5 63 336.5 63 358 80 c 128,-1,29
 379.5 97 379.5 97 389.5 126.5 c 128,-1,30
 399.5 156 399.5 156 399.5 193 c 2,31,-1
 399.5 344 l 1,32,-1
 483.5 344 l 1,33,-1
 483.5 193 l 2,34,35
 483.5 152 483.5 152 495 122.5 c 128,-1,36
 506.5 93 506.5 93 527.5 78 c 128,-1,37
 548.5 63 548.5 63 578.5 63 c 0,38,39
 612.5 63 612.5 63 637 85 c 128,-1,40
 661.5 107 661.5 107 675 151 c 128,-1,41
 688.5 195 688.5 195 688.5 259 c 0,42,43
 688.5 322 688.5 322 677.5 467 c 128,-1,44
 666.5 612 666.5 612 646.5 652 c 5,45,-1
 237.5 652 l 5,46,47
 218.5 612 218.5 612 206.5 467 c 128,-1,48
 194.5 322 194.5 322 194.5 259 c 0,49,50
 194.5 162 194.5 162 224.5 112.5 c 128,-1,51
 254.5 63 254.5 63 303.5 63 c 0,27,28
EndSplineSet
EndChar

StartChar: X
Encoding: 88 88 64
Width: 883
Flags: W
LayerCount: 2
Fore
SplineSet
432.5 722 m 0,0,1
 452.5 722 452.5 722 468 708.5 c 128,-1,2
 483.5 695 483.5 695 483.5 666 c 0,3,4
 483.5 638 483.5 638 468 624 c 128,-1,5
 452.5 610 452.5 610 432.5 610 c 0,6,7
 410.5 610 410.5 610 395.5 624 c 128,-1,8
 380.5 638 380.5 638 380.5 666 c 0,9,10
 380.5 695 380.5 695 395.5 708.5 c 128,-1,11
 410.5 722 410.5 722 432.5 722 c 0,0,1
612.5 574 m 1,12,-1
 662.5 523 l 1,13,-1
 492.5 353 l 1,14,-1
 661.5 183 l 1,15,-1
 611.5 132 l 1,16,-1
 440.5 301 l 1,17,-1
 273.5 132 l 1,18,-1
 221.5 183 l 1,19,-1
 390.5 353 l 1,20,-1
 220.5 522 l 1,21,-1
 272.5 574 l 1,22,-1
 441.5 403 l 1,23,-1
 612.5 574 l 1,12,-1
EndSplineSet
EndChar

StartChar: Y
Encoding: 89 89 65
Width: 883
Flags: W
LayerCount: 2
Fore
SplineSet
445 744 m 4,0,1
 465 744 465 744 480.5 730.5 c 132,-1,2
 496 717 496 717 496 688 c 4,3,4
 496 660 496 660 480.5 646 c 132,-1,5
 465 632 465 632 445 632 c 4,6,7
 423 632 423 632 408 646 c 132,-1,8
 393 660 393 660 393 688 c 4,9,10
 393 717 393 717 408 730.5 c 132,-1,11
 423 744 423 744 445 744 c 4,0,1
187 536 m 1,12,-1
 281 536 l 1,13,-1
 397 231 l 2,14,15
 407 204 407 204 415.5 179 c 128,-1,16
 424 154 424 154 431 130.5 c 128,-1,17
 438 107 438 107 442 85 c 1,18,-1
 446 85 l 1,19,20
 452 110 452 110 465 150.5 c 128,-1,21
 478 191 478 191 492 232 c 2,22,-1
 601 536 l 1,23,-1
 696 536 l 1,24,-1
 465 -74 l 2,25,26
 446 -124 446 -124 420.5 -161.5 c 128,-1,27
 395 -199 395 -199 358.5 -219.5 c 128,-1,28
 322 -240 322 -240 270 -240 c 0,29,30
 246 -240 246 -240 228 -237.5 c 128,-1,31
 210 -235 210 -235 197 -232 c 1,32,-1
 197 -162 l 1,33,34
 208 -164 208 -164 223.5 -166 c 128,-1,35
 239 -168 239 -168 256 -168 c 0,36,37
 287 -168 287 -168 309.5 -156.5 c 128,-1,38
 332 -145 332 -145 348 -123.5 c 128,-1,39
 364 -102 364 -102 375 -73 c 2,40,-1
 403 -2 l 1,41,-1
 187 536 l 1,12,-1
EndSplineSet
EndChar

StartChar: Z
Encoding: 90 90 66
Width: 883
Flags: W
LayerCount: 2
Fore
SplineSet
230.5 0 m 1,0,-1
 230.5 56 l 1,1,-1
 533.5 499 l 1,2,-1
 241.5 499 l 1,3,-1
 241.5 572 l 1,4,-1
 644.5 572 l 1,5,-1
 644.5 515 l 1,6,-1
 341.5 73 l 1,7,-1
 652.5 73 l 1,8,-1
 652.5 0 l 1,9,-1
 230.5 0 l 1,0,-1
446.5 773 m 0,10,11
 466.5 773 466.5 773 482 759.5 c 128,-1,12
 497.5 746 497.5 746 497.5 717 c 0,13,14
 497.5 689 497.5 689 482 675 c 128,-1,15
 466.5 661 466.5 661 446.5 661 c 0,16,17
 424.5 661 424.5 661 409.5 675 c 128,-1,18
 394.5 689 394.5 689 394.5 717 c 0,19,20
 394.5 746 394.5 746 409.5 759.5 c 128,-1,21
 424.5 773 424.5 773 446.5 773 c 0,10,11
EndSplineSet
EndChar

StartChar: a
Encoding: 97 97 67
Width: 883
Flags: W
LayerCount: 2
Fore
SplineSet
388.5 -10 m 0,0,1
 288.5 -10 288.5 -10 228.5 59.5 c 128,-1,2
 168.5 129 168.5 129 168.5 267 c 256,3,4
 168.5 405 168.5 405 229 475.5 c 128,-1,5
 289.5 546 289.5 546 389.5 546 c 0,6,7
 451.5 546 451.5 546 491 523 c 128,-1,8
 530.5 500 530.5 500 555.5 467 c 1,9,-1
 559.5 467 l 1,10,-1
 573.5 536 l 1,11,-1
 643.5 536 l 1,12,-1
 643.5 118 l 2,13,14
 643.5 87 643.5 87 655.5 74.5 c 128,-1,15
 667.5 62 667.5 62 684.5 62 c 0,16,17
 692.5 62 692.5 62 701.5 64 c 128,-1,18
 710.5 66 710.5 66 714.5 67 c 1,19,-1
 714.5 3 l 1,20,21
 709.5 0 709.5 0 700.5 -3 c 128,-1,22
 691.5 -6 691.5 -6 680.5 -8 c 128,-1,23
 669.5 -10 669.5 -10 658.5 -10 c 0,24,25
 620.5 -10 620.5 -10 595.5 8 c 128,-1,26
 570.5 26 570.5 26 559.5 72 c 1,27,-1
 555.5 72 l 1,28,29
 531.5 38 531.5 38 491.5 14 c 128,-1,30
 451.5 -10 451.5 -10 388.5 -10 c 0,0,1
402.5 63 m 0,31,32
 459.5 63 459.5 63 493 83.5 c 128,-1,33
 526.5 104 526.5 104 541.5 146 c 128,-1,34
 556.5 188 556.5 188 556.5 250 c 2,35,-1
 556.5 266 l 2,36,37
 556.5 366 556.5 366 523.5 419.5 c 128,-1,38
 490.5 473 490.5 473 401.5 473 c 0,39,40
 330.5 473 330.5 473 295 416.5 c 128,-1,41
 259.5 360 259.5 360 259.5 265 c 0,42,43
 259.5 169 259.5 169 295 116 c 128,-1,44
 330.5 63 330.5 63 402.5 63 c 0,31,32
EndSplineSet
EndChar

StartChar: b
Encoding: 98 98 68
Width: 883
Flags: W
LayerCount: 2
Fore
SplineSet
289.5 151 m 0,0,1
 234.5 151 234.5 151 192 175.5 c 128,-1,2
 149.5 200 149.5 200 125 246 c 128,-1,3
 100.5 292 100.5 292 100.5 354 c 0,4,5
 100.5 447 100.5 447 156.5 509.5 c 128,-1,6
 212.5 572 212.5 572 315.5 603 c 1,7,-1
 338.5 531 l 1,8,9
 250.5 503 250.5 503 216.5 457 c 128,-1,10
 182.5 411 182.5 411 182.5 353 c 0,11,12
 182.5 305 182.5 305 198.5 276.5 c 128,-1,13
 214.5 248 214.5 248 239.5 235.5 c 128,-1,14
 264.5 223 264.5 223 290.5 223 c 0,15,16
 318.5 223 318.5 223 338 232 c 128,-1,17
 357.5 241 357.5 241 370.5 258 c 256,18,19
 383.5 275 383.5 275 388.5 299 c 128,-1,20
 393.5 323 393.5 323 393.5 369 c 2,21,-1
 393.5 447 l 1,22,-1
 473.5 437 l 1,23,-1
 473.5 335 l 2,24,25
 473.5 256 473.5 256 429 203.5 c 128,-1,26
 384.5 151 384.5 151 289.5 151 c 0,0,1
531.5 228 m 0,27,28
 491.5 228 491.5 228 459 250 c 128,-1,29
 426.5 272 426.5 272 405.5 333 c 1,30,-1
 460.5 357 l 1,31,32
 470.5 325 470.5 325 488.5 312.5 c 128,-1,33
 506.5 300 506.5 300 531.5 300 c 0,34,35
 567.5 300 567.5 300 593.5 318.5 c 128,-1,36
 619.5 337 619.5 337 641.5 371 c 1,37,-1
 658.5 291 l 1,38,39
 632.5 261 632.5 261 604.5 244.5 c 128,-1,40
 576.5 228 576.5 228 531.5 228 c 0,27,28
764.5 0 m 2,41,42
 729.5 0 729.5 0 699 7.5 c 128,-1,43
 668.5 15 668.5 15 647.5 37 c 0,44,45
 628.5 57 628.5 57 622.5 81.5 c 128,-1,46
 616.5 106 616.5 106 616.5 148 c 2,47,-1
 616.5 603 l 1,48,-1
 696.5 592 l 1,49,-1
 696.5 152 l 2,50,51
 696.5 125 696.5 125 699.5 112.5 c 128,-1,52
 702.5 100 702.5 100 708.5 92 c 0,53,54
 719.5 78 719.5 78 740.5 75.5 c 128,-1,55
 761.5 73 761.5 73 782.5 73 c 1,56,-1
 774.5 0 l 1,57,-1
 764.5 0 l 2,41,42
EndSplineSet
EndChar

StartChar: c
Encoding: 99 99 69
Width: 883
Flags: W
AnchorPoint: "Anchor-1" 441.5 536 basechar 0
AnchorPoint: "Anchor-0" 441.5 0 basechar 0
LayerCount: 2
Fore
SplineSet
497.5 -10 m 0,0,1
 379.5 -10 379.5 -10 314.5 57 c 128,-1,2
 249.5 124 249.5 124 249.5 245 c 0,3,4
 249.5 325 249.5 325 278.5 380.5 c 128,-1,5
 307.5 436 307.5 436 361.5 465 c 1,6,-1
 228.5 465 l 1,7,-1
 228.5 537 l 1,8,-1
 654.5 537 l 1,9,-1
 654.5 465 l 1,10,-1
 541.5 465 l 2,11,12
 447.5 465 447.5 465 394 411.5 c 128,-1,13
 340.5 358 340.5 358 340.5 252 c 0,14,15
 340.5 165 340.5 165 383.5 114.5 c 128,-1,16
 426.5 64 426.5 64 506.5 64 c 0,17,18
 543.5 64 543.5 64 577.5 73.5 c 128,-1,19
 611.5 83 611.5 83 643.5 99 c 1,20,-1
 643.5 21 l 1,21,22
 614.5 5 614.5 5 579.5 -2.5 c 128,-1,23
 544.5 -10 544.5 -10 497.5 -10 c 0,0,1
EndSplineSet
EndChar

StartChar: d
Encoding: 100 100 70
Width: 883
Flags: W
LayerCount: 2
Fore
SplineSet
424 -10 m 0,0,1
 324 -10 324 -10 264 59.5 c 128,-1,2
 204 129 204 129 204 267 c 256,3,4
 204 405 204 405 264.5 475.5 c 128,-1,5
 325 546 325 546 425 546 c 0,6,7
 467 546 467 546 498 535.5 c 128,-1,8
 529 525 529 525 552 507 c 128,-1,9
 575 489 575 489 591 467 c 1,10,-1
 597 467 l 1,11,12
 596 480 596 480 593.5 505.5 c 128,-1,13
 591 531 591 531 591 546 c 2,14,-1
 591 760 l 1,15,-1
 679 760 l 1,16,-1
 679 0 l 1,17,-1
 608 0 l 1,18,-1
 595 72 l 1,19,-1
 591 72 l 1,20,21
 575 49 575 49 552 30.5 c 128,-1,22
 529 12 529 12 497.5 1 c 128,-1,23
 466 -10 466 -10 424 -10 c 0,0,1
438 63 m 0,24,25
 523 63 523 63 557.5 109.5 c 128,-1,26
 592 156 592 156 592 250 c 2,27,-1
 592 266 l 2,28,29
 592 366 592 366 559 419.5 c 128,-1,30
 526 473 526 473 437 473 c 0,31,32
 366 473 366 473 330.5 416.5 c 128,-1,33
 295 360 295 360 295 265 c 0,34,35
 295 169 295 169 330.5 116 c 128,-1,36
 366 63 366 63 438 63 c 0,24,25
EndSplineSet
EndChar

StartChar: e
Encoding: 101 101 71
Width: 883
Flags: W
LayerCount: 2
Fore
SplineSet
449.5 546 m 0,0,1
 518.5 546 518.5 546 568 516 c 128,-1,2
 617.5 486 617.5 486 644 431.5 c 128,-1,3
 670.5 377 670.5 377 670.5 304 c 2,4,-1
 670.5 251 l 1,5,-1
 303.5 251 l 1,6,7
 305.5 160 305.5 160 350 112.5 c 128,-1,8
 394.5 65 394.5 65 474.5 65 c 0,9,10
 525.5 65 525.5 65 565 74.5 c 128,-1,11
 604.5 84 604.5 84 646.5 102 c 1,12,-1
 646.5 25 l 1,13,14
 605.5 7 605.5 7 565.5 -1.5 c 128,-1,15
 525.5 -10 525.5 -10 470.5 -10 c 0,16,17
 394.5 -10 394.5 -10 336 21 c 128,-1,18
 277.5 52 277.5 52 245 113.5 c 128,-1,19
 212.5 175 212.5 175 212.5 264 c 0,20,21
 212.5 352 212.5 352 242 415 c 128,-1,22
 271.5 478 271.5 478 325 512 c 128,-1,23
 378.5 546 378.5 546 449.5 546 c 0,0,1
448.5 474 m 0,24,25
 385.5 474 385.5 474 349 433.5 c 128,-1,26
 312.5 393 312.5 393 305.5 321 c 1,27,-1
 578.5 321 l 1,28,29
 578.5 367 578.5 367 564.5 401 c 128,-1,30
 550.5 435 550.5 435 522 454.5 c 128,-1,31
 493.5 474 493.5 474 448.5 474 c 0,24,25
EndSplineSet
EndChar

StartChar: f
Encoding: 102 102 72
Width: 883
Flags: W
AnchorPoint: "Anchor-3" 388.5 603 basechar 0
AnchorPoint: "Anchor-0" 488.5 603 basechar 0
LayerCount: 2
Fore
SplineSet
553.5 -178 m 2,0,1
 487.5 -178 487.5 -178 440.5 -148 c 128,-1,2
 393.5 -118 393.5 -118 358.5 -69 c 128,-1,3
 323.5 -20 323.5 -20 291.5 38 c 1,4,-1
 270.5 109 l 1,5,6
 299.5 93 299.5 93 322.5 82.5 c 128,-1,7
 345.5 72 345.5 72 370.5 66.5 c 128,-1,8
 395.5 61 395.5 61 431.5 61 c 0,9,10
 488.5 61 488.5 61 517 83 c 128,-1,11
 545.5 105 545.5 105 545.5 144 c 0,12,13
 545.5 163 545.5 163 536 184 c 128,-1,14
 526.5 205 526.5 205 499.5 230 c 128,-1,15
 472.5 255 472.5 255 420.5 285 c 1,16,-1
 393.5 306 l 2,17,18
 358.5 329 358.5 329 332 351.5 c 128,-1,19
 305.5 374 305.5 374 291.5 401 c 128,-1,20
 277.5 428 277.5 428 277.5 462 c 0,21,22
 277.5 524 277.5 524 325 563.5 c 128,-1,23
 372.5 603 372.5 603 451.5 603 c 0,24,25
 483.5 603 483.5 603 512.5 599.5 c 128,-1,26
 541.5 596 541.5 596 568.5 589 c 1,27,-1
 553.5 517 l 1,28,29
 527.5 523 527.5 523 507 526 c 128,-1,30
 486.5 529 486.5 529 460.5 529 c 0,31,32
 409.5 529 409.5 529 384.5 509 c 128,-1,33
 359.5 489 359.5 489 359.5 455 c 0,34,35
 359.5 437 359.5 437 369.5 419 c 128,-1,36
 379.5 401 379.5 401 401.5 383.5 c 128,-1,37
 423.5 366 423.5 366 459.5 347 c 1,38,-1
 487.5 322 l 1,39,40
 533.5 296 533.5 296 564.5 269 c 128,-1,41
 595.5 242 595.5 242 611.5 211 c 128,-1,42
 627.5 180 627.5 180 627.5 142 c 0,43,44
 627.5 105 627.5 105 609 70 c 128,-1,45
 590.5 35 590.5 35 548 12.5 c 128,-1,46
 505.5 -10 505.5 -10 433.5 -10 c 0,47,48
 408.5 -10 408.5 -10 379.5 -8 c 128,-1,49
 350.5 -6 350.5 -6 327.5 -4 c 0,50,51
 280.5 0 280.5 0 257 13.5 c 128,-1,52
 233.5 27 233.5 27 225.5 43.5 c 128,-1,53
 217.5 60 217.5 60 217.5 73 c 0,54,55
 217.5 96 217.5 96 233 109 c 128,-1,56
 248.5 122 248.5 122 270.5 122 c 0,57,58
 290.5 122 290.5 122 308 114 c 128,-1,59
 325.5 106 325.5 106 342 91.5 c 128,-1,60
 358.5 77 358.5 77 374.5 56 c 1,61,-1
 362.5 48 l 1,62,63
 396.5 -7 396.5 -7 425.5 -40.5 c 128,-1,64
 454.5 -74 454.5 -74 484.5 -88.5 c 128,-1,65
 514.5 -103 514.5 -103 552.5 -103 c 2,66,-1
 578.5 -103 l 1,67,-1
 569.5 -178 l 1,68,-1
 553.5 -178 l 2,0,1
239.5 211 m 1,69,-1
 212.5 282 l 1,70,-1
 403.5 350 l 1,71,-1
 638.5 438 l 1,72,-1
 670.5 368 l 1,73,-1
 463.5 297 l 1,74,-1
 239.5 211 l 1,69,-1
EndSplineSet
EndChar

StartChar: g
Encoding: 103 103 73
Width: 883
Flags: W
LayerCount: 2
Fore
SplineSet
424 546 m 0,0,1
 477 546 477 546 519.5 526 c 128,-1,2
 562 506 562 506 592 465 c 1,3,-1
 597 465 l 1,4,-1
 609 536 l 1,5,-1
 679 536 l 1,6,-1
 679 -9 l 2,7,8
 679 -85 679 -85 653 -136.5 c 128,-1,9
 627 -188 627 -188 574 -214 c 128,-1,10
 521 -240 521 -240 439 -240 c 0,11,12
 381 -240 381 -240 332.5 -231.5 c 128,-1,13
 284 -223 284 -223 246 -206 c 1,14,-1
 246 -125 l 1,15,16
 284 -145 284 -145 335 -156 c 128,-1,17
 386 -167 386 -167 444 -167 c 0,18,19
 513 -167 513 -167 552.5 -126.5 c 128,-1,20
 592 -86 592 -86 592 -16 c 2,21,-1
 592 5 l 2,22,23
 592 17 592 17 593 39.5 c 128,-1,24
 594 62 594 62 595 71 c 1,25,-1
 591 71 l 1,26,27
 563 30 563 30 521.5 10 c 128,-1,28
 480 -10 480 -10 425 -10 c 0,29,30
 321 -10 321 -10 262.5 63 c 128,-1,31
 204 136 204 136 204 267 c 0,32,33
 204 395 204 395 262.5 470.5 c 128,-1,34
 321 546 321 546 424 546 c 0,0,1
436 472 m 0,35,36
 391 472 391 472 359.5 448 c 128,-1,37
 328 424 328 424 311.5 378 c 128,-1,38
 295 332 295 332 295 266 c 0,39,40
 295 167 295 167 331.5 114.5 c 128,-1,41
 368 62 368 62 438 62 c 0,42,43
 479 62 479 62 508 72.5 c 128,-1,44
 537 83 537 83 556 105.5 c 128,-1,45
 575 128 575 128 584 163 c 128,-1,46
 593 198 593 198 593 246 c 2,47,-1
 593 267 l 2,48,49
 593 340 593 340 576.5 385 c 128,-1,50
 560 430 560 430 525 451 c 128,-1,51
 490 472 490 472 436 472 c 0,35,36
EndSplineSet
EndChar

StartChar: h
Encoding: 104 104 74
Width: 883
Flags: W
LayerCount: 2
Fore
SplineSet
303.5 537 m 2,0,1
 303.5 518 303.5 518 302 498 c 128,-1,2
 300.5 478 300.5 478 298.5 462 c 1,3,-1
 304.5 462 l 1,4,5
 321.5 490 321.5 490 347.5 508 c 128,-1,6
 373.5 526 373.5 526 405.5 535.5 c 128,-1,7
 437.5 545 437.5 545 471.5 545 c 0,8,9
 536.5 545 536.5 545 580 524.5 c 128,-1,10
 623.5 504 623.5 504 645.5 461 c 128,-1,11
 667.5 418 667.5 418 667.5 349 c 2,12,-1
 667.5 0 l 1,13,-1
 580.5 0 l 1,14,-1
 580.5 343 l 2,15,16
 580.5 408 580.5 408 551.5 440 c 128,-1,17
 522.5 472 522.5 472 460.5 472 c 0,18,19
 400.5 472 400.5 472 366.5 449.5 c 128,-1,20
 332.5 427 332.5 427 318 383.5 c 128,-1,21
 303.5 340 303.5 340 303.5 277 c 2,22,-1
 303.5 0 l 1,23,-1
 215.5 0 l 1,24,-1
 215.5 760 l 1,25,-1
 303.5 760 l 1,26,-1
 303.5 537 l 2,0,1
EndSplineSet
EndChar

StartChar: i
Encoding: 105 105 75
Width: 883
Flags: W
LayerCount: 2
Fore
SplineSet
485 536 m 1,0,-1
 485 0 l 1,1,-1
 397 0 l 1,2,-1
 397 536 l 1,3,-1
 485 536 l 1,0,-1
442 737 m 0,4,5
 462 737 462 737 477.5 723.5 c 128,-1,6
 493 710 493 710 493 681 c 0,7,8
 493 653 493 653 477.5 639 c 128,-1,9
 462 625 462 625 442 625 c 0,10,11
 420 625 420 625 405 639 c 128,-1,12
 390 653 390 653 390 681 c 0,13,14
 390 710 390 710 405 723.5 c 128,-1,15
 420 737 420 737 442 737 c 0,4,5
EndSplineSet
Substitution2: "Single Substitution lookup 105 subtable" dotlessi
Substitution2: "Single Substitution lookup 104 subtable" dotlessi
EndChar

StartChar: j
Encoding: 106 106 76
Width: 883
Flags: W
AnchorPoint: "Anchor-1" 441.5 536 basechar 0
AnchorPoint: "Anchor-0" 441.5 0 basechar 0
LayerCount: 2
Fore
SplineSet
630.5 536 m 1,0,-1
 630.5 470 l 1,1,-1
 519.5 313 l 1,2,-1
 620.5 313 l 1,3,-1
 620.5 243 l 1,4,-1
 469.5 243 l 1,5,-1
 346.5 68 l 1,6,-1
 637.5 68 l 1,7,-1
 637.5 0 l 1,8,-1
 245.5 0 l 1,9,-1
 245.5 58 l 1,10,-1
 375.5 243 l 1,11,-1
 263.5 243 l 1,12,-1
 263.5 313 l 1,13,-1
 424.5 313 l 1,14,-1
 533.5 468 l 1,15,-1
 262.5 468 l 1,16,-1
 262.5 536 l 1,17,-1
 630.5 536 l 1,0,-1
EndSplineSet
Substitution2: "Single Substitution lookup 105 subtable" uni0237
Substitution2: "Single Substitution lookup 104 subtable" uni0237
EndChar

StartChar: k
Encoding: 107 107 77
Width: 883
Flags: W
LayerCount: 2
Fore
SplineSet
308.5 363 m 2,0,1
 308.5 347 308.5 347 307 321 c 128,-1,2
 305.5 295 305.5 295 304.5 276 c 1,3,-1
 308.5 276 l 1,4,5
 314.5 284 314.5 284 326.5 299 c 128,-1,6
 338.5 314 338.5 314 351 329.5 c 128,-1,7
 363.5 345 363.5 345 372.5 355 c 2,8,-1
 543.5 536 l 1,9,-1
 646.5 536 l 1,10,-1
 429.5 307 l 1,11,-1
 661.5 0 l 1,12,-1
 555.5 0 l 1,13,-1
 369.5 250 l 1,14,-1
 308.5 197 l 1,15,-1
 308.5 0 l 1,16,-1
 221.5 0 l 1,17,-1
 221.5 760 l 1,18,-1
 308.5 760 l 1,19,-1
 308.5 363 l 2,0,1
EndSplineSet
EndChar

StartChar: l
Encoding: 108 108 78
Width: 883
Flags: W
LayerCount: 2
Fore
SplineSet
377 105 m 0,0,1
 306 105 306 105 253 133 c 128,-1,2
 200 161 200 161 171 213 c 128,-1,3
 142 265 142 265 142 337 c 0,4,5
 142 404 142 404 172 457.5 c 128,-1,6
 202 511 202 511 259 548 c 128,-1,7
 316 585 316 585 397 603 c 1,8,-1
 417 528 l 1,9,10
 324 509 324 509 274 462.5 c 128,-1,11
 224 416 224 416 224 333 c 0,12,13
 224 255 224 255 267 217 c 128,-1,14
 310 179 310 179 374 179 c 0,15,16
 406 179 406 179 431 184 c 128,-1,17
 456 189 456 189 478 199 c 1,18,-1
 509 132 l 1,19,20
 482 119 482 119 448.5 112 c 128,-1,21
 415 105 415 105 377 105 c 0,0,1
342 304 m 1,22,-1
 324 377 l 1,23,-1
 591 431 l 1,24,-1
 591 355 l 1,25,-1
 342 304 l 1,22,-1
723 0 m 2,26,27
 688 0 688 0 657.5 7.5 c 128,-1,28
 627 15 627 15 606 37 c 0,29,30
 587 57 587 57 581 81.5 c 128,-1,31
 575 106 575 106 575 148 c 2,32,-1
 575 603 l 1,33,-1
 655 592 l 1,34,-1
 655 152 l 2,35,36
 655 125 655 125 658 112.5 c 128,-1,37
 661 100 661 100 667 92 c 0,38,39
 678 78 678 78 699 75.5 c 128,-1,40
 720 73 720 73 741 73 c 1,41,-1
 733 0 l 1,42,-1
 723 0 l 2,26,27
EndSplineSet
EndChar

StartChar: m
Encoding: 109 109 79
Width: 883
Flags: W
LayerCount: 2
Fore
SplineSet
694.5 0 m 2,0,1
 651.5 0 651.5 0 623 9.5 c 128,-1,2
 594.5 19 594.5 19 577.5 37 c 0,3,4
 561.5 54 561.5 54 554 79 c 128,-1,5
 546.5 104 546.5 104 546.5 148 c 2,6,-1
 546.5 603 l 1,7,-1
 626.5 592 l 1,8,-1
 626.5 152 l 2,9,10
 626.5 125 626.5 125 629.5 112.5 c 128,-1,11
 632.5 100 632.5 100 638.5 92 c 0,12,13
 649.5 78 649.5 78 671 75.5 c 128,-1,14
 692.5 73 692.5 73 712.5 73 c 1,15,-1
 705.5 0 l 1,16,-1
 694.5 0 l 2,0,1
292.5 152 m 0,17,18
 272.5 152 272.5 152 252.5 163.5 c 128,-1,19
 232.5 175 232.5 175 215.5 193.5 c 128,-1,20
 198.5 212 198.5 212 188 233.5 c 128,-1,21
 177.5 255 177.5 255 177.5 274 c 0,22,23
 177.5 291 177.5 291 190.5 303.5 c 128,-1,24
 203.5 316 203.5 316 233.5 316 c 2,25,-1
 558.5 316 l 1,26,-1
 558.5 244 l 1,27,-1
 337.5 244 l 1,28,-1
 337.5 215 l 2,29,30
 337.5 181 337.5 181 323.5 166.5 c 128,-1,31
 309.5 152 309.5 152 292.5 152 c 0,17,18
257.5 300 m 1,32,-1
 257.5 440 l 2,33,34
 257.5 468 257.5 468 254.5 480 c 128,-1,35
 251.5 492 251.5 492 245.5 500 c 0,36,37
 235.5 514 235.5 514 213.5 517 c 128,-1,38
 191.5 520 191.5 520 170.5 520 c 1,39,-1
 178.5 592 l 1,40,-1
 189.5 592 l 2,41,42
 232.5 592 232.5 592 261 583 c 128,-1,43
 289.5 574 289.5 574 306.5 556 c 0,44,45
 317.5 545 317.5 545 324.5 530 c 128,-1,46
 331.5 515 331.5 515 334.5 494.5 c 128,-1,47
 337.5 474 337.5 474 337.5 444 c 2,48,-1
 337.5 300 l 1,49,-1
 257.5 300 l 1,32,-1
EndSplineSet
EndChar

StartChar: n
Encoding: 110 110 80
Width: 883
Flags: W
LayerCount: 2
Fore
SplineSet
680.5 0 m 2,0,1
 645.5 0 645.5 0 615 7.5 c 128,-1,2
 584.5 15 584.5 15 563.5 37 c 0,3,4
 544.5 57 544.5 57 538.5 81.5 c 128,-1,5
 532.5 106 532.5 106 532.5 148 c 2,6,-1
 532.5 603 l 1,7,-1
 612.5 592 l 1,8,-1
 612.5 152 l 2,9,10
 612.5 125 612.5 125 615.5 112.5 c 128,-1,11
 618.5 100 618.5 100 624.5 92 c 0,12,13
 635.5 78 635.5 78 656.5 75.5 c 128,-1,14
 677.5 73 677.5 73 698.5 73 c 1,15,-1
 690.5 0 l 1,16,-1
 680.5 0 l 2,0,1
300.5 214 m 0,17,18
 282.5 214 282.5 214 262 226.5 c 128,-1,19
 241.5 239 241.5 239 224 259 c 128,-1,20
 206.5 279 206.5 279 195.5 302.5 c 128,-1,21
 184.5 326 184.5 326 184.5 348 c 0,22,23
 184.5 371 184.5 371 198 385.5 c 128,-1,24
 211.5 400 211.5 400 244.5 400 c 2,25,-1
 568.5 400 l 1,26,-1
 568.5 328 l 1,27,-1
 351.5 328 l 1,28,-1
 351.5 271 l 2,29,30
 351.5 242 351.5 242 337.5 228 c 128,-1,31
 323.5 214 323.5 214 300.5 214 c 0,17,18
EndSplineSet
EndChar

StartChar: o
Encoding: 111 111 81
Width: 883
Flags: W
LayerCount: 2
Fore
SplineSet
689.5 269 m 0,0,1
 689.5 202 689.5 202 672 150.5 c 128,-1,2
 654.5 99 654.5 99 622 63 c 128,-1,3
 589.5 27 589.5 27 543 8.5 c 128,-1,4
 496.5 -10 496.5 -10 439.5 -10 c 0,5,6
 386.5 -10 386.5 -10 341.5 8.5 c 128,-1,7
 296.5 27 296.5 27 263.5 63 c 128,-1,8
 230.5 99 230.5 99 212 150.5 c 128,-1,9
 193.5 202 193.5 202 193.5 269 c 0,10,11
 193.5 358 193.5 358 223.5 419.5 c 128,-1,12
 253.5 481 253.5 481 309.5 513.5 c 128,-1,13
 365.5 546 365.5 546 442.5 546 c 0,14,15
 515.5 546 515.5 546 571 513.5 c 128,-1,16
 626.5 481 626.5 481 658 419.5 c 128,-1,17
 689.5 358 689.5 358 689.5 269 c 0,0,1
284.5 269 m 0,18,19
 284.5 206 284.5 206 301 159.5 c 128,-1,20
 317.5 113 317.5 113 352.5 88 c 128,-1,21
 387.5 63 387.5 63 441.5 63 c 256,22,23
 495.5 63 495.5 63 530.5 88 c 128,-1,24
 565.5 113 565.5 113 582 159.5 c 128,-1,25
 598.5 206 598.5 206 598.5 269 c 0,26,27
 598.5 333 598.5 333 581.5 378 c 128,-1,28
 564.5 423 564.5 423 530 447.5 c 128,-1,29
 495.5 472 495.5 472 440.5 472 c 0,30,31
 358.5 472 358.5 472 321.5 418 c 128,-1,32
 284.5 364 284.5 364 284.5 269 c 0,18,19
EndSplineSet
EndChar

StartChar: p
Encoding: 112 112 82
Width: 883
Flags: W
LayerCount: 2
Fore
SplineSet
422.5 161 m 0,0,1
 383.5 161 383.5 161 352.5 173 c 128,-1,2
 321.5 185 321.5 185 301.5 204 c 0,3,4
 276.5 229 276.5 229 264 262 c 128,-1,5
 251.5 295 251.5 295 251.5 350 c 2,6,-1
 251.5 440 l 2,7,8
 251.5 467 251.5 467 248.5 479.5 c 128,-1,9
 245.5 492 245.5 492 239.5 500 c 0,10,11
 229.5 514 229.5 514 207.5 516.5 c 128,-1,12
 185.5 519 185.5 519 164.5 519 c 1,13,-1
 172.5 592 l 1,14,-1
 182.5 592 l 2,15,16
 226.5 592 226.5 592 255 582.5 c 128,-1,17
 283.5 573 283.5 573 300.5 555 c 0,18,19
 317.5 538 317.5 538 324.5 513 c 128,-1,20
 331.5 488 331.5 488 331.5 443 c 2,21,-1
 331.5 357 l 2,22,23
 331.5 311 331.5 311 339.5 288.5 c 128,-1,24
 347.5 266 347.5 266 360.5 253 c 0,25,26
 371.5 243 371.5 243 389 238 c 128,-1,27
 406.5 233 406.5 233 430.5 233 c 0,28,29
 470.5 233 470.5 233 505.5 252.5 c 128,-1,30
 540.5 272 540.5 272 563.5 298 c 1,31,-1
 563.5 208 l 1,32,33
 535.5 187 535.5 187 501 174 c 128,-1,34
 466.5 161 466.5 161 422.5 161 c 0,0,1
700.5 0 m 2,35,36
 657.5 0 657.5 0 628.5 9.5 c 128,-1,37
 599.5 19 599.5 19 582.5 37 c 0,38,39
 566.5 54 566.5 54 559 79 c 128,-1,40
 551.5 104 551.5 104 551.5 148 c 2,41,-1
 551.5 603 l 1,42,-1
 631.5 592 l 1,43,-1
 631.5 152 l 2,44,45
 631.5 125 631.5 125 634.5 112.5 c 128,-1,46
 637.5 100 637.5 100 643.5 92 c 0,47,48
 654.5 78 654.5 78 676 75.5 c 128,-1,49
 697.5 73 697.5 73 718.5 73 c 1,50,-1
 710.5 0 l 1,51,-1
 700.5 0 l 2,35,36
EndSplineSet
EndChar

StartChar: q
Encoding: 113 113 83
Width: 883
Flags: W
AnchorPoint: "Anchor-1" 403.5 765 basechar 0
AnchorPoint: "Anchor-0" 403.5 0 basechar 0
LayerCount: 2
Fore
SplineSet
342.5 765 m 0,0,1
 361.5 765 361.5 765 379.5 761 c 128,-1,2
 397.5 757 397.5 757 407.5 752 c 1,3,-1
 407.5 679 l 1,4,5
 400.5 682 400.5 682 386.5 685.5 c 128,-1,6
 372.5 689 372.5 689 355.5 689 c 0,7,8
 333.5 689 333.5 689 321 676 c 128,-1,9
 308.5 663 308.5 663 308.5 631 c 2,10,-1
 308.5 363 l 2,11,12
 308.5 347 308.5 347 307.5 321 c 128,-1,13
 306.5 295 306.5 295 304.5 276 c 1,14,-1
 308.5 276 l 1,15,16
 314.5 285 314.5 285 326.5 299.5 c 128,-1,17
 338.5 314 338.5 314 351 329.5 c 128,-1,18
 363.5 345 363.5 345 372.5 355 c 2,19,-1
 543.5 536 l 1,20,-1
 646.5 536 l 1,21,-1
 429.5 307 l 1,22,-1
 661.5 0 l 1,23,-1
 555.5 0 l 1,24,-1
 369.5 250 l 1,25,-1
 308.5 197 l 1,26,-1
 308.5 0 l 1,27,-1
 221.5 0 l 1,28,-1
 221.5 625 l 2,29,30
 221.5 765 221.5 765 342.5 765 c 0,0,1
EndSplineSet
EndChar

StartChar: r
Encoding: 114 114 84
Width: 883
Flags: W
LayerCount: 2
Fore
SplineSet
535 546 m 0,0,1
 550 546 550 546 567.5 544.5 c 128,-1,2
 585 543 585 543 598 540 c 1,3,-1
 587 459 l 1,4,5
 574 462 574 462 558.5 464 c 128,-1,6
 543 466 543 466 529 466 c 0,7,8
 498 466 498 466 470 453 c 128,-1,9
 442 440 442 440 420 416.5 c 128,-1,10
 398 393 398 393 385.5 360 c 128,-1,11
 373 327 373 327 373 286 c 2,12,-1
 373 0 l 1,13,-1
 285 0 l 1,14,-1
 285 536 l 1,15,-1
 357 536 l 1,16,-1
 367 438 l 1,17,-1
 371 438 l 1,18,19
 388 468 388 468 412 492.5 c 128,-1,20
 436 517 436 517 467 531.5 c 128,-1,21
 498 546 498 546 535 546 c 0,0,1
EndSplineSet
EndChar

StartChar: s
Encoding: 115 115 85
Width: 883
Flags: W
LayerCount: 2
Fore
SplineSet
488.5 0 m 2,0,1
 432.5 0 432.5 0 388 20.5 c 128,-1,2
 343.5 41 343.5 41 308 74 c 128,-1,3
 272.5 107 272.5 107 244 146.5 c 128,-1,4
 215.5 186 215.5 186 191.5 225 c 1,5,-1
 202.5 265 l 1,6,7
 245.5 270 245.5 270 285 287.5 c 128,-1,8
 324.5 305 324.5 305 350 337 c 128,-1,9
 375.5 369 375.5 369 375.5 416 c 0,10,11
 375.5 472 375.5 472 343.5 501 c 128,-1,12
 311.5 530 311.5 530 258.5 530 c 0,13,14
 224.5 530 224.5 530 195 523 c 128,-1,15
 165.5 516 165.5 516 130.5 499 c 1,16,-1
 104.5 568 l 1,17,18
 141.5 584 141.5 584 181.5 593.5 c 128,-1,19
 221.5 603 221.5 603 261.5 603 c 0,20,21
 320.5 603 320.5 603 364 582 c 128,-1,22
 407.5 561 407.5 561 432 520 c 128,-1,23
 456.5 479 456.5 479 456.5 418 c 0,24,25
 456.5 364 456.5 364 434 321.5 c 128,-1,26
 411.5 279 411.5 279 374 249 c 128,-1,27
 336.5 219 336.5 219 290 203.5 c 128,-1,28
 243.5 188 243.5 188 196.5 188 c 0,29,30
 150.5 188 150.5 188 127.5 202.5 c 128,-1,31
 104.5 217 104.5 217 104.5 249 c 0,32,33
 104.5 274 104.5 274 121.5 287.5 c 128,-1,34
 138.5 301 138.5 301 165.5 301 c 0,35,36
 191.5 301 191.5 301 216 290 c 128,-1,37
 240.5 279 240.5 279 274.5 246 c 1,38,-1
 261.5 246 l 1,39,40
 308.5 178 308.5 178 345 140.5 c 128,-1,41
 381.5 103 381.5 103 417.5 89 c 128,-1,42
 453.5 75 453.5 75 497.5 75 c 2,43,-1
 511.5 75 l 1,44,-1
 502.5 0 l 1,45,-1
 488.5 0 l 2,0,1
510.5 286 m 0,46,47
 477.5 286 477.5 286 446 294 c 128,-1,48
 414.5 302 414.5 302 391.5 318 c 1,49,-1
 400.5 389 l 1,50,51
 421.5 376 421.5 376 449 366.5 c 128,-1,52
 476.5 357 476.5 357 507.5 357 c 0,53,54
 551.5 357 551.5 357 579 367 c 128,-1,55
 606.5 377 606.5 377 637.5 400 c 1,56,-1
 652.5 329 l 1,57,58
 623.5 309 623.5 309 592 297.5 c 128,-1,59
 560.5 286 560.5 286 510.5 286 c 0,46,47
760.5 0 m 2,60,61
 725.5 0 725.5 0 695 7.5 c 128,-1,62
 664.5 15 664.5 15 643.5 37 c 0,63,64
 624.5 57 624.5 57 618.5 81.5 c 128,-1,65
 612.5 106 612.5 106 612.5 148 c 2,66,-1
 612.5 603 l 1,67,-1
 692.5 592 l 1,68,-1
 692.5 152 l 2,69,70
 692.5 125 692.5 125 695.5 112.5 c 128,-1,71
 698.5 100 698.5 100 704.5 92 c 0,72,73
 715.5 78 715.5 78 736.5 75.5 c 128,-1,74
 757.5 73 757.5 73 778.5 73 c 1,75,-1
 770.5 0 l 1,76,-1
 760.5 0 l 2,60,61
EndSplineSet
EndChar

StartChar: t
Encoding: 116 116 86
Width: 883
Flags: W
AnchorPoint: "Anchor-3" 386.5 603 basechar 0
AnchorPoint: "Anchor-2" 411.5 0 basechar 0
AnchorPoint: "Anchor-1" 459.5 0 basechar 0
AnchorPoint: "Anchor-0" 465.5 603 basechar 0
LayerCount: 2
Fore
SplineSet
440.5 -10 m 0,0,1
 376.5 -10 376.5 -10 331 11.5 c 128,-1,2
 285.5 33 285.5 33 261.5 71.5 c 128,-1,3
 237.5 110 237.5 110 237.5 162 c 0,4,5
 237.5 230 237.5 230 280.5 274.5 c 128,-1,6
 323.5 319 323.5 319 399.5 359 c 0,7,8
 440.5 381 440.5 381 466 397 c 128,-1,9
 491.5 413 491.5 413 503 429 c 128,-1,10
 514.5 445 514.5 445 514.5 467 c 0,11,12
 514.5 501 514.5 501 490.5 515.5 c 128,-1,13
 466.5 530 466.5 530 428.5 530 c 0,14,15
 393.5 530 393.5 530 364 524 c 128,-1,16
 334.5 518 334.5 518 304.5 504 c 1,17,-1
 279.5 572 l 1,18,19
 312.5 586 312.5 586 350 594.5 c 128,-1,20
 387.5 603 387.5 603 430.5 603 c 0,21,22
 486.5 603 486.5 603 522.5 586 c 128,-1,23
 558.5 569 558.5 569 576.5 538.5 c 128,-1,24
 594.5 508 594.5 508 594.5 469 c 0,25,26
 594.5 427 594.5 427 577.5 398.5 c 128,-1,27
 560.5 370 560.5 370 532 348.5 c 128,-1,28
 503.5 327 503.5 327 466.5 307 c 0,29,30
 411.5 277 411.5 277 379.5 254.5 c 128,-1,31
 347.5 232 347.5 232 334 209 c 128,-1,32
 320.5 186 320.5 186 320.5 154 c 0,33,34
 320.5 114 320.5 114 352.5 88.5 c 128,-1,35
 384.5 63 384.5 63 442.5 63 c 0,36,37
 490.5 63 490.5 63 529.5 76.5 c 128,-1,38
 568.5 90 568.5 90 608.5 115 c 1,39,-1
 645.5 44 l 1,40,41
 598.5 18 598.5 18 552 4 c 128,-1,42
 505.5 -10 505.5 -10 440.5 -10 c 0,0,1
EndSplineSet
EndChar

StartChar: u
Encoding: 117 117 87
Width: 883
Flags: W
LayerCount: 2
Fore
SplineSet
668.5 536 m 1,0,-1
 668.5 0 l 1,1,-1
 596.5 0 l 1,2,-1
 583.5 71 l 1,3,-1
 579.5 71 l 1,4,5
 562.5 43 562.5 43 535.5 25 c 128,-1,6
 508.5 7 508.5 7 476.5 -1.5 c 128,-1,7
 444.5 -10 444.5 -10 409.5 -10 c 0,8,9
 345.5 -10 345.5 -10 302 10.5 c 128,-1,10
 258.5 31 258.5 31 236.5 74 c 128,-1,11
 214.5 117 214.5 117 214.5 185 c 2,12,-1
 214.5 536 l 1,13,-1
 303.5 536 l 1,14,-1
 303.5 191 l 2,15,16
 303.5 127 303.5 127 332.5 95 c 128,-1,17
 361.5 63 361.5 63 422.5 63 c 0,18,19
 482.5 63 482.5 63 517 85.5 c 128,-1,20
 551.5 108 551.5 108 566 151.5 c 128,-1,21
 580.5 195 580.5 195 580.5 257 c 2,22,-1
 580.5 536 l 1,23,-1
 668.5 536 l 1,0,-1
EndSplineSet
EndChar

StartChar: v
Encoding: 118 118 88
Width: 883
Flags: W
LayerCount: 2
Fore
SplineSet
390.5 0 m 1,0,-1
 187.5 536 l 1,1,-1
 281.5 536 l 1,2,-1
 395.5 220 l 2,3,4
 403.5 198 403.5 198 412.5 171 c 128,-1,5
 421.5 144 421.5 144 428.5 119.5 c 128,-1,6
 435.5 95 435.5 95 438.5 78 c 1,7,-1
 442.5 78 l 1,8,9
 446.5 95 446.5 95 454 120 c 128,-1,10
 461.5 145 461.5 145 471 172 c 128,-1,11
 480.5 199 480.5 199 487.5 220 c 2,12,-1
 601.5 536 l 1,13,-1
 695.5 536 l 1,14,-1
 491.5 0 l 1,15,-1
 390.5 0 l 1,0,-1
EndSplineSet
EndChar

StartChar: w
Encoding: 119 119 89
Width: 883
Flags: W
AnchorPoint: "Anchor-1" 432 536 basechar 0
AnchorPoint: "Anchor-0" 431 0 basechar 0
LayerCount: 2
Fore
SplineSet
371 766 m 5,0,1
 382 744 382 744 398.5 716.5 c 132,-1,2
 415 689 415 689 433.5 663 c 132,-1,3
 452 637 452 637 467 618 c 5,4,-1
 467 606 l 5,5,-1
 408 606 l 5,6,7
 391 620 391 620 370 639.5 c 132,-1,8
 349 659 349 659 328.5 680.5 c 132,-1,9
 308 702 308 702 291.5 722 c 132,-1,10
 275 742 275 742 266 756 c 5,11,-1
 266 766 l 5,12,-1
 371 766 l 5,0,1
669 541 m 0,13,14
 681 541 681 541 691 539 c 128,-1,15
 701 537 701 537 710 535 c 1,16,-1
 710 467 l 1,17,18
 697 472 697 472 676 472 c 0,19,20
 654 472 654 472 640 452 c 128,-1,21
 626 432 626 432 612 390 c 2,22,-1
 489 0 l 1,23,-1
 372 0 l 1,24,-1
 173 536 l 1,25,-1
 265 536 l 1,26,-1
 392 181 l 2,27,28
 407 139 407 139 417 107.5 c 128,-1,29
 427 76 427 76 429 62 c 1,30,-1
 433 62 l 1,31,32
 437 83 437 83 445 119 c 128,-1,33
 453 155 453 155 464 189 c 2,34,-1
 534 407 l 2,35,36
 551 459 551 459 567.5 488 c 128,-1,37
 584 517 584 517 607.5 529 c 128,-1,38
 631 541 631 541 669 541 c 0,13,14
EndSplineSet
EndChar

StartChar: x
Encoding: 120 120 90
Width: 883
Flags: W
LayerCount: 2
Fore
SplineSet
389 274 m 1,0,-1
 204 536 l 1,1,-1
 304 536 l 1,2,-1
 442 334 l 1,3,-1
 579 536 l 1,4,-1
 678 536 l 1,5,-1
 493 274 l 1,6,-1
 688 0 l 1,7,-1
 588 0 l 1,8,-1
 442 214 l 1,9,-1
 294 0 l 1,10,-1
 195 0 l 1,11,-1
 389 274 l 1,0,-1
EndSplineSet
EndChar

StartChar: y
Encoding: 121 121 91
Width: 883
Flags: W
LayerCount: 2
Fore
SplineSet
412.5 161 m 0,0,1
 355.5 161 355.5 161 311.5 182 c 128,-1,2
 267.5 203 267.5 203 236 241.5 c 128,-1,3
 204.5 280 204.5 280 184.5 333 c 1,4,5
 244.5 350 244.5 350 280 378 c 128,-1,6
 315.5 406 315.5 406 315.5 452 c 0,7,8
 315.5 489 315.5 489 291 510 c 128,-1,9
 266.5 531 266.5 531 224.5 531 c 0,10,11
 206.5 531 206.5 531 196 529.5 c 128,-1,12
 185.5 528 185.5 528 173.5 526 c 1,13,-1
 155.5 594 l 1,14,15
 166.5 597 166.5 597 184 600 c 128,-1,16
 201.5 603 201.5 603 229.5 603 c 0,17,18
 280.5 603 280.5 603 318 585.5 c 128,-1,19
 355.5 568 355.5 568 376 534.5 c 128,-1,20
 396.5 501 396.5 501 396.5 453 c 0,21,22
 396.5 393 396.5 393 361 353 c 128,-1,23
 325.5 313 325.5 313 266.5 290 c 1,24,-1
 283.5 309 l 1,25,26
 296.5 279 296.5 279 329.5 256 c 128,-1,27
 362.5 233 362.5 233 410.5 233 c 0,28,29
 462.5 233 462.5 233 500 253 c 128,-1,30
 537.5 273 537.5 273 562.5 300 c 1,31,-1
 562.5 209 l 1,32,33
 534.5 188 534.5 188 499.5 174.5 c 128,-1,34
 464.5 161 464.5 161 412.5 161 c 0,0,1
709.5 0 m 2,35,36
 666.5 0 666.5 0 638.5 9.5 c 128,-1,37
 610.5 19 610.5 19 592.5 37 c 0,38,39
 575.5 54 575.5 54 568 79 c 128,-1,40
 560.5 104 560.5 104 560.5 148 c 2,41,-1
 560.5 603 l 1,42,-1
 640.5 593 l 1,43,-1
 640.5 152 l 2,44,45
 640.5 124 640.5 124 643.5 112 c 128,-1,46
 646.5 100 646.5 100 655.5 90 c 0,47,48
 666.5 77 666.5 77 686 75 c 128,-1,49
 705.5 73 705.5 73 727.5 73 c 1,50,-1
 719.5 0 l 1,51,-1
 709.5 0 l 2,35,36
EndSplineSet
EndChar

StartChar: z
Encoding: 122 122 92
Width: 883
Flags: W
LayerCount: 2
Fore
SplineSet
637.5 0 m 1,0,-1
 245.5 0 l 1,1,-1
 245.5 58 l 1,2,-1
 533.5 468 l 1,3,-1
 262.5 468 l 1,4,-1
 262.5 536 l 1,5,-1
 630.5 536 l 1,6,-1
 630.5 470 l 1,7,-1
 346.5 68 l 1,8,-1
 637.5 68 l 1,9,-1
 637.5 0 l 1,0,-1
EndSplineSet
EndChar

StartChar: at
Encoding: 64 64 93
Width: 883
Flags: W
LayerCount: 2
Fore
SplineSet
833 357 m 0,0,1
 833 311 833 311 822.5 267 c 128,-1,2
 812 223 812 223 790 187.5 c 128,-1,3
 768 152 768 152 736 130.5 c 128,-1,4
 704 109 704 109 660 109 c 0,5,6
 614 109 614 109 587.5 135.5 c 128,-1,7
 561 162 561 162 555 196 c 1,8,-1
 550 196 l 1,9,10
 532 159 532 159 497 134 c 128,-1,11
 462 109 462 109 409 109 c 0,12,13
 333 109 333 109 291.5 160 c 128,-1,14
 250 211 250 211 250 295 c 0,15,16
 250 361 250 361 276 411.5 c 128,-1,17
 302 462 302 462 349.5 491 c 128,-1,18
 397 520 397 520 462 520 c 0,19,20
 506 520 506 520 548.5 512.5 c 128,-1,21
 591 505 591 505 615 496 c 1,22,-1
 605 293 l 2,23,24
 604 275 604 275 604 267.5 c 128,-1,25
 604 260 604 260 604 257 c 0,26,27
 604 205 604 205 622.5 188 c 128,-1,28
 641 171 641 171 666 171 c 0,29,30
 697 171 697 171 718.5 196.5 c 128,-1,31
 740 222 740 222 751.5 264.5 c 128,-1,32
 763 307 763 307 763 358 c 0,33,34
 763 451 763 451 725.5 515.5 c 128,-1,35
 688 580 688 580 622.5 614 c 128,-1,36
 557 648 557 648 474 648 c 0,37,38
 389 648 389 648 323 621 c 128,-1,39
 257 594 257 594 212.5 545 c 128,-1,40
 168 496 168 496 145 429.5 c 128,-1,41
 122 363 122 363 122 283 c 0,42,43
 122 185 122 185 157 116.5 c 128,-1,44
 192 48 192 48 259.5 12.5 c 128,-1,45
 327 -23 327 -23 425 -23 c 0,46,47
 486 -23 486 -23 541.5 -9.5 c 128,-1,48
 597 4 597 4 640 20 c 1,49,-1
 640 -48 l 1,50,51
 597 -66 597 -66 543.5 -77.5 c 128,-1,52
 490 -89 490 -89 425 -89 c 0,53,54
 307 -89 307 -89 223 -45 c 128,-1,55
 139 -1 139 -1 94.5 81.5 c 128,-1,56
 50 164 50 164 50 280 c 0,57,58
 50 373 50 373 79 452.5 c 128,-1,59
 108 532 108 532 163 590.5 c 128,-1,60
 218 649 218 649 296.5 681.5 c 128,-1,61
 375 714 375 714 474 714 c 0,62,63
 552 714 552 714 617.5 689.5 c 128,-1,64
 683 665 683 665 731.5 618.5 c 128,-1,65
 780 572 780 572 806.5 506 c 128,-1,66
 833 440 833 440 833 357 c 0,0,1
328 293 m 0,67,68
 328 229 328 229 353.5 200 c 128,-1,69
 379 171 379 171 422 171 c 0,70,71
 478 171 478 171 502.5 213 c 128,-1,72
 527 255 527 255 531 322 c 2,73,-1
 537 447 l 1,74,75
 524 451 524 451 504 454 c 128,-1,76
 484 457 484 457 463 457 c 0,77,78
 414 457 414 457 384 433 c 128,-1,79
 354 409 354 409 341 371.5 c 128,-1,80
 328 334 328 334 328 293 c 0,67,68
EndSplineSet
EndChar

StartChar: ampersand
Encoding: 38 38 94
Width: 883
Flags: W
LayerCount: 2
Fore
SplineSet
354 725 m 0,0,1
 408 725 408 725 446.5 706.5 c 128,-1,2
 485 688 485 688 506 654 c 128,-1,3
 527 620 527 620 527 571 c 0,4,5
 527 508 527 508 486.5 464 c 128,-1,6
 446 420 446 420 384 384 c 1,7,-1
 577 198 l 1,8,9
 603 229 603 229 619.5 269.5 c 128,-1,10
 636 310 636 310 647 357 c 1,11,-1
 736 357 l 1,12,13
 720 293 720 293 696 238 c 128,-1,14
 672 183 672 183 634 142 c 1,15,-1
 780 0 l 1,16,-1
 661 0 l 1,17,-1
 574 84 l 1,18,19
 543 56 543 56 507 35 c 128,-1,20
 471 14 471 14 427.5 2 c 128,-1,21
 384 -10 384 -10 328 -10 c 0,22,23
 259 -10 259 -10 208.5 12.5 c 128,-1,24
 158 35 158 35 130.5 79 c 128,-1,25
 103 123 103 123 103 186 c 0,26,27
 103 237 103 237 121.5 274 c 128,-1,28
 140 311 140 311 175 340 c 128,-1,29
 210 369 210 369 257 396 c 1,30,31
 236 420 236 420 216 446 c 128,-1,32
 196 472 196 472 183 502.5 c 128,-1,33
 170 533 170 533 170 569 c 0,34,35
 170 618 170 618 192 653 c 128,-1,36
 214 688 214 688 255.5 706.5 c 128,-1,37
 297 725 297 725 354 725 c 0,0,1
310 341 m 1,38,39
 274 320 274 320 248.5 298.5 c 128,-1,40
 223 277 223 277 209 251 c 128,-1,41
 195 225 195 225 195 189 c 0,42,43
 195 134 195 134 232 101 c 128,-1,44
 269 68 269 68 331 68 c 0,45,46
 395 68 395 68 441 89 c 128,-1,47
 487 110 487 110 518 139 c 1,48,-1
 310 341 l 1,38,39
351 653 m 0,49,50
 309 653 309 653 282.5 631 c 128,-1,51
 256 609 256 609 256 570 c 0,52,53
 256 534 256 534 275 503.5 c 128,-1,54
 294 473 294 473 330 436 c 1,55,56
 389 470 389 470 414.5 500.5 c 128,-1,57
 440 531 440 531 440 571 c 0,58,59
 440 607 440 607 416 630 c 128,-1,60
 392 653 392 653 351 653 c 0,49,50
EndSplineSet
EndChar

StartChar: dollar
Encoding: 36 36 95
Width: 883
Flags: W
LayerCount: 2
Fore
SplineSet
405.5 49 m 1,0,1
 350.5 50 350.5 50 298.5 58.5 c 128,-1,2
 246.5 67 246.5 67 214.5 82 c 1,3,-1
 214.5 167 l 1,4,5
 248.5 151 248.5 151 301.5 139 c 128,-1,6
 354.5 127 354.5 127 405.5 126 c 1,7,-1
 405.5 328 l 1,8,9
 339.5 346 339.5 346 297.5 369.5 c 128,-1,10
 255.5 393 255.5 393 235 427 c 128,-1,11
 214.5 461 214.5 461 214.5 508 c 0,12,13
 214.5 557 214.5 557 238 592 c 128,-1,14
 261.5 627 261.5 627 304.5 647.5 c 128,-1,15
 347.5 668 347.5 668 405.5 671 c 1,16,-1
 405.5 759 l 1,17,-1
 469.5 759 l 1,18,-1
 469.5 672 l 1,19,20
 522.5 671 522.5 671 566 660.5 c 128,-1,21
 609.5 650 609.5 650 645.5 635 c 1,22,-1
 618.5 561 l 1,23,24
 586.5 574 586.5 574 548 583.5 c 128,-1,25
 509.5 593 509.5 593 469.5 596 c 1,26,-1
 469.5 395 l 1,27,28
 535.5 376 535.5 376 579.5 354.5 c 128,-1,29
 623.5 333 623.5 333 646 301.5 c 128,-1,30
 668.5 270 668.5 270 668.5 220 c 0,31,32
 668.5 150 668.5 150 616.5 106.5 c 128,-1,33
 564.5 63 564.5 63 469.5 53 c 1,34,-1
 469.5 -58 l 1,35,-1
 405.5 -58 l 1,36,-1
 405.5 49 l 1,0,1
469.5 131 m 1,37,38
 528.5 137 528.5 137 555.5 158.5 c 128,-1,39
 582.5 180 582.5 180 582.5 214 c 0,40,41
 582.5 239 582.5 239 572.5 255.5 c 128,-1,42
 562.5 272 562.5 272 538 284 c 128,-1,43
 513.5 296 513.5 296 469.5 307 c 1,44,-1
 469.5 131 l 1,37,38
405.5 594 m 1,45,46
 369.5 592 369.5 592 346.5 581.5 c 128,-1,47
 323.5 571 323.5 571 312 554 c 128,-1,48
 300.5 537 300.5 537 300.5 515 c 0,49,50
 300.5 489 300.5 489 310 470.5 c 128,-1,51
 319.5 452 319.5 452 342.5 439.5 c 128,-1,52
 365.5 427 365.5 427 405.5 417 c 1,53,-1
 405.5 594 l 1,45,46
EndSplineSet
EndChar

StartChar: grave
Encoding: 96 96 96
Width: 883
Flags: W
LayerCount: 2
Fore
SplineSet
446 766 m 1,0,1
 457 744 457 744 473.5 716.5 c 128,-1,2
 490 689 490 689 508.5 663 c 128,-1,3
 527 637 527 637 542 618 c 1,4,-1
 542 606 l 1,5,-1
 483 606 l 1,6,7
 466 620 466 620 445 639.5 c 128,-1,8
 424 659 424 659 403.5 680.5 c 128,-1,9
 383 702 383 702 366.5 722 c 128,-1,10
 350 742 350 742 341 756 c 1,11,-1
 341 766 l 1,12,-1
 446 766 l 1,0,1
EndSplineSet
EndChar

StartChar: uni0080
Encoding: 128 128 97
Width: 883
Flags: W
LayerCount: 2
Fore
SplineSet
236 85 m 0,0,1
 236 103 236 103 251.5 118 c 128,-1,2
 267 133 267 133 295 144.5 c 128,-1,3
 323 156 323 156 360.5 162.5 c 128,-1,4
 398 169 398 169 441 169 c 0,5,6
 485 169 485 169 522.5 162.5 c 128,-1,7
 560 156 560 156 587.5 144.5 c 128,-1,8
 615 133 615 133 631 118 c 128,-1,9
 647 103 647 103 647 85 c 0,10,11
 647 68 647 68 631 53 c 128,-1,12
 615 38 615 38 587.5 27 c 128,-1,13
 560 16 560 16 522.5 9.5 c 128,-1,14
 485 3 485 3 441 3 c 0,15,16
 398 3 398 3 360.5 9.5 c 128,-1,17
 323 16 323 16 295 27 c 128,-1,18
 267 38 267 38 251.5 53 c 128,-1,19
 236 68 236 68 236 85 c 0,0,1
316 85 m 256,20,21
 316 74 316 74 325.5 64.5 c 128,-1,22
 335 55 335 55 352 48.5 c 128,-1,23
 369 42 369 42 392 38 c 128,-1,24
 415 34 415 34 441 34 c 0,25,26
 468 34 468 34 490.5 38 c 128,-1,27
 513 42 513 42 530 48.5 c 128,-1,28
 547 55 547 55 556.5 64.5 c 128,-1,29
 566 74 566 74 566 85 c 256,30,31
 566 96 566 96 556.5 105.5 c 128,-1,32
 547 115 547 115 530 122 c 128,-1,33
 513 129 513 129 490.5 133 c 128,-1,34
 468 137 468 137 441 137 c 0,35,36
 415 137 415 137 392 133 c 128,-1,37
 369 129 369 129 352 122 c 128,-1,38
 335 115 335 115 325.5 105.5 c 128,-1,39
 316 96 316 96 316 85 c 256,20,21
236 272 m 0,40,41
 236 290 236 290 251.5 305 c 128,-1,42
 267 320 267 320 295 331.5 c 128,-1,43
 323 343 323 343 360.5 349 c 128,-1,44
 398 355 398 355 441 355 c 0,45,46
 485 355 485 355 522.5 349 c 128,-1,47
 560 343 560 343 587.5 331.5 c 128,-1,48
 615 320 615 320 631 305 c 128,-1,49
 647 290 647 290 647 272 c 0,50,51
 647 255 647 255 631 240 c 128,-1,52
 615 225 615 225 587.5 214 c 128,-1,53
 560 203 560 203 522.5 196 c 128,-1,54
 485 189 485 189 441 189 c 0,55,56
 398 189 398 189 360.5 196 c 128,-1,57
 323 203 323 203 295 214 c 128,-1,58
 267 225 267 225 251.5 240 c 128,-1,59
 236 255 236 255 236 272 c 0,40,41
316 272 m 256,60,61
 316 261 316 261 325.5 251.5 c 128,-1,62
 335 242 335 242 352 235 c 128,-1,63
 369 228 369 228 392 224 c 128,-1,64
 415 220 415 220 441 220 c 0,65,66
 468 220 468 220 490.5 224 c 128,-1,67
 513 228 513 228 530 235 c 128,-1,68
 547 242 547 242 556.5 251.5 c 128,-1,69
 566 261 566 261 566 272 c 256,70,71
 566 283 566 283 556.5 292.5 c 128,-1,72
 547 302 547 302 530 309 c 128,-1,73
 513 316 513 316 490.5 320 c 128,-1,74
 468 324 468 324 441 324 c 0,75,76
 415 324 415 324 392 320 c 128,-1,77
 369 316 369 316 352 309 c 128,-1,78
 335 302 335 302 325.5 292.5 c 128,-1,79
 316 283 316 283 316 272 c 256,60,61
236 461 m 256,80,81
 236 478 236 478 251.5 493.5 c 128,-1,82
 267 509 267 509 295 520 c 128,-1,83
 323 531 323 531 360.5 537.5 c 128,-1,84
 398 544 398 544 441 544 c 0,85,86
 485 544 485 544 522.5 537.5 c 128,-1,87
 560 531 560 531 587.5 520 c 128,-1,88
 615 509 615 509 631 493.5 c 128,-1,89
 647 478 647 478 647 461 c 256,90,91
 647 444 647 444 631 429 c 128,-1,92
 615 414 615 414 587.5 402.5 c 128,-1,93
 560 391 560 391 522.5 384.5 c 128,-1,94
 485 378 485 378 441 378 c 0,95,96
 398 378 398 378 360.5 384.5 c 128,-1,97
 323 391 323 391 295 402.5 c 128,-1,98
 267 414 267 414 251.5 429 c 128,-1,99
 236 444 236 444 236 461 c 256,80,81
316 461 m 256,100,101
 316 450 316 450 325.5 440.5 c 128,-1,102
 335 431 335 431 352 424 c 128,-1,103
 369 417 369 417 392 413 c 128,-1,104
 415 409 415 409 441 409 c 0,105,106
 468 409 468 409 490.5 413 c 128,-1,107
 513 417 513 417 530 424 c 128,-1,108
 547 431 547 431 556.5 440.5 c 128,-1,109
 566 450 566 450 566 461 c 256,110,111
 566 472 566 472 556.5 481.5 c 128,-1,112
 547 491 547 491 530 498 c 128,-1,113
 513 505 513 505 490.5 509 c 128,-1,114
 468 513 468 513 441 513 c 0,115,116
 415 513 415 513 392 509 c 128,-1,117
 369 505 369 505 352 498 c 128,-1,118
 335 491 335 491 325.5 481.5 c 128,-1,119
 316 472 316 472 316 461 c 256,100,101
236 648 m 256,120,121
 236 665 236 665 251.5 680.5 c 128,-1,122
 267 696 267 696 295 707 c 128,-1,123
 323 718 323 718 360.5 724.5 c 128,-1,124
 398 731 398 731 441 731 c 0,125,126
 485 731 485 731 522.5 724.5 c 128,-1,127
 560 718 560 718 587.5 707 c 128,-1,128
 615 696 615 696 631 680.5 c 128,-1,129
 647 665 647 665 647 648 c 256,130,131
 647 631 647 631 631 616 c 128,-1,132
 615 601 615 601 587.5 589.5 c 128,-1,133
 560 578 560 578 522.5 571.5 c 128,-1,134
 485 565 485 565 441 565 c 0,135,136
 398 565 398 565 360.5 571.5 c 128,-1,137
 323 578 323 578 295 589.5 c 128,-1,138
 267 601 267 601 251.5 616 c 128,-1,139
 236 631 236 631 236 648 c 256,120,121
316 648 m 0,140,141
 316 637 316 637 325.5 627.5 c 128,-1,142
 335 618 335 618 352 611 c 128,-1,143
 369 604 369 604 392 600 c 128,-1,144
 415 596 415 596 441 596 c 0,145,146
 468 596 468 596 490.5 600 c 128,-1,147
 513 604 513 604 530 611 c 128,-1,148
 547 618 547 618 556.5 627.5 c 128,-1,149
 566 637 566 637 566 648 c 0,150,151
 566 658 566 658 556.5 668 c 128,-1,152
 547 678 547 678 530 685 c 128,-1,153
 513 692 513 692 490.5 696 c 128,-1,154
 468 700 468 700 441 700 c 0,155,156
 415 700 415 700 392 696 c 128,-1,157
 369 692 369 692 352 685 c 128,-1,158
 335 678 335 678 325.5 668 c 128,-1,159
 316 658 316 658 316 648 c 0,140,141
EndSplineSet
EndChar

StartChar: uni0081
Encoding: 129 129 98
Width: 883
Flags: W
LayerCount: 2
Fore
SplineSet
236 85 m 0,0,1
 236 103 236 103 251.5 118 c 128,-1,2
 267 133 267 133 295 144.5 c 128,-1,3
 323 156 323 156 360.5 162.5 c 128,-1,4
 398 169 398 169 441 169 c 0,5,6
 485 169 485 169 522.5 162.5 c 128,-1,7
 560 156 560 156 587.5 144.5 c 128,-1,8
 615 133 615 133 631 118 c 128,-1,9
 647 103 647 103 647 85 c 0,10,11
 647 68 647 68 631 53 c 128,-1,12
 615 38 615 38 587.5 27 c 128,-1,13
 560 16 560 16 522.5 9.5 c 128,-1,14
 485 3 485 3 441 3 c 0,15,16
 398 3 398 3 360.5 9.5 c 128,-1,17
 323 16 323 16 295 27 c 128,-1,18
 267 38 267 38 251.5 53 c 128,-1,19
 236 68 236 68 236 85 c 0,0,1
236 272 m 0,20,21
 236 290 236 290 251.5 305 c 128,-1,22
 267 320 267 320 295 331.5 c 128,-1,23
 323 343 323 343 360.5 349 c 128,-1,24
 398 355 398 355 441 355 c 0,25,26
 485 355 485 355 522.5 349 c 128,-1,27
 560 343 560 343 587.5 331.5 c 128,-1,28
 615 320 615 320 631 305 c 128,-1,29
 647 290 647 290 647 272 c 0,30,31
 647 255 647 255 631 240 c 128,-1,32
 615 225 615 225 587.5 214 c 128,-1,33
 560 203 560 203 522.5 196 c 128,-1,34
 485 189 485 189 441 189 c 0,35,36
 398 189 398 189 360.5 196 c 128,-1,37
 323 203 323 203 295 214 c 128,-1,38
 267 225 267 225 251.5 240 c 128,-1,39
 236 255 236 255 236 272 c 0,20,21
316 272 m 256,40,41
 316 261 316 261 325.5 251.5 c 128,-1,42
 335 242 335 242 352 235 c 128,-1,43
 369 228 369 228 392 224 c 128,-1,44
 415 220 415 220 441 220 c 0,45,46
 468 220 468 220 490.5 224 c 128,-1,47
 513 228 513 228 530 235 c 128,-1,48
 547 242 547 242 556.5 251.5 c 128,-1,49
 566 261 566 261 566 272 c 256,50,51
 566 283 566 283 556.5 292.5 c 128,-1,52
 547 302 547 302 530 309 c 128,-1,53
 513 316 513 316 490.5 320 c 128,-1,54
 468 324 468 324 441 324 c 0,55,56
 415 324 415 324 392 320 c 128,-1,57
 369 316 369 316 352 309 c 128,-1,58
 335 302 335 302 325.5 292.5 c 128,-1,59
 316 283 316 283 316 272 c 256,40,41
236 461 m 256,60,61
 236 478 236 478 251.5 493.5 c 128,-1,62
 267 509 267 509 295 520 c 128,-1,63
 323 531 323 531 360.5 537.5 c 128,-1,64
 398 544 398 544 441 544 c 0,65,66
 485 544 485 544 522.5 537.5 c 128,-1,67
 560 531 560 531 587.5 520 c 128,-1,68
 615 509 615 509 631 493.5 c 128,-1,69
 647 478 647 478 647 461 c 256,70,71
 647 444 647 444 631 429 c 128,-1,72
 615 414 615 414 587.5 402.5 c 128,-1,73
 560 391 560 391 522.5 384.5 c 128,-1,74
 485 378 485 378 441 378 c 0,75,76
 398 378 398 378 360.5 384.5 c 128,-1,77
 323 391 323 391 295 402.5 c 128,-1,78
 267 414 267 414 251.5 429 c 128,-1,79
 236 444 236 444 236 461 c 256,60,61
316 461 m 256,80,81
 316 450 316 450 325.5 440.5 c 128,-1,82
 335 431 335 431 352 424 c 128,-1,83
 369 417 369 417 392 413 c 128,-1,84
 415 409 415 409 441 409 c 0,85,86
 468 409 468 409 490.5 413 c 128,-1,87
 513 417 513 417 530 424 c 128,-1,88
 547 431 547 431 556.5 440.5 c 128,-1,89
 566 450 566 450 566 461 c 256,90,91
 566 472 566 472 556.5 481.5 c 128,-1,92
 547 491 547 491 530 498 c 128,-1,93
 513 505 513 505 490.5 509 c 128,-1,94
 468 513 468 513 441 513 c 0,95,96
 415 513 415 513 392 509 c 128,-1,97
 369 505 369 505 352 498 c 128,-1,98
 335 491 335 491 325.5 481.5 c 128,-1,99
 316 472 316 472 316 461 c 256,80,81
236 648 m 256,100,101
 236 665 236 665 251.5 680.5 c 128,-1,102
 267 696 267 696 295 707 c 128,-1,103
 323 718 323 718 360.5 724.5 c 128,-1,104
 398 731 398 731 441 731 c 0,105,106
 485 731 485 731 522.5 724.5 c 128,-1,107
 560 718 560 718 587.5 707 c 128,-1,108
 615 696 615 696 631 680.5 c 128,-1,109
 647 665 647 665 647 648 c 256,110,111
 647 631 647 631 631 616 c 128,-1,112
 615 601 615 601 587.5 589.5 c 128,-1,113
 560 578 560 578 522.5 571.5 c 128,-1,114
 485 565 485 565 441 565 c 0,115,116
 398 565 398 565 360.5 571.5 c 128,-1,117
 323 578 323 578 295 589.5 c 128,-1,118
 267 601 267 601 251.5 616 c 128,-1,119
 236 631 236 631 236 648 c 256,100,101
316 648 m 0,120,121
 316 637 316 637 325.5 627.5 c 128,-1,122
 335 618 335 618 352 611 c 128,-1,123
 369 604 369 604 392 600 c 128,-1,124
 415 596 415 596 441 596 c 0,125,126
 468 596 468 596 490.5 600 c 128,-1,127
 513 604 513 604 530 611 c 128,-1,128
 547 618 547 618 556.5 627.5 c 128,-1,129
 566 637 566 637 566 648 c 0,130,131
 566 658 566 658 556.5 668 c 128,-1,132
 547 678 547 678 530 685 c 128,-1,133
 513 692 513 692 490.5 696 c 128,-1,134
 468 700 468 700 441 700 c 0,135,136
 415 700 415 700 392 696 c 128,-1,137
 369 692 369 692 352 685 c 128,-1,138
 335 678 335 678 325.5 668 c 128,-1,139
 316 658 316 658 316 648 c 0,120,121
EndSplineSet
EndChar

StartChar: uni0082
Encoding: 130 130 99
Width: 883
Flags: W
LayerCount: 2
Fore
SplineSet
236 85 m 0,0,1
 236 103 236 103 251.5 118 c 128,-1,2
 267 133 267 133 295 144.5 c 128,-1,3
 323 156 323 156 360.5 162.5 c 128,-1,4
 398 169 398 169 441 169 c 0,5,6
 485 169 485 169 522.5 162.5 c 128,-1,7
 560 156 560 156 587.5 144.5 c 128,-1,8
 615 133 615 133 631 118 c 128,-1,9
 647 103 647 103 647 85 c 0,10,11
 647 68 647 68 631 53 c 128,-1,12
 615 38 615 38 587.5 27 c 128,-1,13
 560 16 560 16 522.5 9.5 c 128,-1,14
 485 3 485 3 441 3 c 0,15,16
 398 3 398 3 360.5 9.5 c 128,-1,17
 323 16 323 16 295 27 c 128,-1,18
 267 38 267 38 251.5 53 c 128,-1,19
 236 68 236 68 236 85 c 0,0,1
316 85 m 256,20,21
 316 74 316 74 325.5 64.5 c 128,-1,22
 335 55 335 55 352 48.5 c 128,-1,23
 369 42 369 42 392 38 c 128,-1,24
 415 34 415 34 441 34 c 0,25,26
 468 34 468 34 490.5 38 c 128,-1,27
 513 42 513 42 530 48.5 c 128,-1,28
 547 55 547 55 556.5 64.5 c 128,-1,29
 566 74 566 74 566 85 c 256,30,31
 566 96 566 96 556.5 105.5 c 128,-1,32
 547 115 547 115 530 122 c 128,-1,33
 513 129 513 129 490.5 133 c 128,-1,34
 468 137 468 137 441 137 c 0,35,36
 415 137 415 137 392 133 c 128,-1,37
 369 129 369 129 352 122 c 128,-1,38
 335 115 335 115 325.5 105.5 c 128,-1,39
 316 96 316 96 316 85 c 256,20,21
236 272 m 0,40,41
 236 290 236 290 251.5 305 c 128,-1,42
 267 320 267 320 295 331.5 c 128,-1,43
 323 343 323 343 360.5 349 c 128,-1,44
 398 355 398 355 441 355 c 0,45,46
 485 355 485 355 522.5 349 c 128,-1,47
 560 343 560 343 587.5 331.5 c 128,-1,48
 615 320 615 320 631 305 c 128,-1,49
 647 290 647 290 647 272 c 0,50,51
 647 255 647 255 631 240 c 128,-1,52
 615 225 615 225 587.5 214 c 128,-1,53
 560 203 560 203 522.5 196 c 128,-1,54
 485 189 485 189 441 189 c 0,55,56
 398 189 398 189 360.5 196 c 128,-1,57
 323 203 323 203 295 214 c 128,-1,58
 267 225 267 225 251.5 240 c 128,-1,59
 236 255 236 255 236 272 c 0,40,41
236 461 m 256,60,61
 236 478 236 478 251.5 493.5 c 128,-1,62
 267 509 267 509 295 520 c 128,-1,63
 323 531 323 531 360.5 537.5 c 128,-1,64
 398 544 398 544 441 544 c 0,65,66
 485 544 485 544 522.5 537.5 c 128,-1,67
 560 531 560 531 587.5 520 c 128,-1,68
 615 509 615 509 631 493.5 c 128,-1,69
 647 478 647 478 647 461 c 256,70,71
 647 444 647 444 631 429 c 128,-1,72
 615 414 615 414 587.5 402.5 c 128,-1,73
 560 391 560 391 522.5 384.5 c 128,-1,74
 485 378 485 378 441 378 c 0,75,76
 398 378 398 378 360.5 384.5 c 128,-1,77
 323 391 323 391 295 402.5 c 128,-1,78
 267 414 267 414 251.5 429 c 128,-1,79
 236 444 236 444 236 461 c 256,60,61
316 461 m 256,80,81
 316 450 316 450 325.5 440.5 c 128,-1,82
 335 431 335 431 352 424 c 128,-1,83
 369 417 369 417 392 413 c 128,-1,84
 415 409 415 409 441 409 c 0,85,86
 468 409 468 409 490.5 413 c 128,-1,87
 513 417 513 417 530 424 c 128,-1,88
 547 431 547 431 556.5 440.5 c 128,-1,89
 566 450 566 450 566 461 c 256,90,91
 566 472 566 472 556.5 481.5 c 128,-1,92
 547 491 547 491 530 498 c 128,-1,93
 513 505 513 505 490.5 509 c 128,-1,94
 468 513 468 513 441 513 c 0,95,96
 415 513 415 513 392 509 c 128,-1,97
 369 505 369 505 352 498 c 128,-1,98
 335 491 335 491 325.5 481.5 c 128,-1,99
 316 472 316 472 316 461 c 256,80,81
236 648 m 256,100,101
 236 665 236 665 251.5 680.5 c 128,-1,102
 267 696 267 696 295 707 c 128,-1,103
 323 718 323 718 360.5 724.5 c 128,-1,104
 398 731 398 731 441 731 c 0,105,106
 485 731 485 731 522.5 724.5 c 128,-1,107
 560 718 560 718 587.5 707 c 128,-1,108
 615 696 615 696 631 680.5 c 128,-1,109
 647 665 647 665 647 648 c 256,110,111
 647 631 647 631 631 616 c 128,-1,112
 615 601 615 601 587.5 589.5 c 128,-1,113
 560 578 560 578 522.5 571.5 c 128,-1,114
 485 565 485 565 441 565 c 0,115,116
 398 565 398 565 360.5 571.5 c 128,-1,117
 323 578 323 578 295 589.5 c 128,-1,118
 267 601 267 601 251.5 616 c 128,-1,119
 236 631 236 631 236 648 c 256,100,101
316 648 m 0,120,121
 316 637 316 637 325.5 627.5 c 128,-1,122
 335 618 335 618 352 611 c 128,-1,123
 369 604 369 604 392 600 c 128,-1,124
 415 596 415 596 441 596 c 0,125,126
 468 596 468 596 490.5 600 c 128,-1,127
 513 604 513 604 530 611 c 128,-1,128
 547 618 547 618 556.5 627.5 c 128,-1,129
 566 637 566 637 566 648 c 0,130,131
 566 658 566 658 556.5 668 c 128,-1,132
 547 678 547 678 530 685 c 128,-1,133
 513 692 513 692 490.5 696 c 128,-1,134
 468 700 468 700 441 700 c 0,135,136
 415 700 415 700 392 696 c 128,-1,137
 369 692 369 692 352 685 c 128,-1,138
 335 678 335 678 325.5 668 c 128,-1,139
 316 658 316 658 316 648 c 0,120,121
EndSplineSet
EndChar

StartChar: uni0083
Encoding: 131 131 100
Width: 883
Flags: W
LayerCount: 2
Fore
SplineSet
236 85 m 0,0,1
 236 103 236 103 251.5 118 c 128,-1,2
 267 133 267 133 295 144.5 c 128,-1,3
 323 156 323 156 360.5 162.5 c 128,-1,4
 398 169 398 169 441 169 c 0,5,6
 485 169 485 169 522.5 162.5 c 128,-1,7
 560 156 560 156 587.5 144.5 c 128,-1,8
 615 133 615 133 631 118 c 128,-1,9
 647 103 647 103 647 85 c 0,10,11
 647 68 647 68 631 53 c 128,-1,12
 615 38 615 38 587.5 27 c 128,-1,13
 560 16 560 16 522.5 9.5 c 128,-1,14
 485 3 485 3 441 3 c 0,15,16
 398 3 398 3 360.5 9.5 c 128,-1,17
 323 16 323 16 295 27 c 128,-1,18
 267 38 267 38 251.5 53 c 128,-1,19
 236 68 236 68 236 85 c 0,0,1
236 272 m 0,20,21
 236 290 236 290 251.5 305 c 128,-1,22
 267 320 267 320 295 331.5 c 128,-1,23
 323 343 323 343 360.5 349 c 128,-1,24
 398 355 398 355 441 355 c 0,25,26
 485 355 485 355 522.5 349 c 128,-1,27
 560 343 560 343 587.5 331.5 c 128,-1,28
 615 320 615 320 631 305 c 128,-1,29
 647 290 647 290 647 272 c 0,30,31
 647 255 647 255 631 240 c 128,-1,32
 615 225 615 225 587.5 214 c 128,-1,33
 560 203 560 203 522.5 196 c 128,-1,34
 485 189 485 189 441 189 c 0,35,36
 398 189 398 189 360.5 196 c 128,-1,37
 323 203 323 203 295 214 c 128,-1,38
 267 225 267 225 251.5 240 c 128,-1,39
 236 255 236 255 236 272 c 0,20,21
236 461 m 256,40,41
 236 478 236 478 251.5 493.5 c 128,-1,42
 267 509 267 509 295 520 c 128,-1,43
 323 531 323 531 360.5 537.5 c 128,-1,44
 398 544 398 544 441 544 c 0,45,46
 485 544 485 544 522.5 537.5 c 128,-1,47
 560 531 560 531 587.5 520 c 128,-1,48
 615 509 615 509 631 493.5 c 128,-1,49
 647 478 647 478 647 461 c 256,50,51
 647 444 647 444 631 429 c 128,-1,52
 615 414 615 414 587.5 402.5 c 128,-1,53
 560 391 560 391 522.5 384.5 c 128,-1,54
 485 378 485 378 441 378 c 0,55,56
 398 378 398 378 360.5 384.5 c 128,-1,57
 323 391 323 391 295 402.5 c 128,-1,58
 267 414 267 414 251.5 429 c 128,-1,59
 236 444 236 444 236 461 c 256,40,41
316 461 m 256,60,61
 316 450 316 450 325.5 440.5 c 128,-1,62
 335 431 335 431 352 424 c 128,-1,63
 369 417 369 417 392 413 c 128,-1,64
 415 409 415 409 441 409 c 0,65,66
 468 409 468 409 490.5 413 c 128,-1,67
 513 417 513 417 530 424 c 128,-1,68
 547 431 547 431 556.5 440.5 c 128,-1,69
 566 450 566 450 566 461 c 256,70,71
 566 472 566 472 556.5 481.5 c 128,-1,72
 547 491 547 491 530 498 c 128,-1,73
 513 505 513 505 490.5 509 c 128,-1,74
 468 513 468 513 441 513 c 0,75,76
 415 513 415 513 392 509 c 128,-1,77
 369 505 369 505 352 498 c 128,-1,78
 335 491 335 491 325.5 481.5 c 128,-1,79
 316 472 316 472 316 461 c 256,60,61
236 648 m 256,80,81
 236 665 236 665 251.5 680.5 c 128,-1,82
 267 696 267 696 295 707 c 128,-1,83
 323 718 323 718 360.5 724.5 c 128,-1,84
 398 731 398 731 441 731 c 0,85,86
 485 731 485 731 522.5 724.5 c 128,-1,87
 560 718 560 718 587.5 707 c 128,-1,88
 615 696 615 696 631 680.5 c 128,-1,89
 647 665 647 665 647 648 c 256,90,91
 647 631 647 631 631 616 c 128,-1,92
 615 601 615 601 587.5 589.5 c 128,-1,93
 560 578 560 578 522.5 571.5 c 128,-1,94
 485 565 485 565 441 565 c 0,95,96
 398 565 398 565 360.5 571.5 c 128,-1,97
 323 578 323 578 295 589.5 c 128,-1,98
 267 601 267 601 251.5 616 c 128,-1,99
 236 631 236 631 236 648 c 256,80,81
316 648 m 0,100,101
 316 637 316 637 325.5 627.5 c 128,-1,102
 335 618 335 618 352 611 c 128,-1,103
 369 604 369 604 392 600 c 128,-1,104
 415 596 415 596 441 596 c 0,105,106
 468 596 468 596 490.5 600 c 128,-1,107
 513 604 513 604 530 611 c 128,-1,108
 547 618 547 618 556.5 627.5 c 128,-1,109
 566 637 566 637 566 648 c 0,110,111
 566 658 566 658 556.5 668 c 128,-1,112
 547 678 547 678 530 685 c 128,-1,113
 513 692 513 692 490.5 696 c 128,-1,114
 468 700 468 700 441 700 c 0,115,116
 415 700 415 700 392 696 c 128,-1,117
 369 692 369 692 352 685 c 128,-1,118
 335 678 335 678 325.5 668 c 128,-1,119
 316 658 316 658 316 648 c 0,100,101
EndSplineSet
EndChar

StartChar: uni0084
Encoding: 132 132 101
Width: 883
Flags: W
LayerCount: 2
Fore
SplineSet
236 85 m 0,0,1
 236 103 236 103 251.5 118 c 128,-1,2
 267 133 267 133 295 144.5 c 128,-1,3
 323 156 323 156 360.5 162.5 c 128,-1,4
 398 169 398 169 441 169 c 0,5,6
 485 169 485 169 522.5 162.5 c 128,-1,7
 560 156 560 156 587.5 144.5 c 128,-1,8
 615 133 615 133 631 118 c 128,-1,9
 647 103 647 103 647 85 c 0,10,11
 647 68 647 68 631 53 c 128,-1,12
 615 38 615 38 587.5 27 c 128,-1,13
 560 16 560 16 522.5 9.5 c 128,-1,14
 485 3 485 3 441 3 c 0,15,16
 398 3 398 3 360.5 9.5 c 128,-1,17
 323 16 323 16 295 27 c 128,-1,18
 267 38 267 38 251.5 53 c 128,-1,19
 236 68 236 68 236 85 c 0,0,1
316 85 m 256,20,21
 316 74 316 74 325.5 64.5 c 128,-1,22
 335 55 335 55 352 48.5 c 128,-1,23
 369 42 369 42 392 38 c 128,-1,24
 415 34 415 34 441 34 c 0,25,26
 468 34 468 34 490.5 38 c 128,-1,27
 513 42 513 42 530 48.5 c 128,-1,28
 547 55 547 55 556.5 64.5 c 128,-1,29
 566 74 566 74 566 85 c 256,30,31
 566 96 566 96 556.5 105.5 c 128,-1,32
 547 115 547 115 530 122 c 128,-1,33
 513 129 513 129 490.5 133 c 128,-1,34
 468 137 468 137 441 137 c 0,35,36
 415 137 415 137 392 133 c 128,-1,37
 369 129 369 129 352 122 c 128,-1,38
 335 115 335 115 325.5 105.5 c 128,-1,39
 316 96 316 96 316 85 c 256,20,21
236 272 m 0,40,41
 236 290 236 290 251.5 305 c 128,-1,42
 267 320 267 320 295 331.5 c 128,-1,43
 323 343 323 343 360.5 349 c 128,-1,44
 398 355 398 355 441 355 c 0,45,46
 485 355 485 355 522.5 349 c 128,-1,47
 560 343 560 343 587.5 331.5 c 128,-1,48
 615 320 615 320 631 305 c 128,-1,49
 647 290 647 290 647 272 c 0,50,51
 647 255 647 255 631 240 c 128,-1,52
 615 225 615 225 587.5 214 c 128,-1,53
 560 203 560 203 522.5 196 c 128,-1,54
 485 189 485 189 441 189 c 0,55,56
 398 189 398 189 360.5 196 c 128,-1,57
 323 203 323 203 295 214 c 128,-1,58
 267 225 267 225 251.5 240 c 128,-1,59
 236 255 236 255 236 272 c 0,40,41
316 272 m 256,60,61
 316 261 316 261 325.5 251.5 c 128,-1,62
 335 242 335 242 352 235 c 128,-1,63
 369 228 369 228 392 224 c 128,-1,64
 415 220 415 220 441 220 c 0,65,66
 468 220 468 220 490.5 224 c 128,-1,67
 513 228 513 228 530 235 c 128,-1,68
 547 242 547 242 556.5 251.5 c 128,-1,69
 566 261 566 261 566 272 c 256,70,71
 566 283 566 283 556.5 292.5 c 128,-1,72
 547 302 547 302 530 309 c 128,-1,73
 513 316 513 316 490.5 320 c 128,-1,74
 468 324 468 324 441 324 c 0,75,76
 415 324 415 324 392 320 c 128,-1,77
 369 316 369 316 352 309 c 128,-1,78
 335 302 335 302 325.5 292.5 c 128,-1,79
 316 283 316 283 316 272 c 256,60,61
236 461 m 256,80,81
 236 478 236 478 251.5 493.5 c 128,-1,82
 267 509 267 509 295 520 c 128,-1,83
 323 531 323 531 360.5 537.5 c 128,-1,84
 398 544 398 544 441 544 c 0,85,86
 485 544 485 544 522.5 537.5 c 128,-1,87
 560 531 560 531 587.5 520 c 128,-1,88
 615 509 615 509 631 493.5 c 128,-1,89
 647 478 647 478 647 461 c 256,90,91
 647 444 647 444 631 429 c 128,-1,92
 615 414 615 414 587.5 402.5 c 128,-1,93
 560 391 560 391 522.5 384.5 c 128,-1,94
 485 378 485 378 441 378 c 0,95,96
 398 378 398 378 360.5 384.5 c 128,-1,97
 323 391 323 391 295 402.5 c 128,-1,98
 267 414 267 414 251.5 429 c 128,-1,99
 236 444 236 444 236 461 c 256,80,81
236 648 m 256,100,101
 236 665 236 665 251.5 680.5 c 128,-1,102
 267 696 267 696 295 707 c 128,-1,103
 323 718 323 718 360.5 724.5 c 128,-1,104
 398 731 398 731 441 731 c 0,105,106
 485 731 485 731 522.5 724.5 c 128,-1,107
 560 718 560 718 587.5 707 c 128,-1,108
 615 696 615 696 631 680.5 c 128,-1,109
 647 665 647 665 647 648 c 256,110,111
 647 631 647 631 631 616 c 128,-1,112
 615 601 615 601 587.5 589.5 c 128,-1,113
 560 578 560 578 522.5 571.5 c 128,-1,114
 485 565 485 565 441 565 c 0,115,116
 398 565 398 565 360.5 571.5 c 128,-1,117
 323 578 323 578 295 589.5 c 128,-1,118
 267 601 267 601 251.5 616 c 128,-1,119
 236 631 236 631 236 648 c 256,100,101
316 648 m 0,120,121
 316 637 316 637 325.5 627.5 c 128,-1,122
 335 618 335 618 352 611 c 128,-1,123
 369 604 369 604 392 600 c 128,-1,124
 415 596 415 596 441 596 c 0,125,126
 468 596 468 596 490.5 600 c 128,-1,127
 513 604 513 604 530 611 c 128,-1,128
 547 618 547 618 556.5 627.5 c 128,-1,129
 566 637 566 637 566 648 c 0,130,131
 566 658 566 658 556.5 668 c 128,-1,132
 547 678 547 678 530 685 c 128,-1,133
 513 692 513 692 490.5 696 c 128,-1,134
 468 700 468 700 441 700 c 0,135,136
 415 700 415 700 392 696 c 128,-1,137
 369 692 369 692 352 685 c 128,-1,138
 335 678 335 678 325.5 668 c 128,-1,139
 316 658 316 658 316 648 c 0,120,121
EndSplineSet
EndChar

StartChar: uni0085
Encoding: 133 133 102
Width: 883
Flags: W
LayerCount: 2
Fore
SplineSet
236 85 m 0,0,1
 236 103 236 103 251.5 118 c 128,-1,2
 267 133 267 133 295 144.5 c 128,-1,3
 323 156 323 156 360.5 162.5 c 128,-1,4
 398 169 398 169 441 169 c 0,5,6
 485 169 485 169 522.5 162.5 c 128,-1,7
 560 156 560 156 587.5 144.5 c 128,-1,8
 615 133 615 133 631 118 c 128,-1,9
 647 103 647 103 647 85 c 0,10,11
 647 68 647 68 631 53 c 128,-1,12
 615 38 615 38 587.5 27 c 128,-1,13
 560 16 560 16 522.5 9.5 c 128,-1,14
 485 3 485 3 441 3 c 0,15,16
 398 3 398 3 360.5 9.5 c 128,-1,17
 323 16 323 16 295 27 c 128,-1,18
 267 38 267 38 251.5 53 c 128,-1,19
 236 68 236 68 236 85 c 0,0,1
236 272 m 0,20,21
 236 290 236 290 251.5 305 c 128,-1,22
 267 320 267 320 295 331.5 c 128,-1,23
 323 343 323 343 360.5 349 c 128,-1,24
 398 355 398 355 441 355 c 0,25,26
 485 355 485 355 522.5 349 c 128,-1,27
 560 343 560 343 587.5 331.5 c 128,-1,28
 615 320 615 320 631 305 c 128,-1,29
 647 290 647 290 647 272 c 0,30,31
 647 255 647 255 631 240 c 128,-1,32
 615 225 615 225 587.5 214 c 128,-1,33
 560 203 560 203 522.5 196 c 128,-1,34
 485 189 485 189 441 189 c 0,35,36
 398 189 398 189 360.5 196 c 128,-1,37
 323 203 323 203 295 214 c 128,-1,38
 267 225 267 225 251.5 240 c 128,-1,39
 236 255 236 255 236 272 c 0,20,21
316 272 m 256,40,41
 316 261 316 261 325.5 251.5 c 128,-1,42
 335 242 335 242 352 235 c 128,-1,43
 369 228 369 228 392 224 c 128,-1,44
 415 220 415 220 441 220 c 0,45,46
 468 220 468 220 490.5 224 c 128,-1,47
 513 228 513 228 530 235 c 128,-1,48
 547 242 547 242 556.5 251.5 c 128,-1,49
 566 261 566 261 566 272 c 256,50,51
 566 283 566 283 556.5 292.5 c 128,-1,52
 547 302 547 302 530 309 c 128,-1,53
 513 316 513 316 490.5 320 c 128,-1,54
 468 324 468 324 441 324 c 0,55,56
 415 324 415 324 392 320 c 128,-1,57
 369 316 369 316 352 309 c 128,-1,58
 335 302 335 302 325.5 292.5 c 128,-1,59
 316 283 316 283 316 272 c 256,40,41
236 461 m 256,60,61
 236 478 236 478 251.5 493.5 c 128,-1,62
 267 509 267 509 295 520 c 128,-1,63
 323 531 323 531 360.5 537.5 c 128,-1,64
 398 544 398 544 441 544 c 0,65,66
 485 544 485 544 522.5 537.5 c 128,-1,67
 560 531 560 531 587.5 520 c 128,-1,68
 615 509 615 509 631 493.5 c 128,-1,69
 647 478 647 478 647 461 c 256,70,71
 647 444 647 444 631 429 c 128,-1,72
 615 414 615 414 587.5 402.5 c 128,-1,73
 560 391 560 391 522.5 384.5 c 128,-1,74
 485 378 485 378 441 378 c 0,75,76
 398 378 398 378 360.5 384.5 c 128,-1,77
 323 391 323 391 295 402.5 c 128,-1,78
 267 414 267 414 251.5 429 c 128,-1,79
 236 444 236 444 236 461 c 256,60,61
236 648 m 256,80,81
 236 665 236 665 251.5 680.5 c 128,-1,82
 267 696 267 696 295 707 c 128,-1,83
 323 718 323 718 360.5 724.5 c 128,-1,84
 398 731 398 731 441 731 c 0,85,86
 485 731 485 731 522.5 724.5 c 128,-1,87
 560 718 560 718 587.5 707 c 128,-1,88
 615 696 615 696 631 680.5 c 128,-1,89
 647 665 647 665 647 648 c 256,90,91
 647 631 647 631 631 616 c 128,-1,92
 615 601 615 601 587.5 589.5 c 128,-1,93
 560 578 560 578 522.5 571.5 c 128,-1,94
 485 565 485 565 441 565 c 0,95,96
 398 565 398 565 360.5 571.5 c 128,-1,97
 323 578 323 578 295 589.5 c 128,-1,98
 267 601 267 601 251.5 616 c 128,-1,99
 236 631 236 631 236 648 c 256,80,81
316 648 m 0,100,101
 316 637 316 637 325.5 627.5 c 128,-1,102
 335 618 335 618 352 611 c 128,-1,103
 369 604 369 604 392 600 c 128,-1,104
 415 596 415 596 441 596 c 0,105,106
 468 596 468 596 490.5 600 c 128,-1,107
 513 604 513 604 530 611 c 128,-1,108
 547 618 547 618 556.5 627.5 c 128,-1,109
 566 637 566 637 566 648 c 0,110,111
 566 658 566 658 556.5 668 c 128,-1,112
 547 678 547 678 530 685 c 128,-1,113
 513 692 513 692 490.5 696 c 128,-1,114
 468 700 468 700 441 700 c 0,115,116
 415 700 415 700 392 696 c 128,-1,117
 369 692 369 692 352 685 c 128,-1,118
 335 678 335 678 325.5 668 c 128,-1,119
 316 658 316 658 316 648 c 0,100,101
EndSplineSet
EndChar

StartChar: uni0086
Encoding: 134 134 103
Width: 883
Flags: W
LayerCount: 2
Fore
SplineSet
236 85 m 0,0,1
 236 103 236 103 251.5 118 c 128,-1,2
 267 133 267 133 295 144.5 c 128,-1,3
 323 156 323 156 360.5 162.5 c 128,-1,4
 398 169 398 169 441 169 c 0,5,6
 485 169 485 169 522.5 162.5 c 128,-1,7
 560 156 560 156 587.5 144.5 c 128,-1,8
 615 133 615 133 631 118 c 128,-1,9
 647 103 647 103 647 85 c 0,10,11
 647 68 647 68 631 53 c 128,-1,12
 615 38 615 38 587.5 27 c 128,-1,13
 560 16 560 16 522.5 9.5 c 128,-1,14
 485 3 485 3 441 3 c 0,15,16
 398 3 398 3 360.5 9.5 c 128,-1,17
 323 16 323 16 295 27 c 128,-1,18
 267 38 267 38 251.5 53 c 128,-1,19
 236 68 236 68 236 85 c 0,0,1
316 85 m 256,20,21
 316 74 316 74 325.5 64.5 c 128,-1,22
 335 55 335 55 352 48.5 c 128,-1,23
 369 42 369 42 392 38 c 128,-1,24
 415 34 415 34 441 34 c 0,25,26
 468 34 468 34 490.5 38 c 128,-1,27
 513 42 513 42 530 48.5 c 128,-1,28
 547 55 547 55 556.5 64.5 c 128,-1,29
 566 74 566 74 566 85 c 256,30,31
 566 96 566 96 556.5 105.5 c 128,-1,32
 547 115 547 115 530 122 c 128,-1,33
 513 129 513 129 490.5 133 c 128,-1,34
 468 137 468 137 441 137 c 0,35,36
 415 137 415 137 392 133 c 128,-1,37
 369 129 369 129 352 122 c 128,-1,38
 335 115 335 115 325.5 105.5 c 128,-1,39
 316 96 316 96 316 85 c 256,20,21
236 272 m 0,40,41
 236 290 236 290 251.5 305 c 128,-1,42
 267 320 267 320 295 331.5 c 128,-1,43
 323 343 323 343 360.5 349 c 128,-1,44
 398 355 398 355 441 355 c 0,45,46
 485 355 485 355 522.5 349 c 128,-1,47
 560 343 560 343 587.5 331.5 c 128,-1,48
 615 320 615 320 631 305 c 128,-1,49
 647 290 647 290 647 272 c 0,50,51
 647 255 647 255 631 240 c 128,-1,52
 615 225 615 225 587.5 214 c 128,-1,53
 560 203 560 203 522.5 196 c 128,-1,54
 485 189 485 189 441 189 c 0,55,56
 398 189 398 189 360.5 196 c 128,-1,57
 323 203 323 203 295 214 c 128,-1,58
 267 225 267 225 251.5 240 c 128,-1,59
 236 255 236 255 236 272 c 0,40,41
236 461 m 256,60,61
 236 478 236 478 251.5 493.5 c 128,-1,62
 267 509 267 509 295 520 c 128,-1,63
 323 531 323 531 360.5 537.5 c 128,-1,64
 398 544 398 544 441 544 c 0,65,66
 485 544 485 544 522.5 537.5 c 128,-1,67
 560 531 560 531 587.5 520 c 128,-1,68
 615 509 615 509 631 493.5 c 128,-1,69
 647 478 647 478 647 461 c 256,70,71
 647 444 647 444 631 429 c 128,-1,72
 615 414 615 414 587.5 402.5 c 128,-1,73
 560 391 560 391 522.5 384.5 c 128,-1,74
 485 378 485 378 441 378 c 0,75,76
 398 378 398 378 360.5 384.5 c 128,-1,77
 323 391 323 391 295 402.5 c 128,-1,78
 267 414 267 414 251.5 429 c 128,-1,79
 236 444 236 444 236 461 c 256,60,61
236 648 m 256,80,81
 236 665 236 665 251.5 680.5 c 128,-1,82
 267 696 267 696 295 707 c 128,-1,83
 323 718 323 718 360.5 724.5 c 128,-1,84
 398 731 398 731 441 731 c 0,85,86
 485 731 485 731 522.5 724.5 c 128,-1,87
 560 718 560 718 587.5 707 c 128,-1,88
 615 696 615 696 631 680.5 c 128,-1,89
 647 665 647 665 647 648 c 256,90,91
 647 631 647 631 631 616 c 128,-1,92
 615 601 615 601 587.5 589.5 c 128,-1,93
 560 578 560 578 522.5 571.5 c 128,-1,94
 485 565 485 565 441 565 c 0,95,96
 398 565 398 565 360.5 571.5 c 128,-1,97
 323 578 323 578 295 589.5 c 128,-1,98
 267 601 267 601 251.5 616 c 128,-1,99
 236 631 236 631 236 648 c 256,80,81
316 648 m 0,100,101
 316 637 316 637 325.5 627.5 c 128,-1,102
 335 618 335 618 352 611 c 128,-1,103
 369 604 369 604 392 600 c 128,-1,104
 415 596 415 596 441 596 c 0,105,106
 468 596 468 596 490.5 600 c 128,-1,107
 513 604 513 604 530 611 c 128,-1,108
 547 618 547 618 556.5 627.5 c 128,-1,109
 566 637 566 637 566 648 c 0,110,111
 566 658 566 658 556.5 668 c 128,-1,112
 547 678 547 678 530 685 c 128,-1,113
 513 692 513 692 490.5 696 c 128,-1,114
 468 700 468 700 441 700 c 0,115,116
 415 700 415 700 392 696 c 128,-1,117
 369 692 369 692 352 685 c 128,-1,118
 335 678 335 678 325.5 668 c 128,-1,119
 316 658 316 658 316 648 c 0,100,101
EndSplineSet
EndChar

StartChar: uni0087
Encoding: 135 135 104
Width: 883
Flags: W
LayerCount: 2
Fore
SplineSet
236 85 m 0,0,1
 236 103 236 103 251.5 118 c 128,-1,2
 267 133 267 133 295 144.5 c 128,-1,3
 323 156 323 156 360.5 162.5 c 128,-1,4
 398 169 398 169 441 169 c 0,5,6
 485 169 485 169 522.5 162.5 c 128,-1,7
 560 156 560 156 587.5 144.5 c 128,-1,8
 615 133 615 133 631 118 c 128,-1,9
 647 103 647 103 647 85 c 0,10,11
 647 68 647 68 631 53 c 128,-1,12
 615 38 615 38 587.5 27 c 128,-1,13
 560 16 560 16 522.5 9.5 c 128,-1,14
 485 3 485 3 441 3 c 0,15,16
 398 3 398 3 360.5 9.5 c 128,-1,17
 323 16 323 16 295 27 c 128,-1,18
 267 38 267 38 251.5 53 c 128,-1,19
 236 68 236 68 236 85 c 0,0,1
236 272 m 0,20,21
 236 290 236 290 251.5 305 c 128,-1,22
 267 320 267 320 295 331.5 c 128,-1,23
 323 343 323 343 360.5 349 c 128,-1,24
 398 355 398 355 441 355 c 0,25,26
 485 355 485 355 522.5 349 c 128,-1,27
 560 343 560 343 587.5 331.5 c 128,-1,28
 615 320 615 320 631 305 c 128,-1,29
 647 290 647 290 647 272 c 0,30,31
 647 255 647 255 631 240 c 128,-1,32
 615 225 615 225 587.5 214 c 128,-1,33
 560 203 560 203 522.5 196 c 128,-1,34
 485 189 485 189 441 189 c 0,35,36
 398 189 398 189 360.5 196 c 128,-1,37
 323 203 323 203 295 214 c 128,-1,38
 267 225 267 225 251.5 240 c 128,-1,39
 236 255 236 255 236 272 c 0,20,21
236 461 m 256,40,41
 236 478 236 478 251.5 493.5 c 128,-1,42
 267 509 267 509 295 520 c 128,-1,43
 323 531 323 531 360.5 537.5 c 128,-1,44
 398 544 398 544 441 544 c 0,45,46
 485 544 485 544 522.5 537.5 c 128,-1,47
 560 531 560 531 587.5 520 c 128,-1,48
 615 509 615 509 631 493.5 c 128,-1,49
 647 478 647 478 647 461 c 256,50,51
 647 444 647 444 631 429 c 128,-1,52
 615 414 615 414 587.5 402.5 c 128,-1,53
 560 391 560 391 522.5 384.5 c 128,-1,54
 485 378 485 378 441 378 c 0,55,56
 398 378 398 378 360.5 384.5 c 128,-1,57
 323 391 323 391 295 402.5 c 128,-1,58
 267 414 267 414 251.5 429 c 128,-1,59
 236 444 236 444 236 461 c 256,40,41
236 648 m 256,60,61
 236 665 236 665 251.5 680.5 c 128,-1,62
 267 696 267 696 295 707 c 128,-1,63
 323 718 323 718 360.5 724.5 c 128,-1,64
 398 731 398 731 441 731 c 0,65,66
 485 731 485 731 522.5 724.5 c 128,-1,67
 560 718 560 718 587.5 707 c 128,-1,68
 615 696 615 696 631 680.5 c 128,-1,69
 647 665 647 665 647 648 c 256,70,71
 647 631 647 631 631 616 c 128,-1,72
 615 601 615 601 587.5 589.5 c 128,-1,73
 560 578 560 578 522.5 571.5 c 128,-1,74
 485 565 485 565 441 565 c 0,75,76
 398 565 398 565 360.5 571.5 c 128,-1,77
 323 578 323 578 295 589.5 c 128,-1,78
 267 601 267 601 251.5 616 c 128,-1,79
 236 631 236 631 236 648 c 256,60,61
316 648 m 0,80,81
 316 637 316 637 325.5 627.5 c 128,-1,82
 335 618 335 618 352 611 c 128,-1,83
 369 604 369 604 392 600 c 128,-1,84
 415 596 415 596 441 596 c 0,85,86
 468 596 468 596 490.5 600 c 128,-1,87
 513 604 513 604 530 611 c 128,-1,88
 547 618 547 618 556.5 627.5 c 128,-1,89
 566 637 566 637 566 648 c 0,90,91
 566 658 566 658 556.5 668 c 128,-1,92
 547 678 547 678 530 685 c 128,-1,93
 513 692 513 692 490.5 696 c 128,-1,94
 468 700 468 700 441 700 c 0,95,96
 415 700 415 700 392 696 c 128,-1,97
 369 692 369 692 352 685 c 128,-1,98
 335 678 335 678 325.5 668 c 128,-1,99
 316 658 316 658 316 648 c 0,80,81
EndSplineSet
EndChar

StartChar: uni0088
Encoding: 136 136 105
Width: 883
Flags: W
LayerCount: 2
Fore
SplineSet
236 85 m 0,0,1
 236 103 236 103 251.5 118 c 128,-1,2
 267 133 267 133 295 144.5 c 128,-1,3
 323 156 323 156 360.5 162.5 c 128,-1,4
 398 169 398 169 441 169 c 0,5,6
 485 169 485 169 522.5 162.5 c 128,-1,7
 560 156 560 156 587.5 144.5 c 128,-1,8
 615 133 615 133 631 118 c 128,-1,9
 647 103 647 103 647 85 c 0,10,11
 647 68 647 68 631 53 c 128,-1,12
 615 38 615 38 587.5 27 c 128,-1,13
 560 16 560 16 522.5 9.5 c 128,-1,14
 485 3 485 3 441 3 c 0,15,16
 398 3 398 3 360.5 9.5 c 128,-1,17
 323 16 323 16 295 27 c 128,-1,18
 267 38 267 38 251.5 53 c 128,-1,19
 236 68 236 68 236 85 c 0,0,1
316 85 m 256,20,21
 316 74 316 74 325.5 64.5 c 128,-1,22
 335 55 335 55 352 48.5 c 128,-1,23
 369 42 369 42 392 38 c 128,-1,24
 415 34 415 34 441 34 c 0,25,26
 468 34 468 34 490.5 38 c 128,-1,27
 513 42 513 42 530 48.5 c 128,-1,28
 547 55 547 55 556.5 64.5 c 128,-1,29
 566 74 566 74 566 85 c 256,30,31
 566 96 566 96 556.5 105.5 c 128,-1,32
 547 115 547 115 530 122 c 128,-1,33
 513 129 513 129 490.5 133 c 128,-1,34
 468 137 468 137 441 137 c 0,35,36
 415 137 415 137 392 133 c 128,-1,37
 369 129 369 129 352 122 c 128,-1,38
 335 115 335 115 325.5 105.5 c 128,-1,39
 316 96 316 96 316 85 c 256,20,21
236 272 m 0,40,41
 236 290 236 290 251.5 305 c 128,-1,42
 267 320 267 320 295 331.5 c 128,-1,43
 323 343 323 343 360.5 349 c 128,-1,44
 398 355 398 355 441 355 c 0,45,46
 485 355 485 355 522.5 349 c 128,-1,47
 560 343 560 343 587.5 331.5 c 128,-1,48
 615 320 615 320 631 305 c 128,-1,49
 647 290 647 290 647 272 c 0,50,51
 647 255 647 255 631 240 c 128,-1,52
 615 225 615 225 587.5 214 c 128,-1,53
 560 203 560 203 522.5 196 c 128,-1,54
 485 189 485 189 441 189 c 0,55,56
 398 189 398 189 360.5 196 c 128,-1,57
 323 203 323 203 295 214 c 128,-1,58
 267 225 267 225 251.5 240 c 128,-1,59
 236 255 236 255 236 272 c 0,40,41
316 272 m 256,60,61
 316 261 316 261 325.5 251.5 c 128,-1,62
 335 242 335 242 352 235 c 128,-1,63
 369 228 369 228 392 224 c 128,-1,64
 415 220 415 220 441 220 c 0,65,66
 468 220 468 220 490.5 224 c 128,-1,67
 513 228 513 228 530 235 c 128,-1,68
 547 242 547 242 556.5 251.5 c 128,-1,69
 566 261 566 261 566 272 c 256,70,71
 566 283 566 283 556.5 292.5 c 128,-1,72
 547 302 547 302 530 309 c 128,-1,73
 513 316 513 316 490.5 320 c 128,-1,74
 468 324 468 324 441 324 c 0,75,76
 415 324 415 324 392 320 c 128,-1,77
 369 316 369 316 352 309 c 128,-1,78
 335 302 335 302 325.5 292.5 c 128,-1,79
 316 283 316 283 316 272 c 256,60,61
236 461 m 256,80,81
 236 478 236 478 251.5 493.5 c 128,-1,82
 267 509 267 509 295 520 c 128,-1,83
 323 531 323 531 360.5 537.5 c 128,-1,84
 398 544 398 544 441 544 c 0,85,86
 485 544 485 544 522.5 537.5 c 128,-1,87
 560 531 560 531 587.5 520 c 128,-1,88
 615 509 615 509 631 493.5 c 128,-1,89
 647 478 647 478 647 461 c 256,90,91
 647 444 647 444 631 429 c 128,-1,92
 615 414 615 414 587.5 402.5 c 128,-1,93
 560 391 560 391 522.5 384.5 c 128,-1,94
 485 378 485 378 441 378 c 0,95,96
 398 378 398 378 360.5 384.5 c 128,-1,97
 323 391 323 391 295 402.5 c 128,-1,98
 267 414 267 414 251.5 429 c 128,-1,99
 236 444 236 444 236 461 c 256,80,81
316 461 m 256,100,101
 316 450 316 450 325.5 440.5 c 128,-1,102
 335 431 335 431 352 424 c 128,-1,103
 369 417 369 417 392 413 c 128,-1,104
 415 409 415 409 441 409 c 0,105,106
 468 409 468 409 490.5 413 c 128,-1,107
 513 417 513 417 530 424 c 128,-1,108
 547 431 547 431 556.5 440.5 c 128,-1,109
 566 450 566 450 566 461 c 256,110,111
 566 472 566 472 556.5 481.5 c 128,-1,112
 547 491 547 491 530 498 c 128,-1,113
 513 505 513 505 490.5 509 c 128,-1,114
 468 513 468 513 441 513 c 0,115,116
 415 513 415 513 392 509 c 128,-1,117
 369 505 369 505 352 498 c 128,-1,118
 335 491 335 491 325.5 481.5 c 128,-1,119
 316 472 316 472 316 461 c 256,100,101
236 648 m 256,120,121
 236 665 236 665 251.5 680.5 c 128,-1,122
 267 696 267 696 295 707 c 128,-1,123
 323 718 323 718 360.5 724.5 c 128,-1,124
 398 731 398 731 441 731 c 0,125,126
 485 731 485 731 522.5 724.5 c 128,-1,127
 560 718 560 718 587.5 707 c 128,-1,128
 615 696 615 696 631 680.5 c 128,-1,129
 647 665 647 665 647 648 c 256,130,131
 647 631 647 631 631 616 c 128,-1,132
 615 601 615 601 587.5 589.5 c 128,-1,133
 560 578 560 578 522.5 571.5 c 128,-1,134
 485 565 485 565 441 565 c 0,135,136
 398 565 398 565 360.5 571.5 c 128,-1,137
 323 578 323 578 295 589.5 c 128,-1,138
 267 601 267 601 251.5 616 c 128,-1,139
 236 631 236 631 236 648 c 256,120,121
EndSplineSet
EndChar

StartChar: uni0089
Encoding: 137 137 106
Width: 883
Flags: W
LayerCount: 2
Fore
SplineSet
236 85 m 0,0,1
 236 103 236 103 251.5 118 c 128,-1,2
 267 133 267 133 295 144.5 c 128,-1,3
 323 156 323 156 360.5 162.5 c 128,-1,4
 398 169 398 169 441 169 c 0,5,6
 485 169 485 169 522.5 162.5 c 128,-1,7
 560 156 560 156 587.5 144.5 c 128,-1,8
 615 133 615 133 631 118 c 128,-1,9
 647 103 647 103 647 85 c 0,10,11
 647 68 647 68 631 53 c 128,-1,12
 615 38 615 38 587.5 27 c 128,-1,13
 560 16 560 16 522.5 9.5 c 128,-1,14
 485 3 485 3 441 3 c 0,15,16
 398 3 398 3 360.5 9.5 c 128,-1,17
 323 16 323 16 295 27 c 128,-1,18
 267 38 267 38 251.5 53 c 128,-1,19
 236 68 236 68 236 85 c 0,0,1
236 272 m 0,20,21
 236 290 236 290 251.5 305 c 128,-1,22
 267 320 267 320 295 331.5 c 128,-1,23
 323 343 323 343 360.5 349 c 128,-1,24
 398 355 398 355 441 355 c 0,25,26
 485 355 485 355 522.5 349 c 128,-1,27
 560 343 560 343 587.5 331.5 c 128,-1,28
 615 320 615 320 631 305 c 128,-1,29
 647 290 647 290 647 272 c 0,30,31
 647 255 647 255 631 240 c 128,-1,32
 615 225 615 225 587.5 214 c 128,-1,33
 560 203 560 203 522.5 196 c 128,-1,34
 485 189 485 189 441 189 c 0,35,36
 398 189 398 189 360.5 196 c 128,-1,37
 323 203 323 203 295 214 c 128,-1,38
 267 225 267 225 251.5 240 c 128,-1,39
 236 255 236 255 236 272 c 0,20,21
316 272 m 256,40,41
 316 261 316 261 325.5 251.5 c 128,-1,42
 335 242 335 242 352 235 c 128,-1,43
 369 228 369 228 392 224 c 128,-1,44
 415 220 415 220 441 220 c 0,45,46
 468 220 468 220 490.5 224 c 128,-1,47
 513 228 513 228 530 235 c 128,-1,48
 547 242 547 242 556.5 251.5 c 128,-1,49
 566 261 566 261 566 272 c 256,50,51
 566 283 566 283 556.5 292.5 c 128,-1,52
 547 302 547 302 530 309 c 128,-1,53
 513 316 513 316 490.5 320 c 128,-1,54
 468 324 468 324 441 324 c 0,55,56
 415 324 415 324 392 320 c 128,-1,57
 369 316 369 316 352 309 c 128,-1,58
 335 302 335 302 325.5 292.5 c 128,-1,59
 316 283 316 283 316 272 c 256,40,41
236 461 m 256,60,61
 236 478 236 478 251.5 493.5 c 128,-1,62
 267 509 267 509 295 520 c 128,-1,63
 323 531 323 531 360.5 537.5 c 128,-1,64
 398 544 398 544 441 544 c 0,65,66
 485 544 485 544 522.5 537.5 c 128,-1,67
 560 531 560 531 587.5 520 c 128,-1,68
 615 509 615 509 631 493.5 c 128,-1,69
 647 478 647 478 647 461 c 256,70,71
 647 444 647 444 631 429 c 128,-1,72
 615 414 615 414 587.5 402.5 c 128,-1,73
 560 391 560 391 522.5 384.5 c 128,-1,74
 485 378 485 378 441 378 c 0,75,76
 398 378 398 378 360.5 384.5 c 128,-1,77
 323 391 323 391 295 402.5 c 128,-1,78
 267 414 267 414 251.5 429 c 128,-1,79
 236 444 236 444 236 461 c 256,60,61
316 461 m 256,80,81
 316 450 316 450 325.5 440.5 c 128,-1,82
 335 431 335 431 352 424 c 128,-1,83
 369 417 369 417 392 413 c 128,-1,84
 415 409 415 409 441 409 c 0,85,86
 468 409 468 409 490.5 413 c 128,-1,87
 513 417 513 417 530 424 c 128,-1,88
 547 431 547 431 556.5 440.5 c 128,-1,89
 566 450 566 450 566 461 c 256,90,91
 566 472 566 472 556.5 481.5 c 128,-1,92
 547 491 547 491 530 498 c 128,-1,93
 513 505 513 505 490.5 509 c 128,-1,94
 468 513 468 513 441 513 c 0,95,96
 415 513 415 513 392 509 c 128,-1,97
 369 505 369 505 352 498 c 128,-1,98
 335 491 335 491 325.5 481.5 c 128,-1,99
 316 472 316 472 316 461 c 256,80,81
236 648 m 256,100,101
 236 665 236 665 251.5 680.5 c 128,-1,102
 267 696 267 696 295 707 c 128,-1,103
 323 718 323 718 360.5 724.5 c 128,-1,104
 398 731 398 731 441 731 c 0,105,106
 485 731 485 731 522.5 724.5 c 128,-1,107
 560 718 560 718 587.5 707 c 128,-1,108
 615 696 615 696 631 680.5 c 128,-1,109
 647 665 647 665 647 648 c 256,110,111
 647 631 647 631 631 616 c 128,-1,112
 615 601 615 601 587.5 589.5 c 128,-1,113
 560 578 560 578 522.5 571.5 c 128,-1,114
 485 565 485 565 441 565 c 0,115,116
 398 565 398 565 360.5 571.5 c 128,-1,117
 323 578 323 578 295 589.5 c 128,-1,118
 267 601 267 601 251.5 616 c 128,-1,119
 236 631 236 631 236 648 c 256,100,101
EndSplineSet
EndChar

StartChar: uni008A
Encoding: 138 138 107
Width: 883
Flags: W
LayerCount: 2
Fore
SplineSet
236 85 m 0,0,1
 236 103 236 103 251.5 118 c 128,-1,2
 267 133 267 133 295 144.5 c 128,-1,3
 323 156 323 156 360.5 162.5 c 128,-1,4
 398 169 398 169 441 169 c 0,5,6
 485 169 485 169 522.5 162.5 c 128,-1,7
 560 156 560 156 587.5 144.5 c 128,-1,8
 615 133 615 133 631 118 c 128,-1,9
 647 103 647 103 647 85 c 0,10,11
 647 68 647 68 631 53 c 128,-1,12
 615 38 615 38 587.5 27 c 128,-1,13
 560 16 560 16 522.5 9.5 c 128,-1,14
 485 3 485 3 441 3 c 0,15,16
 398 3 398 3 360.5 9.5 c 128,-1,17
 323 16 323 16 295 27 c 128,-1,18
 267 38 267 38 251.5 53 c 128,-1,19
 236 68 236 68 236 85 c 0,0,1
316 85 m 256,20,21
 316 74 316 74 325.5 64.5 c 128,-1,22
 335 55 335 55 352 48.5 c 128,-1,23
 369 42 369 42 392 38 c 128,-1,24
 415 34 415 34 441 34 c 0,25,26
 468 34 468 34 490.5 38 c 128,-1,27
 513 42 513 42 530 48.5 c 128,-1,28
 547 55 547 55 556.5 64.5 c 128,-1,29
 566 74 566 74 566 85 c 256,30,31
 566 96 566 96 556.5 105.5 c 128,-1,32
 547 115 547 115 530 122 c 128,-1,33
 513 129 513 129 490.5 133 c 128,-1,34
 468 137 468 137 441 137 c 0,35,36
 415 137 415 137 392 133 c 128,-1,37
 369 129 369 129 352 122 c 128,-1,38
 335 115 335 115 325.5 105.5 c 128,-1,39
 316 96 316 96 316 85 c 256,20,21
236 272 m 0,40,41
 236 290 236 290 251.5 305 c 128,-1,42
 267 320 267 320 295 331.5 c 128,-1,43
 323 343 323 343 360.5 349 c 128,-1,44
 398 355 398 355 441 355 c 0,45,46
 485 355 485 355 522.5 349 c 128,-1,47
 560 343 560 343 587.5 331.5 c 128,-1,48
 615 320 615 320 631 305 c 128,-1,49
 647 290 647 290 647 272 c 0,50,51
 647 255 647 255 631 240 c 128,-1,52
 615 225 615 225 587.5 214 c 128,-1,53
 560 203 560 203 522.5 196 c 128,-1,54
 485 189 485 189 441 189 c 0,55,56
 398 189 398 189 360.5 196 c 128,-1,57
 323 203 323 203 295 214 c 128,-1,58
 267 225 267 225 251.5 240 c 128,-1,59
 236 255 236 255 236 272 c 0,40,41
236 461 m 256,60,61
 236 478 236 478 251.5 493.5 c 128,-1,62
 267 509 267 509 295 520 c 128,-1,63
 323 531 323 531 360.5 537.5 c 128,-1,64
 398 544 398 544 441 544 c 0,65,66
 485 544 485 544 522.5 537.5 c 128,-1,67
 560 531 560 531 587.5 520 c 128,-1,68
 615 509 615 509 631 493.5 c 128,-1,69
 647 478 647 478 647 461 c 256,70,71
 647 444 647 444 631 429 c 128,-1,72
 615 414 615 414 587.5 402.5 c 128,-1,73
 560 391 560 391 522.5 384.5 c 128,-1,74
 485 378 485 378 441 378 c 0,75,76
 398 378 398 378 360.5 384.5 c 128,-1,77
 323 391 323 391 295 402.5 c 128,-1,78
 267 414 267 414 251.5 429 c 128,-1,79
 236 444 236 444 236 461 c 256,60,61
316 461 m 256,80,81
 316 450 316 450 325.5 440.5 c 128,-1,82
 335 431 335 431 352 424 c 128,-1,83
 369 417 369 417 392 413 c 128,-1,84
 415 409 415 409 441 409 c 0,85,86
 468 409 468 409 490.5 413 c 128,-1,87
 513 417 513 417 530 424 c 128,-1,88
 547 431 547 431 556.5 440.5 c 128,-1,89
 566 450 566 450 566 461 c 256,90,91
 566 472 566 472 556.5 481.5 c 128,-1,92
 547 491 547 491 530 498 c 128,-1,93
 513 505 513 505 490.5 509 c 128,-1,94
 468 513 468 513 441 513 c 0,95,96
 415 513 415 513 392 509 c 128,-1,97
 369 505 369 505 352 498 c 128,-1,98
 335 491 335 491 325.5 481.5 c 128,-1,99
 316 472 316 472 316 461 c 256,80,81
236 648 m 256,100,101
 236 665 236 665 251.5 680.5 c 128,-1,102
 267 696 267 696 295 707 c 128,-1,103
 323 718 323 718 360.5 724.5 c 128,-1,104
 398 731 398 731 441 731 c 0,105,106
 485 731 485 731 522.5 724.5 c 128,-1,107
 560 718 560 718 587.5 707 c 128,-1,108
 615 696 615 696 631 680.5 c 128,-1,109
 647 665 647 665 647 648 c 256,110,111
 647 631 647 631 631 616 c 128,-1,112
 615 601 615 601 587.5 589.5 c 128,-1,113
 560 578 560 578 522.5 571.5 c 128,-1,114
 485 565 485 565 441 565 c 0,115,116
 398 565 398 565 360.5 571.5 c 128,-1,117
 323 578 323 578 295 589.5 c 128,-1,118
 267 601 267 601 251.5 616 c 128,-1,119
 236 631 236 631 236 648 c 256,100,101
EndSplineSet
EndChar

StartChar: uni008B
Encoding: 139 139 108
Width: 883
Flags: W
LayerCount: 2
Fore
SplineSet
236 85 m 0,0,1
 236 103 236 103 251.5 118 c 128,-1,2
 267 133 267 133 295 144.5 c 128,-1,3
 323 156 323 156 360.5 162.5 c 128,-1,4
 398 169 398 169 441 169 c 0,5,6
 485 169 485 169 522.5 162.5 c 128,-1,7
 560 156 560 156 587.5 144.5 c 128,-1,8
 615 133 615 133 631 118 c 128,-1,9
 647 103 647 103 647 85 c 0,10,11
 647 68 647 68 631 53 c 128,-1,12
 615 38 615 38 587.5 27 c 128,-1,13
 560 16 560 16 522.5 9.5 c 128,-1,14
 485 3 485 3 441 3 c 0,15,16
 398 3 398 3 360.5 9.5 c 128,-1,17
 323 16 323 16 295 27 c 128,-1,18
 267 38 267 38 251.5 53 c 128,-1,19
 236 68 236 68 236 85 c 0,0,1
236 272 m 0,20,21
 236 290 236 290 251.5 305 c 128,-1,22
 267 320 267 320 295 331.5 c 128,-1,23
 323 343 323 343 360.5 349 c 128,-1,24
 398 355 398 355 441 355 c 0,25,26
 485 355 485 355 522.5 349 c 128,-1,27
 560 343 560 343 587.5 331.5 c 128,-1,28
 615 320 615 320 631 305 c 128,-1,29
 647 290 647 290 647 272 c 0,30,31
 647 255 647 255 631 240 c 128,-1,32
 615 225 615 225 587.5 214 c 128,-1,33
 560 203 560 203 522.5 196 c 128,-1,34
 485 189 485 189 441 189 c 0,35,36
 398 189 398 189 360.5 196 c 128,-1,37
 323 203 323 203 295 214 c 128,-1,38
 267 225 267 225 251.5 240 c 128,-1,39
 236 255 236 255 236 272 c 0,20,21
236 461 m 256,40,41
 236 478 236 478 251.5 493.5 c 128,-1,42
 267 509 267 509 295 520 c 128,-1,43
 323 531 323 531 360.5 537.5 c 128,-1,44
 398 544 398 544 441 544 c 0,45,46
 485 544 485 544 522.5 537.5 c 128,-1,47
 560 531 560 531 587.5 520 c 128,-1,48
 615 509 615 509 631 493.5 c 128,-1,49
 647 478 647 478 647 461 c 256,50,51
 647 444 647 444 631 429 c 128,-1,52
 615 414 615 414 587.5 402.5 c 128,-1,53
 560 391 560 391 522.5 384.5 c 128,-1,54
 485 378 485 378 441 378 c 0,55,56
 398 378 398 378 360.5 384.5 c 128,-1,57
 323 391 323 391 295 402.5 c 128,-1,58
 267 414 267 414 251.5 429 c 128,-1,59
 236 444 236 444 236 461 c 256,40,41
316 461 m 256,60,61
 316 450 316 450 325.5 440.5 c 128,-1,62
 335 431 335 431 352 424 c 128,-1,63
 369 417 369 417 392 413 c 128,-1,64
 415 409 415 409 441 409 c 0,65,66
 468 409 468 409 490.5 413 c 128,-1,67
 513 417 513 417 530 424 c 128,-1,68
 547 431 547 431 556.5 440.5 c 128,-1,69
 566 450 566 450 566 461 c 256,70,71
 566 472 566 472 556.5 481.5 c 128,-1,72
 547 491 547 491 530 498 c 128,-1,73
 513 505 513 505 490.5 509 c 128,-1,74
 468 513 468 513 441 513 c 0,75,76
 415 513 415 513 392 509 c 128,-1,77
 369 505 369 505 352 498 c 128,-1,78
 335 491 335 491 325.5 481.5 c 128,-1,79
 316 472 316 472 316 461 c 256,60,61
236 648 m 256,80,81
 236 665 236 665 251.5 680.5 c 128,-1,82
 267 696 267 696 295 707 c 128,-1,83
 323 718 323 718 360.5 724.5 c 128,-1,84
 398 731 398 731 441 731 c 0,85,86
 485 731 485 731 522.5 724.5 c 128,-1,87
 560 718 560 718 587.5 707 c 128,-1,88
 615 696 615 696 631 680.5 c 128,-1,89
 647 665 647 665 647 648 c 256,90,91
 647 631 647 631 631 616 c 128,-1,92
 615 601 615 601 587.5 589.5 c 128,-1,93
 560 578 560 578 522.5 571.5 c 128,-1,94
 485 565 485 565 441 565 c 0,95,96
 398 565 398 565 360.5 571.5 c 128,-1,97
 323 578 323 578 295 589.5 c 128,-1,98
 267 601 267 601 251.5 616 c 128,-1,99
 236 631 236 631 236 648 c 256,80,81
EndSplineSet
EndChar

StartChar: uni008C
Encoding: 140 140 109
Width: 883
Flags: W
LayerCount: 2
Fore
SplineSet
236 85 m 0,0,1
 236 103 236 103 251.5 118 c 128,-1,2
 267 133 267 133 295 144.5 c 128,-1,3
 323 156 323 156 360.5 162.5 c 128,-1,4
 398 169 398 169 441 169 c 0,5,6
 485 169 485 169 522.5 162.5 c 128,-1,7
 560 156 560 156 587.5 144.5 c 128,-1,8
 615 133 615 133 631 118 c 128,-1,9
 647 103 647 103 647 85 c 0,10,11
 647 68 647 68 631 53 c 128,-1,12
 615 38 615 38 587.5 27 c 128,-1,13
 560 16 560 16 522.5 9.5 c 128,-1,14
 485 3 485 3 441 3 c 0,15,16
 398 3 398 3 360.5 9.5 c 128,-1,17
 323 16 323 16 295 27 c 128,-1,18
 267 38 267 38 251.5 53 c 128,-1,19
 236 68 236 68 236 85 c 0,0,1
316 85 m 256,20,21
 316 74 316 74 325.5 64.5 c 128,-1,22
 335 55 335 55 352 48.5 c 128,-1,23
 369 42 369 42 392 38 c 128,-1,24
 415 34 415 34 441 34 c 0,25,26
 468 34 468 34 490.5 38 c 128,-1,27
 513 42 513 42 530 48.5 c 128,-1,28
 547 55 547 55 556.5 64.5 c 128,-1,29
 566 74 566 74 566 85 c 256,30,31
 566 96 566 96 556.5 105.5 c 128,-1,32
 547 115 547 115 530 122 c 128,-1,33
 513 129 513 129 490.5 133 c 128,-1,34
 468 137 468 137 441 137 c 0,35,36
 415 137 415 137 392 133 c 128,-1,37
 369 129 369 129 352 122 c 128,-1,38
 335 115 335 115 325.5 105.5 c 128,-1,39
 316 96 316 96 316 85 c 256,20,21
236 272 m 0,40,41
 236 290 236 290 251.5 305 c 128,-1,42
 267 320 267 320 295 331.5 c 128,-1,43
 323 343 323 343 360.5 349 c 128,-1,44
 398 355 398 355 441 355 c 0,45,46
 485 355 485 355 522.5 349 c 128,-1,47
 560 343 560 343 587.5 331.5 c 128,-1,48
 615 320 615 320 631 305 c 128,-1,49
 647 290 647 290 647 272 c 0,50,51
 647 255 647 255 631 240 c 128,-1,52
 615 225 615 225 587.5 214 c 128,-1,53
 560 203 560 203 522.5 196 c 128,-1,54
 485 189 485 189 441 189 c 0,55,56
 398 189 398 189 360.5 196 c 128,-1,57
 323 203 323 203 295 214 c 128,-1,58
 267 225 267 225 251.5 240 c 128,-1,59
 236 255 236 255 236 272 c 0,40,41
316 272 m 256,60,61
 316 261 316 261 325.5 251.5 c 128,-1,62
 335 242 335 242 352 235 c 128,-1,63
 369 228 369 228 392 224 c 128,-1,64
 415 220 415 220 441 220 c 0,65,66
 468 220 468 220 490.5 224 c 128,-1,67
 513 228 513 228 530 235 c 128,-1,68
 547 242 547 242 556.5 251.5 c 128,-1,69
 566 261 566 261 566 272 c 256,70,71
 566 283 566 283 556.5 292.5 c 128,-1,72
 547 302 547 302 530 309 c 128,-1,73
 513 316 513 316 490.5 320 c 128,-1,74
 468 324 468 324 441 324 c 0,75,76
 415 324 415 324 392 320 c 128,-1,77
 369 316 369 316 352 309 c 128,-1,78
 335 302 335 302 325.5 292.5 c 128,-1,79
 316 283 316 283 316 272 c 256,60,61
236 461 m 256,80,81
 236 478 236 478 251.5 493.5 c 128,-1,82
 267 509 267 509 295 520 c 128,-1,83
 323 531 323 531 360.5 537.5 c 128,-1,84
 398 544 398 544 441 544 c 0,85,86
 485 544 485 544 522.5 537.5 c 128,-1,87
 560 531 560 531 587.5 520 c 128,-1,88
 615 509 615 509 631 493.5 c 128,-1,89
 647 478 647 478 647 461 c 256,90,91
 647 444 647 444 631 429 c 128,-1,92
 615 414 615 414 587.5 402.5 c 128,-1,93
 560 391 560 391 522.5 384.5 c 128,-1,94
 485 378 485 378 441 378 c 0,95,96
 398 378 398 378 360.5 384.5 c 128,-1,97
 323 391 323 391 295 402.5 c 128,-1,98
 267 414 267 414 251.5 429 c 128,-1,99
 236 444 236 444 236 461 c 256,80,81
236 648 m 256,100,101
 236 665 236 665 251.5 680.5 c 128,-1,102
 267 696 267 696 295 707 c 128,-1,103
 323 718 323 718 360.5 724.5 c 128,-1,104
 398 731 398 731 441 731 c 0,105,106
 485 731 485 731 522.5 724.5 c 128,-1,107
 560 718 560 718 587.5 707 c 128,-1,108
 615 696 615 696 631 680.5 c 128,-1,109
 647 665 647 665 647 648 c 256,110,111
 647 631 647 631 631 616 c 128,-1,112
 615 601 615 601 587.5 589.5 c 128,-1,113
 560 578 560 578 522.5 571.5 c 128,-1,114
 485 565 485 565 441 565 c 0,115,116
 398 565 398 565 360.5 571.5 c 128,-1,117
 323 578 323 578 295 589.5 c 128,-1,118
 267 601 267 601 251.5 616 c 128,-1,119
 236 631 236 631 236 648 c 256,100,101
EndSplineSet
EndChar

StartChar: uni008D
Encoding: 141 141 110
Width: 883
Flags: W
LayerCount: 2
Fore
SplineSet
236 85 m 0,0,1
 236 103 236 103 251.5 118 c 128,-1,2
 267 133 267 133 295 144.5 c 128,-1,3
 323 156 323 156 360.5 162.5 c 128,-1,4
 398 169 398 169 441 169 c 0,5,6
 485 169 485 169 522.5 162.5 c 128,-1,7
 560 156 560 156 587.5 144.5 c 128,-1,8
 615 133 615 133 631 118 c 128,-1,9
 647 103 647 103 647 85 c 0,10,11
 647 68 647 68 631 53 c 128,-1,12
 615 38 615 38 587.5 27 c 128,-1,13
 560 16 560 16 522.5 9.5 c 128,-1,14
 485 3 485 3 441 3 c 0,15,16
 398 3 398 3 360.5 9.5 c 128,-1,17
 323 16 323 16 295 27 c 128,-1,18
 267 38 267 38 251.5 53 c 128,-1,19
 236 68 236 68 236 85 c 0,0,1
236 272 m 0,20,21
 236 290 236 290 251.5 305 c 128,-1,22
 267 320 267 320 295 331.5 c 128,-1,23
 323 343 323 343 360.5 349 c 128,-1,24
 398 355 398 355 441 355 c 0,25,26
 485 355 485 355 522.5 349 c 128,-1,27
 560 343 560 343 587.5 331.5 c 128,-1,28
 615 320 615 320 631 305 c 128,-1,29
 647 290 647 290 647 272 c 0,30,31
 647 255 647 255 631 240 c 128,-1,32
 615 225 615 225 587.5 214 c 128,-1,33
 560 203 560 203 522.5 196 c 128,-1,34
 485 189 485 189 441 189 c 0,35,36
 398 189 398 189 360.5 196 c 128,-1,37
 323 203 323 203 295 214 c 128,-1,38
 267 225 267 225 251.5 240 c 128,-1,39
 236 255 236 255 236 272 c 0,20,21
316 272 m 256,40,41
 316 261 316 261 325.5 251.5 c 128,-1,42
 335 242 335 242 352 235 c 128,-1,43
 369 228 369 228 392 224 c 128,-1,44
 415 220 415 220 441 220 c 0,45,46
 468 220 468 220 490.5 224 c 128,-1,47
 513 228 513 228 530 235 c 128,-1,48
 547 242 547 242 556.5 251.5 c 128,-1,49
 566 261 566 261 566 272 c 256,50,51
 566 283 566 283 556.5 292.5 c 128,-1,52
 547 302 547 302 530 309 c 128,-1,53
 513 316 513 316 490.5 320 c 128,-1,54
 468 324 468 324 441 324 c 0,55,56
 415 324 415 324 392 320 c 128,-1,57
 369 316 369 316 352 309 c 128,-1,58
 335 302 335 302 325.5 292.5 c 128,-1,59
 316 283 316 283 316 272 c 256,40,41
236 461 m 256,60,61
 236 478 236 478 251.5 493.5 c 128,-1,62
 267 509 267 509 295 520 c 128,-1,63
 323 531 323 531 360.5 537.5 c 128,-1,64
 398 544 398 544 441 544 c 0,65,66
 485 544 485 544 522.5 537.5 c 128,-1,67
 560 531 560 531 587.5 520 c 128,-1,68
 615 509 615 509 631 493.5 c 128,-1,69
 647 478 647 478 647 461 c 256,70,71
 647 444 647 444 631 429 c 128,-1,72
 615 414 615 414 587.5 402.5 c 128,-1,73
 560 391 560 391 522.5 384.5 c 128,-1,74
 485 378 485 378 441 378 c 0,75,76
 398 378 398 378 360.5 384.5 c 128,-1,77
 323 391 323 391 295 402.5 c 128,-1,78
 267 414 267 414 251.5 429 c 128,-1,79
 236 444 236 444 236 461 c 256,60,61
236 648 m 256,80,81
 236 665 236 665 251.5 680.5 c 128,-1,82
 267 696 267 696 295 707 c 128,-1,83
 323 718 323 718 360.5 724.5 c 128,-1,84
 398 731 398 731 441 731 c 0,85,86
 485 731 485 731 522.5 724.5 c 128,-1,87
 560 718 560 718 587.5 707 c 128,-1,88
 615 696 615 696 631 680.5 c 128,-1,89
 647 665 647 665 647 648 c 256,90,91
 647 631 647 631 631 616 c 128,-1,92
 615 601 615 601 587.5 589.5 c 128,-1,93
 560 578 560 578 522.5 571.5 c 128,-1,94
 485 565 485 565 441 565 c 0,95,96
 398 565 398 565 360.5 571.5 c 128,-1,97
 323 578 323 578 295 589.5 c 128,-1,98
 267 601 267 601 251.5 616 c 128,-1,99
 236 631 236 631 236 648 c 256,80,81
EndSplineSet
EndChar

StartChar: uni008E
Encoding: 142 142 111
Width: 883
Flags: W
LayerCount: 2
Fore
SplineSet
236 85 m 0,0,1
 236 103 236 103 251.5 118 c 128,-1,2
 267 133 267 133 295 144.5 c 128,-1,3
 323 156 323 156 360.5 162.5 c 128,-1,4
 398 169 398 169 441 169 c 0,5,6
 485 169 485 169 522.5 162.5 c 128,-1,7
 560 156 560 156 587.5 144.5 c 128,-1,8
 615 133 615 133 631 118 c 128,-1,9
 647 103 647 103 647 85 c 0,10,11
 647 68 647 68 631 53 c 128,-1,12
 615 38 615 38 587.5 27 c 128,-1,13
 560 16 560 16 522.5 9.5 c 128,-1,14
 485 3 485 3 441 3 c 0,15,16
 398 3 398 3 360.5 9.5 c 128,-1,17
 323 16 323 16 295 27 c 128,-1,18
 267 38 267 38 251.5 53 c 128,-1,19
 236 68 236 68 236 85 c 0,0,1
316 85 m 256,20,21
 316 74 316 74 325.5 64.5 c 128,-1,22
 335 55 335 55 352 48.5 c 128,-1,23
 369 42 369 42 392 38 c 128,-1,24
 415 34 415 34 441 34 c 0,25,26
 468 34 468 34 490.5 38 c 128,-1,27
 513 42 513 42 530 48.5 c 128,-1,28
 547 55 547 55 556.5 64.5 c 128,-1,29
 566 74 566 74 566 85 c 256,30,31
 566 96 566 96 556.5 105.5 c 128,-1,32
 547 115 547 115 530 122 c 128,-1,33
 513 129 513 129 490.5 133 c 128,-1,34
 468 137 468 137 441 137 c 0,35,36
 415 137 415 137 392 133 c 128,-1,37
 369 129 369 129 352 122 c 128,-1,38
 335 115 335 115 325.5 105.5 c 128,-1,39
 316 96 316 96 316 85 c 256,20,21
236 272 m 0,40,41
 236 290 236 290 251.5 305 c 128,-1,42
 267 320 267 320 295 331.5 c 128,-1,43
 323 343 323 343 360.5 349 c 128,-1,44
 398 355 398 355 441 355 c 0,45,46
 485 355 485 355 522.5 349 c 128,-1,47
 560 343 560 343 587.5 331.5 c 128,-1,48
 615 320 615 320 631 305 c 128,-1,49
 647 290 647 290 647 272 c 0,50,51
 647 255 647 255 631 240 c 128,-1,52
 615 225 615 225 587.5 214 c 128,-1,53
 560 203 560 203 522.5 196 c 128,-1,54
 485 189 485 189 441 189 c 0,55,56
 398 189 398 189 360.5 196 c 128,-1,57
 323 203 323 203 295 214 c 128,-1,58
 267 225 267 225 251.5 240 c 128,-1,59
 236 255 236 255 236 272 c 0,40,41
236 461 m 256,60,61
 236 478 236 478 251.5 493.5 c 128,-1,62
 267 509 267 509 295 520 c 128,-1,63
 323 531 323 531 360.5 537.5 c 128,-1,64
 398 544 398 544 441 544 c 0,65,66
 485 544 485 544 522.5 537.5 c 128,-1,67
 560 531 560 531 587.5 520 c 128,-1,68
 615 509 615 509 631 493.5 c 128,-1,69
 647 478 647 478 647 461 c 256,70,71
 647 444 647 444 631 429 c 128,-1,72
 615 414 615 414 587.5 402.5 c 128,-1,73
 560 391 560 391 522.5 384.5 c 128,-1,74
 485 378 485 378 441 378 c 0,75,76
 398 378 398 378 360.5 384.5 c 128,-1,77
 323 391 323 391 295 402.5 c 128,-1,78
 267 414 267 414 251.5 429 c 128,-1,79
 236 444 236 444 236 461 c 256,60,61
236 648 m 256,80,81
 236 665 236 665 251.5 680.5 c 128,-1,82
 267 696 267 696 295 707 c 128,-1,83
 323 718 323 718 360.5 724.5 c 128,-1,84
 398 731 398 731 441 731 c 0,85,86
 485 731 485 731 522.5 724.5 c 128,-1,87
 560 718 560 718 587.5 707 c 128,-1,88
 615 696 615 696 631 680.5 c 128,-1,89
 647 665 647 665 647 648 c 256,90,91
 647 631 647 631 631 616 c 128,-1,92
 615 601 615 601 587.5 589.5 c 128,-1,93
 560 578 560 578 522.5 571.5 c 128,-1,94
 485 565 485 565 441 565 c 0,95,96
 398 565 398 565 360.5 571.5 c 128,-1,97
 323 578 323 578 295 589.5 c 128,-1,98
 267 601 267 601 251.5 616 c 128,-1,99
 236 631 236 631 236 648 c 256,80,81
EndSplineSet
EndChar

StartChar: uni008F
Encoding: 143 143 112
Width: 883
Flags: W
LayerCount: 2
Fore
SplineSet
236 85 m 0,0,1
 236 103 236 103 251.5 118 c 128,-1,2
 267 133 267 133 295 144.5 c 128,-1,3
 323 156 323 156 360.5 162.5 c 128,-1,4
 398 169 398 169 441 169 c 0,5,6
 485 169 485 169 522.5 162.5 c 128,-1,7
 560 156 560 156 587.5 144.5 c 128,-1,8
 615 133 615 133 631 118 c 128,-1,9
 647 103 647 103 647 85 c 0,10,11
 647 68 647 68 631 53 c 128,-1,12
 615 38 615 38 587.5 27 c 128,-1,13
 560 16 560 16 522.5 9.5 c 128,-1,14
 485 3 485 3 441 3 c 0,15,16
 398 3 398 3 360.5 9.5 c 128,-1,17
 323 16 323 16 295 27 c 128,-1,18
 267 38 267 38 251.5 53 c 128,-1,19
 236 68 236 68 236 85 c 0,0,1
236 272 m 0,20,21
 236 290 236 290 251.5 305 c 128,-1,22
 267 320 267 320 295 331.5 c 128,-1,23
 323 343 323 343 360.5 349 c 128,-1,24
 398 355 398 355 441 355 c 0,25,26
 485 355 485 355 522.5 349 c 128,-1,27
 560 343 560 343 587.5 331.5 c 128,-1,28
 615 320 615 320 631 305 c 128,-1,29
 647 290 647 290 647 272 c 0,30,31
 647 255 647 255 631 240 c 128,-1,32
 615 225 615 225 587.5 214 c 128,-1,33
 560 203 560 203 522.5 196 c 128,-1,34
 485 189 485 189 441 189 c 0,35,36
 398 189 398 189 360.5 196 c 128,-1,37
 323 203 323 203 295 214 c 128,-1,38
 267 225 267 225 251.5 240 c 128,-1,39
 236 255 236 255 236 272 c 0,20,21
236 461 m 256,40,41
 236 478 236 478 251.5 493.5 c 128,-1,42
 267 509 267 509 295 520 c 128,-1,43
 323 531 323 531 360.5 537.5 c 128,-1,44
 398 544 398 544 441 544 c 0,45,46
 485 544 485 544 522.5 537.5 c 128,-1,47
 560 531 560 531 587.5 520 c 128,-1,48
 615 509 615 509 631 493.5 c 128,-1,49
 647 478 647 478 647 461 c 256,50,51
 647 444 647 444 631 429 c 128,-1,52
 615 414 615 414 587.5 402.5 c 128,-1,53
 560 391 560 391 522.5 384.5 c 128,-1,54
 485 378 485 378 441 378 c 0,55,56
 398 378 398 378 360.5 384.5 c 128,-1,57
 323 391 323 391 295 402.5 c 128,-1,58
 267 414 267 414 251.5 429 c 128,-1,59
 236 444 236 444 236 461 c 256,40,41
236 648 m 256,60,61
 236 665 236 665 251.5 680.5 c 128,-1,62
 267 696 267 696 295 707 c 128,-1,63
 323 718 323 718 360.5 724.5 c 128,-1,64
 398 731 398 731 441 731 c 0,65,66
 485 731 485 731 522.5 724.5 c 128,-1,67
 560 718 560 718 587.5 707 c 128,-1,68
 615 696 615 696 631 680.5 c 128,-1,69
 647 665 647 665 647 648 c 256,70,71
 647 631 647 631 631 616 c 128,-1,72
 615 601 615 601 587.5 589.5 c 128,-1,73
 560 578 560 578 522.5 571.5 c 128,-1,74
 485 565 485 565 441 565 c 0,75,76
 398 565 398 565 360.5 571.5 c 128,-1,77
 323 578 323 578 295 589.5 c 128,-1,78
 267 601 267 601 251.5 616 c 128,-1,79
 236 631 236 631 236 648 c 256,60,61
EndSplineSet
EndChar

StartChar: uni0090
Encoding: 144 144 113
Width: 883
Flags: W
LayerCount: 2
Fore
SplineSet
440.5 -10 m 0,0,1
 325.5 -10 325.5 -10 269.5 87.5 c 128,-1,2
 213.5 185 213.5 185 213.5 358 c 0,3,4
 213.5 474 213.5 474 236 556 c 128,-1,5
 258.5 638 258.5 638 308.5 681.5 c 128,-1,6
 358.5 725 358.5 725 440.5 725 c 0,7,8
 556.5 725 556.5 725 613 628.5 c 128,-1,9
 669.5 532 669.5 532 669.5 358 c 0,10,11
 669.5 271 669.5 271 657 203 c 128,-1,12
 644.5 135 644.5 135 617.5 87.5 c 128,-1,13
 590.5 40 590.5 40 546.5 15 c 128,-1,14
 502.5 -10 502.5 -10 440.5 -10 c 0,0,1
440.5 66 m 256,15,16
 515.5 66 515.5 66 547.5 138 c 128,-1,17
 579.5 210 579.5 210 579.5 358 c 0,18,19
 579.5 504 579.5 504 547.5 576.5 c 128,-1,20
 515.5 649 515.5 649 440.5 649 c 256,21,22
 365.5 649 365.5 649 334.5 576.5 c 128,-1,23
 303.5 504 303.5 504 303.5 358 c 256,24,25
 303.5 212 303.5 212 334.5 139 c 128,-1,26
 365.5 66 365.5 66 440.5 66 c 256,15,16
EndSplineSet
EndChar

StartChar: uni0091
Encoding: 145 145 114
Width: 883
Flags: W
LayerCount: 2
Fore
SplineSet
485.5 0 m 1,0,-1
 485.5 446 l 2,1,2
 485.5 477 485.5 477 486 507 c 128,-1,3
 486.5 537 486.5 537 487.5 566 c 128,-1,4
 488.5 595 488.5 595 489.5 622 c 1,5,6
 475.5 606 475.5 606 460 592 c 128,-1,7
 444.5 578 444.5 578 430.5 567 c 2,8,-1
 358.5 508 l 1,9,-1
 311.5 568 l 1,10,-1
 498.5 714 l 1,11,-1
 571.5 714 l 1,12,-1
 571.5 0 l 1,13,-1
 485.5 0 l 1,0,-1
EndSplineSet
EndChar

StartChar: uni0092
Encoding: 146 146 115
Width: 883
Flags: W
LayerCount: 2
Fore
SplineSet
219 0 m 1,0,-1
 219 76 l 1,1,-1
 390 262 l 2,2,3
 442 319 442 319 476.5 361.5 c 128,-1,4
 511 404 511 404 528.5 443.5 c 128,-1,5
 546 483 546 483 546 530 c 0,6,7
 546 587 546 587 514 618 c 128,-1,8
 482 649 482 649 431 649 c 0,9,10
 387 649 387 649 350 631 c 128,-1,11
 313 613 313 613 275 581 c 1,12,-1
 228 640 l 1,13,14
 254 664 254 664 284.5 683 c 128,-1,15
 315 702 315 702 352 713 c 128,-1,16
 389 724 389 724 432 724 c 0,17,18
 495 724 495 724 540.5 700.5 c 128,-1,19
 586 677 586 677 611 634.5 c 128,-1,20
 636 592 636 592 636 533 c 0,21,22
 636 477 636 477 615 429.5 c 128,-1,23
 594 382 594 382 556 334.5 c 128,-1,24
 518 287 518 287 465 231 c 2,25,-1
 328 85 l 1,26,-1
 328 81 l 1,27,-1
 664 81 l 1,28,-1
 664 0 l 1,29,-1
 219 0 l 1,0,-1
EndSplineSet
EndChar

StartChar: uni0093
Encoding: 147 147 116
Width: 883
Flags: W
LayerCount: 2
Fore
SplineSet
405 -10 m 0,0,1
 351 -10 351 -10 305 -1.5 c 128,-1,2
 259 7 259 7 216 29 c 1,3,-1
 216 111 l 1,4,5
 259 89 259 89 308 77 c 128,-1,6
 357 65 357 65 403 65 c 0,7,8
 492 65 492 65 534 102.5 c 128,-1,9
 576 140 576 140 576 205 c 0,10,11
 576 248 576 248 554.5 276 c 128,-1,12
 533 304 533 304 491.5 318 c 128,-1,13
 450 332 450 332 390 332 c 2,14,-1
 325 332 l 1,15,-1
 325 406 l 1,16,-1
 390 406 l 2,17,18
 470 406 470 406 512 443 c 128,-1,19
 554 480 554 480 554 541 c 0,20,21
 554 573 554 573 539 597.5 c 128,-1,22
 524 622 524 622 497 635.5 c 128,-1,23
 470 649 470 649 432 649 c 0,24,25
 378 649 378 649 339.5 632.5 c 128,-1,26
 301 616 301 616 264 590 c 1,27,-1
 219 651 l 1,28,29
 256 680 256 680 309.5 702 c 128,-1,30
 363 724 363 724 432 724 c 0,31,32
 503 724 503 724 550.5 701 c 128,-1,33
 598 678 598 678 621.5 638 c 128,-1,34
 645 598 645 598 645 547 c 0,35,36
 645 499 645 499 626 464 c 128,-1,37
 607 429 607 429 572.5 407 c 128,-1,38
 538 385 538 385 491 376 c 1,39,-1
 491 373 l 1,40,41
 580 363 580 363 623.5 317.5 c 128,-1,42
 667 272 667 272 667 203 c 0,43,44
 667 141 667 141 639 92.5 c 128,-1,45
 611 44 611 44 553 17 c 128,-1,46
 495 -10 495 -10 405 -10 c 0,0,1
EndSplineSet
EndChar

StartChar: uni0094
Encoding: 148 148 117
Width: 883
Flags: W
LayerCount: 2
Fore
SplineSet
511.5 0 m 1,0,-1
 511.5 160 l 1,1,-1
 181.5 160 l 1,2,-1
 181.5 238 l 1,3,-1
 505.5 718 l 1,4,-1
 597.5 718 l 1,5,-1
 597.5 241 l 1,6,-1
 701.5 241 l 1,7,-1
 701.5 160 l 1,8,-1
 597.5 160 l 1,9,-1
 597.5 0 l 1,10,-1
 511.5 0 l 1,0,-1
268.5 241 m 1,11,-1
 511.5 241 l 1,12,-1
 511.5 415 l 2,13,14
 511.5 445 511.5 445 512 474 c 128,-1,15
 512.5 503 512.5 503 513.5 529.5 c 128,-1,16
 514.5 556 514.5 556 515.5 580 c 128,-1,17
 516.5 604 516.5 604 517.5 626 c 1,18,-1
 513.5 626 l 1,19,20
 503.5 600 503.5 600 492.5 578 c 128,-1,21
 481.5 556 481.5 556 469.5 538 c 2,22,-1
 268.5 241 l 1,11,-1
EndSplineSet
EndChar

StartChar: uni0095
Encoding: 149 149 118
Width: 883
Flags: W
LayerCount: 2
Fore
SplineSet
400 -10 m 0,0,1
 350 -10 350 -10 304 -0.5 c 128,-1,2
 258 9 258 9 226 29 c 1,3,-1
 226 113 l 1,4,5
 248 98 248 98 278.5 87.5 c 128,-1,6
 309 77 309 77 342 71.5 c 128,-1,7
 375 66 375 66 402 66 c 0,8,9
 479 66 479 66 522.5 103 c 128,-1,10
 566 140 566 140 566 219 c 0,11,12
 566 290 566 290 523 326.5 c 128,-1,13
 480 363 480 363 398 363 c 0,14,15
 372 363 372 363 338.5 358.5 c 128,-1,16
 305 354 305 354 285 350 c 1,17,-1
 241 378 l 1,18,-1
 268 714 l 1,19,-1
 605 714 l 1,20,-1
 605 633 l 1,21,-1
 345 633 l 1,22,-1
 326 428 l 1,23,24
 342 432 342 432 369.5 435 c 128,-1,25
 397 438 397 438 428 438 c 0,26,27
 493 438 493 438 544.5 414.5 c 128,-1,28
 596 391 596 391 626.5 344.5 c 128,-1,29
 657 298 657 298 657 229 c 0,30,31
 657 117 657 117 591 53.5 c 128,-1,32
 525 -10 525 -10 400 -10 c 0,0,1
EndSplineSet
EndChar

StartChar: uni0096
Encoding: 150 150 119
Width: 883
Flags: W
LayerCount: 2
Fore
SplineSet
449.5 -10 m 0,0,1
 384.5 -10 384.5 -10 331.5 24 c 128,-1,2
 278.5 58 278.5 58 247.5 128 c 128,-1,3
 216.5 198 216.5 198 216.5 305 c 0,4,5
 216.5 367 216.5 367 224 427 c 128,-1,6
 231.5 487 231.5 487 251.5 540.5 c 128,-1,7
 271.5 594 271.5 594 306.5 635.5 c 128,-1,8
 341.5 677 341.5 677 396 700.5 c 128,-1,9
 450.5 724 450.5 724 528.5 724 c 0,10,11
 547.5 724 547.5 724 572 722 c 128,-1,12
 596.5 720 596.5 720 612.5 715 c 1,13,-1
 612.5 639 l 1,14,15
 595.5 645 595.5 645 574 648 c 128,-1,16
 552.5 651 552.5 651 531.5 651 c 0,17,18
 465.5 651 465.5 651 423 628 c 128,-1,19
 380.5 605 380.5 605 356 565.5 c 128,-1,20
 331.5 526 331.5 526 320.5 474 c 128,-1,21
 309.5 422 309.5 422 307.5 364 c 1,22,-1
 313.5 364 l 1,23,24
 333.5 399 333.5 399 369.5 423 c 128,-1,25
 405.5 447 405.5 447 463.5 447 c 0,26,27
 525.5 447 525.5 447 571 421.5 c 128,-1,28
 616.5 396 616.5 396 641.5 347.5 c 128,-1,29
 666.5 299 666.5 299 666.5 230 c 0,30,31
 666.5 156 666.5 156 640 102 c 128,-1,32
 613.5 48 613.5 48 565 19 c 128,-1,33
 516.5 -10 516.5 -10 449.5 -10 c 0,0,1
448.5 65 m 0,34,35
 507.5 65 507.5 65 544 105 c 128,-1,36
 580.5 145 580.5 145 580.5 230 c 0,37,38
 580.5 298 580.5 298 548.5 337.5 c 128,-1,39
 516.5 377 516.5 377 451.5 377 c 0,40,41
 407.5 377 407.5 377 374.5 357.5 c 128,-1,42
 341.5 338 341.5 338 323.5 308.5 c 128,-1,43
 305.5 279 305.5 279 305.5 247 c 0,44,45
 305.5 204 305.5 204 321.5 162 c 128,-1,46
 337.5 120 337.5 120 369.5 92.5 c 128,-1,47
 401.5 65 401.5 65 448.5 65 c 0,34,35
EndSplineSet
EndChar

StartChar: uni0097
Encoding: 151 151 120
Width: 883
Flags: W
LayerCount: 2
Fore
SplineSet
305 0 m 1,0,-1
 580 633 l 1,1,-1
 212 633 l 1,2,-1
 212 714 l 1,3,-1
 671 714 l 1,4,-1
 671 643 l 1,5,-1
 400 0 l 1,6,-1
 305 0 l 1,0,-1
EndSplineSet
EndChar

StartChar: uni0098
Encoding: 152 152 121
Width: 883
Flags: W
LayerCount: 2
Fore
SplineSet
441.5 -10 m 0,0,1
 334.5 -10 334.5 -10 276 41.5 c 128,-1,2
 217.5 93 217.5 93 217.5 182 c 0,3,4
 217.5 231 217.5 231 236 267 c 128,-1,5
 254.5 303 254.5 303 286 329.5 c 128,-1,6
 317.5 356 317.5 356 355.5 374 c 1,7,8
 323.5 395 323.5 395 297.5 420 c 128,-1,9
 271.5 445 271.5 445 256 478 c 128,-1,10
 240.5 511 240.5 511 240.5 554 c 0,11,12
 240.5 611 240.5 611 268.5 649 c 128,-1,13
 296.5 687 296.5 687 342.5 706 c 128,-1,14
 388.5 725 388.5 725 441.5 725 c 0,15,16
 496.5 725 496.5 725 542 706 c 128,-1,17
 587.5 687 587.5 687 615 649 c 128,-1,18
 642.5 611 642.5 611 642.5 553 c 0,19,20
 642.5 510 642.5 510 625.5 477.5 c 128,-1,21
 608.5 445 608.5 445 580 421 c 128,-1,22
 551.5 397 551.5 397 514.5 378 c 1,23,24
 552.5 358 552.5 358 587 331.5 c 128,-1,25
 621.5 305 621.5 305 643.5 269.5 c 128,-1,26
 665.5 234 665.5 234 665.5 186 c 0,27,28
 665.5 126 665.5 126 637 82 c 128,-1,29
 608.5 38 608.5 38 558.5 14 c 128,-1,30
 508.5 -10 508.5 -10 441.5 -10 c 0,0,1
439.5 64 m 0,31,32
 508.5 64 508.5 64 543.5 97 c 128,-1,33
 578.5 130 578.5 130 578.5 185 c 0,34,35
 578.5 233 578.5 233 542 268.5 c 128,-1,36
 505.5 304 505.5 304 428.5 340 c 1,37,38
 387.5 321 387.5 321 360 297.5 c 128,-1,39
 332.5 274 332.5 274 318.5 245.5 c 128,-1,40
 304.5 217 304.5 217 304.5 181 c 0,41,42
 304.5 129 304.5 129 337 96.5 c 128,-1,43
 369.5 64 369.5 64 439.5 64 c 0,31,32
442.5 414 m 1,44,45
 474.5 429 474.5 429 500 447 c 128,-1,46
 525.5 465 525.5 465 540.5 490 c 128,-1,47
 555.5 515 555.5 515 555.5 550 c 0,48,49
 555.5 600 555.5 600 525 625.5 c 128,-1,50
 494.5 651 494.5 651 440.5 651 c 0,51,52
 406.5 651 406.5 651 381 639.5 c 128,-1,53
 355.5 628 355.5 628 341.5 605.5 c 128,-1,54
 327.5 583 327.5 583 327.5 550 c 0,55,56
 327.5 514 327.5 514 342.5 489.5 c 128,-1,57
 357.5 465 357.5 465 383.5 447.5 c 128,-1,58
 409.5 430 409.5 430 442.5 414 c 1,44,45
EndSplineSet
EndChar

StartChar: uni0099
Encoding: 153 153 122
Width: 883
Flags: W
LayerCount: 2
Fore
SplineSet
354.5 -10 m 0,0,1
 335.5 -10 335.5 -10 311.5 -7.5 c 128,-1,2
 287.5 -5 287.5 -5 270.5 -1 c 1,3,-1
 270.5 75 l 1,4,5
 287.5 69 287.5 69 309 66 c 128,-1,6
 330.5 63 330.5 63 351.5 63 c 0,7,8
 417.5 63 417.5 63 460.5 86 c 128,-1,9
 503.5 109 503.5 109 527.5 148.5 c 128,-1,10
 551.5 188 551.5 188 562.5 240 c 128,-1,11
 573.5 292 573.5 292 575.5 350 c 1,12,-1
 569.5 350 l 1,13,14
 556.5 327 556.5 327 536 308 c 128,-1,15
 515.5 289 515.5 289 487 278 c 128,-1,16
 458.5 267 458.5 267 419.5 267 c 0,17,18
 358.5 267 358.5 267 312.5 292.5 c 128,-1,19
 266.5 318 266.5 318 241.5 366.5 c 128,-1,20
 216.5 415 216.5 415 216.5 484 c 0,21,22
 216.5 559 216.5 559 243 612.5 c 128,-1,23
 269.5 666 269.5 666 318.5 695 c 128,-1,24
 367.5 724 367.5 724 433.5 724 c 256,25,26
 499.5 724 499.5 724 552 690 c 128,-1,27
 604.5 656 604.5 656 635.5 586 c 128,-1,28
 666.5 516 666.5 516 666.5 409 c 0,29,30
 666.5 348 666.5 348 659 287.5 c 128,-1,31
 651.5 227 651.5 227 631.5 173.5 c 128,-1,32
 611.5 120 611.5 120 576.5 78.5 c 128,-1,33
 541.5 37 541.5 37 487 13.5 c 128,-1,34
 432.5 -10 432.5 -10 354.5 -10 c 0,0,1
431.5 337 m 0,35,36
 475.5 337 475.5 337 508.5 356.5 c 128,-1,37
 541.5 376 541.5 376 559.5 406 c 128,-1,38
 577.5 436 577.5 436 577.5 467 c 0,39,40
 577.5 500 577.5 500 568.5 532 c 128,-1,41
 559.5 564 559.5 564 541.5 590.5 c 128,-1,42
 523.5 617 523.5 617 497 633 c 128,-1,43
 470.5 649 470.5 649 434.5 649 c 0,44,45
 376.5 649 376.5 649 339.5 609 c 128,-1,46
 302.5 569 302.5 569 302.5 484 c 0,47,48
 302.5 416 302.5 416 335 376.5 c 128,-1,49
 367.5 337 367.5 337 431.5 337 c 0,35,36
EndSplineSet
EndChar

StartChar: uni009A
Encoding: 154 154 123
Width: 883
Flags: W
LayerCount: 2
Fore
SplineSet
492 723 m 0,0,1
 547 723 547 723 591 711 c 128,-1,2
 635 699 635 699 669 682 c 1,3,-1
 638 612 l 1,4,5
 608 626 608 626 571.5 638 c 128,-1,6
 535 650 535 650 494 650 c 0,7,8
 437 650 437 650 407 620.5 c 128,-1,9
 377 591 377 591 377 525 c 2,10,-1
 377 386 l 1,11,-1
 581 386 l 1,12,-1
 581 320 l 1,13,-1
 377 320 l 1,14,-1
 377 216 l 2,15,16
 377 176 377 176 367.5 149.5 c 128,-1,17
 358 123 358 123 342.5 107 c 128,-1,18
 327 91 327 91 309 80 c 1,19,-1
 693 80 l 1,20,-1
 693 0 l 1,21,-1
 190 0 l 1,22,-1
 190 74 l 1,23,24
 219 81 219 81 241 97.5 c 128,-1,25
 263 114 263 114 276 142.5 c 128,-1,26
 289 171 289 171 289 215 c 2,27,-1
 289 320 l 1,28,-1
 193 320 l 1,29,-1
 193 386 l 1,30,-1
 289 386 l 1,31,-1
 289 534 l 2,32,33
 289 594 289 594 314 636 c 128,-1,34
 339 678 339 678 385 700.5 c 128,-1,35
 431 723 431 723 492 723 c 0,0,1
EndSplineSet
EndChar

StartChar: uni009B
Encoding: 155 155 124
Width: 883
Flags: W
LayerCount: 2
Fore
SplineSet
391 -8 m 4,0,1
 336 -8 336 -8 292 4 c 132,-1,2
 248 16 248 16 214 33 c 5,3,-1
 245 103 l 5,4,5
 275 89 275 89 311.5 77 c 132,-1,6
 348 65 348 65 389 65 c 4,7,8
 446 65 446 65 476 94.5 c 132,-1,9
 506 124 506 124 506 190 c 6,10,-1
 506 329 l 5,11,-1
 302 329 l 5,12,-1
 302 395 l 5,13,-1
 506 395 l 5,14,-1
 506 499 l 6,15,16
 506 539 506 539 515.5 565.5 c 132,-1,17
 525 592 525 592 540.5 608 c 132,-1,18
 556 624 556 624 574 635 c 5,19,-1
 190 635 l 5,20,-1
 190 715 l 5,21,-1
 693 715 l 5,22,-1
 693 641 l 5,23,24
 664 634 664 634 642 617.5 c 132,-1,25
 620 601 620 601 607 572.5 c 132,-1,26
 594 544 594 544 594 500 c 6,27,-1
 594 395 l 5,28,-1
 690 395 l 5,29,-1
 690 329 l 5,30,-1
 594 329 l 5,31,-1
 594 181 l 6,32,33
 594 121 594 121 569 79 c 132,-1,34
 544 37 544 37 498 14.5 c 132,-1,35
 452 -8 452 -8 391 -8 c 4,0,1
EndSplineSet
EndChar

StartChar: uni009C
Encoding: 156 156 125
Width: 883
Flags: W
LayerCount: 2
Fore
SplineSet
628 617 m 0,0,1
 628 583 628 583 614 557.5 c 128,-1,2
 600 532 600 532 579 512.5 c 128,-1,3
 558 493 558 493 537 477 c 128,-1,4
 516 461 516 461 502 445.5 c 128,-1,5
 488 430 488 430 488 412 c 0,6,7
 488 399 488 399 494.5 388 c 128,-1,8
 501 377 501 377 520 362.5 c 128,-1,9
 539 348 539 348 576 323 c 0,10,11
 612 299 612 299 638 275 c 128,-1,12
 664 251 664 251 678 222 c 128,-1,13
 692 193 692 193 692 153 c 0,14,15
 692 96 692 96 668.5 60 c 128,-1,16
 645 24 645 24 603 7 c 128,-1,17
 561 -10 561 -10 506 -10 c 0,18,19
 459 -10 459 -10 423 -1 c 128,-1,20
 387 8 387 8 361 24 c 1,21,-1
 361 103 l 1,22,23
 378 93 378 93 401 83 c 128,-1,24
 424 73 424 73 450.5 67 c 128,-1,25
 477 61 477 61 503 61 c 0,26,27
 558 61 558 61 582 84 c 128,-1,28
 606 107 606 107 606 147 c 0,29,30
 606 171 606 171 597.5 189.5 c 128,-1,31
 589 208 589 208 568.5 226 c 128,-1,32
 548 244 548 244 512 267 c 0,33,34
 470 294 470 294 446.5 315.5 c 128,-1,35
 423 337 423 337 413 359 c 128,-1,36
 403 381 403 381 403 407 c 0,37,38
 403 438 403 438 416.5 460 c 128,-1,39
 430 482 430 482 450.5 498.5 c 128,-1,40
 471 515 471 515 491.5 531 c 128,-1,41
 512 547 512 547 525.5 566 c 128,-1,42
 539 585 539 585 539 612 c 0,43,44
 539 654 539 654 503.5 673 c 128,-1,45
 468 692 468 692 412 692 c 0,46,47
 377 692 377 692 346.5 682.5 c 128,-1,48
 316 673 316 673 297.5 650 c 128,-1,49
 279 627 279 627 279 584 c 2,50,-1
 279 0 l 1,51,-1
 191 0 l 1,52,-1
 191 584 l 2,53,54
 191 651 191 651 220 690.5 c 128,-1,55
 249 730 249 730 299 747.5 c 128,-1,56
 349 765 349 765 412 765 c 0,57,58
 477 765 477 765 525.5 748.5 c 128,-1,59
 574 732 574 732 601 699.5 c 128,-1,60
 628 667 628 667 628 617 c 0,0,1
EndSplineSet
EndChar

StartChar: uni009D
Encoding: 157 157 126
Width: 883
Flags: W
LayerCount: 2
Fore
SplineSet
297.5 -10 m 0,0,1
 235.5 -10 235.5 -10 193 24 c 128,-1,2
 150.5 58 150.5 58 128.5 119 c 128,-1,3
 106.5 180 106.5 180 106.5 260 c 0,4,5
 106.5 322 106.5 322 118 467 c 128,-1,6
 129.5 612 129.5 612 148.5 652 c 5,7,-1
 34.5 652 l 5,8,-1
 34.5 725 l 5,9,-1
 848.5 725 l 5,10,-1
 848.5 652 l 5,11,-1
 734.5 652 l 5,12,13
 754.5 612 754.5 612 765.5 467 c 128,-1,14
 776.5 322 776.5 322 776.5 260 c 0,15,16
 776.5 180 776.5 180 754.5 119 c 128,-1,17
 732.5 58 732.5 58 690 24 c 128,-1,18
 647.5 -10 647.5 -10 585.5 -10 c 0,19,20
 530.5 -10 530.5 -10 495.5 15.5 c 128,-1,21
 460.5 41 460.5 41 443.5 100 c 1,22,-1
 438.5 100 l 1,23,24
 428.5 61 428.5 61 409.5 36.5 c 128,-1,25
 390.5 12 390.5 12 362.5 1 c 128,-1,26
 334.5 -10 334.5 -10 297.5 -10 c 0,0,1
303.5 63 m 0,27,28
 336.5 63 336.5 63 358 80 c 128,-1,29
 379.5 97 379.5 97 389.5 126.5 c 128,-1,30
 399.5 156 399.5 156 399.5 193 c 2,31,-1
 399.5 344 l 1,32,-1
 483.5 344 l 1,33,-1
 483.5 193 l 2,34,35
 483.5 152 483.5 152 495 122.5 c 128,-1,36
 506.5 93 506.5 93 527.5 78 c 128,-1,37
 548.5 63 548.5 63 578.5 63 c 0,38,39
 612.5 63 612.5 63 637 85 c 128,-1,40
 661.5 107 661.5 107 675 151 c 128,-1,41
 688.5 195 688.5 195 688.5 259 c 0,42,43
 688.5 322 688.5 322 677.5 467 c 128,-1,44
 666.5 612 666.5 612 646.5 652 c 5,45,-1
 237.5 652 l 5,46,47
 218.5 612 218.5 612 206.5 467 c 128,-1,48
 194.5 322 194.5 322 194.5 259 c 0,49,50
 194.5 162 194.5 162 224.5 112.5 c 128,-1,51
 254.5 63 254.5 63 303.5 63 c 0,27,28
EndSplineSet
EndChar

StartChar: uni009E
Encoding: 158 158 127
Width: 883
Flags: W
LayerCount: 2
Fore
SplineSet
641 0 m 1,0,-1
 242 0 l 1,1,-1
 242 714 l 1,2,-1
 641 714 l 1,3,-1
 641 635 l 1,4,-1
 332 635 l 1,5,-1
 332 412 l 1,6,-1
 623 412 l 1,7,-1
 623 334 l 1,8,-1
 332 334 l 1,9,-1
 332 79 l 1,10,-1
 641 79 l 1,11,-1
 641 0 l 1,0,-1
EndSplineSet
EndChar

StartChar: uni009F
Encoding: 159 159 128
Width: 883
Flags: W
LayerCount: 2
Fore
SplineSet
332 0 m 1,0,-1
 242 0 l 1,1,-1
 242 714 l 1,2,-1
 641 714 l 1,3,-1
 641 635 l 1,4,-1
 332 635 l 1,5,-1
 332 382 l 1,6,-1
 622 382 l 1,7,-1
 622 303 l 1,8,-1
 332 303 l 1,9,-1
 332 0 l 1,0,-1
EndSplineSet
EndChar

